<?xml version="1.0" encoding="utf-8"?>
<!-- Generator: Adobe Illustrator 16.0.0, SVG Export Plug-In . SVG Version: 6.00 Build 0)  -->
<!DOCTYPE svg PUBLIC "-//W3C//DTD SVG 1.1//EN" "http://www.w3.org/Graphics/SVG/1.1/DTD/svg11.dtd">
<svg version="1.1" xmlns="http://www.w3.org/2000/svg" xmlns:xlink="http://www.w3.org/1999/xlink" x="0px" y="0px" width="230px"
	 height="60px" viewBox="0 0 230 60" enable-background="new 0 0 230 60" xml:space="preserve">
<g id="Ellipse_1_copy_2_1_" enable-background="new    ">
	<g id="Ellipse_1_copy_2">
		<g>
			<path fill="#E1E1E1" d="M46,28c-6.075,0-11-4.925-11-11c0-2.439,0.804-4.686,2.148-6.51C34.783,9.537,32.206,9,29.5,9
				C18.178,9,9,18.178,9,29.5S18.178,50,29.5,50S50,40.822,50,29.5c0-0.749-0.046-1.487-0.124-2.216C48.669,27.739,47.366,28,46,28z
				"/>
		</g>
	</g>
</g>
<g id="Ellipse_2_copy_4_1_" enable-background="new    ">
	<g id="Ellipse_2_copy_4">
		<g>
			<circle fill="#FF0000" cx="45.5" cy="17.5" r="2.5"/>
		</g>
	</g>
</g>
<g id="Shape_3_1_" enable-background="new    ">
	<g id="Shape_3">
		<g>
			<path fill="#FF0000" d="M79.002,52.186c-0.449-0.438-1.2-0.51-2.025-1.091c-1.874-0.727-5.398-2.256-7.498-2.911
				c-0.675-0.145-2.025-0.581-3.824-1.526c-2.475-1.672-6.675-6.256-9.898-8.662c-0.375-0.447-0.375-0.504-2.025-2.393
				c-1.65-1.893-3.225-0.947-4.074-0.486c-7.548,1.939-10.098,4.631-14.298,6.401c0.037-0.34-1.238-3.114-1.949-3.587
				c-0.712-0.475-1.425-1.492-1.688-2.548c-0.113-2.4-0.675-2.58-2.249-4.618c1.065-2.771,0.317-3.566-0.188-4.232
				c-0.212-0.149-0.392-0.258-0.58-0.333c-1.052-0.639-2.509-0.837-3.395-1.362c-0.674-0.219-1.499-0.837-1.649-1.055
				c1.987-0.91,2.737-2.766,2.888-3.528c0.637-0.836,0.487-3.092,0.412-3.745c0.6-3.093-2.175-5.057-2.549-5.021
				c-0.412-0.652-2.063-0.836-2.625-1.091c-1.35-1.052-2.324,0.364-2.812,0.511c-1.836,0.58-2.324,2.074-2.324,2.473
				c-0.674,0.616-0.751,1.271-0.674,1.926c-1.013,1.275-0.977,3.819-1.013,4.363c-0.375,0.292-0.337,1.384-0.375,2.001
				c0.263,1.457,1.763,1.167,2.926,0.984l0.075,0.616c0,0-0.976,0.11-1.313,0.256c-0.337,0.145-0.975,0.617-1.913,1.635
				c-1.688,1.711-2.511,5.238-2.886,6.194c-0.976,1.397-1.987,4.972-2.549,5.737c-2.062,2.945-2.999,6.437-3.638,8.471
				c-0.638,2.038-0.524,1.31-0.787,1.638c0,0-1.463,0.291-1.65,0.438c-0.188,0.145-0.562,0.507-0.824,0.98
				c-0.263,0.473,0.412,0.511,0.975,0.329c0-0.184,0.112-0.403,0.488-0.654c-0.301,1.197,0.487,1.09,0.824,1.125
				c0.151,0.292,1.05-0.072,1.388-0.619c-0.075,0.33-0.15,0.873,0.487,0.873c0.637,0,0.75-0.8,0.75-0.8s0.75,0.035,1.162,0.035
				c0.45,0.438,1.087,0.583,1.275,0.111c0.074-1.528-1.087-1.639-1.763-1.855c1.201-2.981,3.188-5.602,3.75-7.323
				c0.426-0.361,1.25-1.938,1.576-2.594c0.949-1.139,1.956-3.317,3.324-5.893c0,0,0.324,0.341,0.724,0.729
				c-0.049,0.29-0.674,4.195-0.749,5.262c-0.876,3.854,0,6.934,0.299,11.396c0.3,1.141,1.724,0.555,1.724,0.555
				s1.375-0.191,1.5-0.166c0.125,0.021,2.025,0,2.4,0.142c0.375,0.147,1.325,0.195,1.388,0.039c0,0,0.938,0.4,0.862,0.036
				c-0.076-0.363-1.613-1.346-1.8-1.346c-0.188,0-0.75,0-1.688-0.218c-0.262-0.475-1.424-0.327-2.325-0.475
				c0.227-4.8,1.275-8.727,1.126-10.946c0.112-0.655,0.225-0.8,0.525-1.126c0.788,1.273,3.524,3.491,5.362,5.707
				c0.642,0.776,1.074,1.607,1.371,2.395c0.134,0.411,0.181,1.361,0.332,1.049c0.257,1.011,0.304,1.841,0.321,2.198
				c0.039,0.724-0.037,2.398,0.562,3.162c2.775,3.892,9.524,1.492,10.462,1.054c1.461-0.435,9.073-3.162,11.623-4.689
				c2.924-0.948,3-0.438,3.56,0c3.039,3.562,8.852,4.108,10.05,4.183c0.15,2.29,0.657,2.081,1.425,2.363
				c0.447,0.289,2.083-0.395,2.985-0.365c-0.037,0.007-0.117,0.093,0.164,0.909c0.337,0.981,2.099,0.835,2.436,0.473
				c0.338-0.361,0.21-0.173,1.425-0.617c0,0,0.414,0.363,0.525,0.291c-0.111,0.072,0.226,0.326,0.638,0.216
				c-0.149,0.329,0.562,0.403,0.975,0.438c0.413,0.035,0.225-0.362,0.3-0.8c0.6,0.291,1.274,0,2.024,0.146
				c0.75,0.145,1.013,0.398,1.125,0.363c0.112-0.037,0.263-0.398,0.263-0.398c0.638,0.398,1.087,0.107,1.237-0.221
				c0,0,0.375-0.108,0.525-0.435C80.164,51.931,79.715,52.514,79.002,52.186z M23.441,23.815c0.07-0.007,0.121-0.019,0.161-0.027
				C23.562,23.797,23.511,23.809,23.441,23.815z"/>
		</g>
	</g>
</g>
<g id="camwhoresbay_1_" enable-background="new    ">
	<g id="camwhoresbay">
		<g>
			<path fill="#E1E1E1" d="M64.106,32.997c-0.208,0-0.384,0.032-0.528,0.096s-0.3,0.156-0.468,0.275
				c-0.168,0.12-0.3,0.204-0.396,0.252c-0.384,0.192-0.968,0.288-1.752,0.288c-1.072,0-1.952-0.38-2.64-1.14
				s-1.032-1.716-1.032-2.868c0-1.2,0.339-2.172,1.02-2.916c0.68-0.744,1.62-1.116,2.82-1.116c0.192,0,0.444,0.032,0.756,0.097
				c0.312,0.063,0.548,0.136,0.708,0.216c0.144,0.08,0.292,0.18,0.444,0.3s0.308,0.216,0.468,0.288
				c0.16,0.072,0.368,0.108,0.624,0.108c0.336,0,0.608-0.133,0.816-0.396s0.312-0.571,0.312-0.924c0-0.704-0.416-1.268-1.248-1.692
				c-0.832-0.424-1.928-0.636-3.288-0.636c-1.216,0-2.304,0.284-3.264,0.853c-0.96,0.567-1.708,1.355-2.244,2.363
				c-0.536,1.008-0.804,2.16-0.804,3.456c0,1.248,0.256,2.38,0.768,3.396c0.512,1.016,1.236,1.812,2.172,2.388
				c0.936,0.576,2.02,0.864,3.252,0.864c0.832,0,1.616-0.101,2.352-0.3c0.736-0.2,1.328-0.469,1.776-0.805
				c0.448-0.336,0.672-0.695,0.672-1.08c0-0.399-0.116-0.728-0.348-0.983S64.506,32.997,64.106,32.997z M77.688,23.229
				c-0.417,0-0.76,0.141-1.032,0.42c-0.272,0.28-0.408,0.628-0.408,1.044v0.024c-0.464-0.433-1.032-0.788-1.704-1.068
				c-0.672-0.279-1.392-0.42-2.16-0.42c-1.072,0-2.052,0.284-2.94,0.853c-0.888,0.567-1.588,1.359-2.1,2.376
				c-0.512,1.016-0.768,2.164-0.768,3.443c0,1.28,0.26,2.424,0.78,3.433c0.52,1.008,1.228,1.796,2.124,2.363
				c0.896,0.568,1.896,0.853,3,0.853c0.752,0,1.468-0.164,2.148-0.492c0.68-0.328,1.22-0.724,1.62-1.188
				c0.016,0.417,0.156,0.761,0.42,1.032c0.264,0.272,0.604,0.408,1.02,0.408c0.416,0,0.76-0.14,1.032-0.42s0.408-0.628,0.408-1.044
				V24.692c0-0.432-0.136-0.783-0.408-1.056S78.104,23.229,77.688,23.229z M75.384,32.769c-0.656,0.76-1.504,1.14-2.544,1.14
				s-1.884-0.38-2.532-1.14c-0.648-0.76-0.972-1.716-0.972-2.868c0-1.151,0.328-2.111,0.984-2.88
				c0.656-0.768,1.496-1.152,2.52-1.152c1.04,0,1.888,0.385,2.544,1.152c0.656,0.769,0.984,1.729,0.984,2.88
				C76.368,31.053,76.04,32.009,75.384,32.769z M96.984,23.229c-0.944,0-1.788,0.272-2.532,0.816
				c-0.744,0.544-1.3,1.151-1.668,1.823c-0.56-1.76-1.848-2.64-3.864-2.64c-0.816,0-1.556,0.204-2.22,0.612
				s-1.212,0.899-1.644,1.476v-0.384c0-0.416-0.136-0.764-0.408-1.044c-0.272-0.28-0.616-0.42-1.032-0.42s-0.76,0.14-1.032,0.42
				c-0.272,0.28-0.408,0.628-0.408,1.044v9.912c0,0.416,0.136,0.764,0.408,1.044c0.272,0.28,0.616,0.42,1.032,0.42
				s0.76-0.14,1.032-0.42c0.272-0.28,0.408-0.628,0.408-1.044V28.7c0-0.815,0.252-1.491,0.756-2.027s1.204-0.805,2.1-0.805
				c0.864,0,1.468,0.252,1.812,0.757c0.344,0.504,0.516,1.196,0.516,2.075v6.145c0,0.416,0.136,0.764,0.408,1.044
				c0.272,0.28,0.616,0.42,1.032,0.42s0.76-0.14,1.032-0.42c0.272-0.28,0.408-0.628,0.408-1.044V28.7
				c0-0.815,0.252-1.491,0.756-2.027s1.204-0.805,2.1-0.805c0.864,0,1.468,0.252,1.812,0.757c0.344,0.504,0.516,1.196,0.516,2.075
				v6.145c0,0.416,0.136,0.764,0.408,1.044c0.272,0.28,0.616,0.42,1.032,0.42s0.76-0.14,1.032-0.42
				c0.272-0.28,0.408-0.628,0.408-1.044V28.7c0-1.712-0.304-3.052-0.912-4.02C99.664,23.713,98.568,23.229,96.984,23.229z
				 M195.216,24.081c-0.896-0.568-1.896-0.853-3-0.853c-0.753,0-1.472,0.18-2.16,0.54s-1.224,0.78-1.608,1.26v-5.016
				c0-0.416-0.136-0.764-0.407-1.044c-0.272-0.28-0.616-0.42-1.032-0.42s-0.76,0.14-1.031,0.42c-0.273,0.28-0.408,0.628-0.408,1.044
				v15.072c0,0.432,0.135,0.784,0.408,1.056c0.271,0.271,0.615,0.408,1.031,0.408s0.76-0.141,1.032-0.42
				c0.271-0.28,0.407-0.628,0.407-1.044V34.94c0.448,0.448,1.012,0.828,1.692,1.141c0.681,0.312,1.404,0.468,2.173,0.468
				c1.071,0,2.051-0.284,2.939-0.853c0.888-0.567,1.588-1.359,2.1-2.376c0.512-1.016,0.768-2.163,0.768-3.443
				s-0.26-2.425-0.779-3.433S196.111,24.648,195.216,24.081z M194.376,32.757c-0.656,0.768-1.497,1.151-2.521,1.151
				c-1.04,0-1.888-0.384-2.543-1.151c-0.656-0.769-0.984-1.729-0.984-2.88c0-1.152,0.328-2.108,0.984-2.868
				c0.655-0.76,1.503-1.141,2.543-1.141s1.885,0.381,2.532,1.141s0.972,1.716,0.972,2.868
				C195.359,31.028,195.031,31.988,194.376,32.757z M210.932,23.229c-0.417,0-0.761,0.141-1.033,0.42
				c-0.271,0.28-0.407,0.628-0.407,1.044v0.024c-0.464-0.433-1.032-0.788-1.704-1.068c-0.672-0.279-1.393-0.42-2.16-0.42
				c-1.072,0-2.052,0.284-2.939,0.853c-0.889,0.567-1.588,1.359-2.101,2.376c-0.513,1.016-0.769,2.164-0.769,3.443
				c0,1.28,0.261,2.424,0.781,3.433c0.52,1.008,1.227,1.796,2.123,2.363c0.896,0.568,1.896,0.853,3,0.853
				c0.752,0,1.469-0.164,2.148-0.492s1.22-0.724,1.62-1.188c0.016,0.417,0.155,0.761,0.42,1.032
				c0.264,0.272,0.604,0.408,1.021,0.408c0.415,0,0.76-0.14,1.031-0.42s0.408-0.628,0.408-1.044V24.692
				c0-0.432-0.137-0.783-0.408-1.056S211.347,23.229,210.932,23.229z M208.627,32.769c-0.656,0.76-1.504,1.14-2.544,1.14
				s-1.884-0.38-2.532-1.14s-0.972-1.716-0.972-2.868c0-1.151,0.327-2.111,0.983-2.88c0.656-0.768,1.496-1.152,2.521-1.152
				c1.04,0,1.888,0.385,2.544,1.152c0.656,0.769,0.984,1.729,0.984,2.88C209.611,31.053,209.283,32.009,208.627,32.769z
				 M225.953,23.889c-0.273-0.28-0.617-0.42-1.033-0.42s-0.76,0.14-1.031,0.42c-0.272,0.28-0.408,0.628-0.408,1.044v6.144
				c0,0.912-0.229,1.612-0.684,2.101c-0.456,0.488-1.101,0.731-1.932,0.731c-0.849,0-1.492-0.22-1.933-0.659
				c-0.44-0.44-0.66-1.164-0.66-2.173v-6.144c0-0.416-0.136-0.764-0.407-1.044c-0.273-0.28-0.617-0.42-1.033-0.42
				s-0.76,0.14-1.031,0.42c-0.272,0.28-0.408,0.628-0.408,1.044v7.008c0,0.896,0.176,1.692,0.527,2.388
				c0.353,0.696,0.849,1.24,1.488,1.633c0.641,0.392,1.377,0.588,2.209,0.588c1.76,0,3.055-0.52,3.888-1.561v0.24
				c0,1.184-0.269,2.02-0.804,2.508c-0.537,0.488-1.373,0.732-2.508,0.732c-0.337,0-0.66-0.036-0.973-0.108
				c-0.312-0.071-0.608-0.164-0.889-0.275c-0.279-0.112-0.476-0.192-0.588-0.24c-0.144-0.048-0.296-0.072-0.455-0.072
				c-0.272,0-0.525,0.092-0.756,0.276c-0.232,0.184-0.396,0.451-0.492,0.804c-0.049,0.145-0.072,0.271-0.072,0.384
				c0,0.592,0.392,1.057,1.176,1.393c0.352,0.144,0.812,0.26,1.38,0.348s1.124,0.132,1.669,0.132c1.871,0,3.367-0.476,4.487-1.428
				s1.681-2.469,1.681-4.548v-10.2C226.361,24.517,226.225,24.169,225.953,23.889z"/>
		</g>
	</g>
</g>
<g id="camwhoresbay_copy_1_" enable-background="new    ">
	<g id="camwhoresbay_copy">
		<g>
			<path fill="#FF0000" d="M118.564,23.469c-0.352,0-0.648,0.076-0.888,0.228c-0.24,0.152-0.408,0.381-0.504,0.685l-2.568,6.912
				l-1.848-5.017c-0.128-0.304-0.284-0.527-0.468-0.672c-0.184-0.144-0.444-0.216-0.78-0.216c-0.624,0-1.064,0.296-1.32,0.888
				l-1.896,5.136l-2.592-7.031c-0.096-0.304-0.26-0.532-0.492-0.685c-0.232-0.151-0.508-0.228-0.828-0.228
				c-0.432,0-0.78,0.148-1.044,0.443c-0.264,0.297-0.396,0.645-0.396,1.045c0,0.191,0.032,0.376,0.096,0.552l3.672,9.888
				c0.096,0.288,0.268,0.516,0.516,0.685c0.248,0.168,0.516,0.252,0.804,0.252l0.192-0.024c0.544-0.032,0.952-0.336,1.224-0.912
				l1.944-5.904l2.04,5.904c0.272,0.576,0.68,0.88,1.224,0.912l0.192,0.024c0.288,0,0.556-0.084,0.804-0.252
				c0.248-0.169,0.42-0.396,0.516-0.685l3.673-9.888c0.063-0.224,0.096-0.408,0.096-0.552c0-0.433-0.132-0.788-0.396-1.068
				C119.272,23.608,118.949,23.469,118.564,23.469z M128.562,23.229c-0.815,0-1.556,0.204-2.219,0.612
				c-0.665,0.408-1.213,0.899-1.645,1.476v-5.304c0-0.416-0.137-0.764-0.408-1.044s-0.616-0.42-1.031-0.42
				c-0.417,0-0.761,0.14-1.033,0.42c-0.271,0.28-0.408,0.628-0.408,1.044v14.832c0,0.416,0.137,0.764,0.408,1.044
				c0.272,0.28,0.616,0.42,1.033,0.42c0.415,0,0.76-0.14,1.031-0.42s0.408-0.628,0.408-1.044V28.7c0-0.815,0.252-1.491,0.756-2.027
				s1.203-0.805,2.1-0.805c0.864,0,1.469,0.252,1.812,0.757c0.344,0.504,0.516,1.196,0.516,2.075v6.145
				c0,0.416,0.137,0.764,0.408,1.044s0.615,0.42,1.032,0.42c0.415,0,0.76-0.14,1.032-0.42c0.271-0.28,0.408-0.628,0.408-1.044V28.7
				c0-1.712-0.305-3.052-0.912-4.02C131.242,23.713,130.146,23.229,128.562,23.229z M144.895,24.081c-1-0.568-2.1-0.853-3.299-0.853
				c-1.217,0-2.32,0.284-3.312,0.853c-0.992,0.567-1.776,1.359-2.352,2.376c-0.576,1.016-0.865,2.164-0.865,3.443
				c0,1.28,0.289,2.429,0.865,3.444c0.575,1.017,1.359,1.804,2.352,2.364c0.992,0.56,2.096,0.84,3.312,0.84
				c1.199,0,2.299-0.28,3.299-0.84c1-0.561,1.789-1.348,2.365-2.364c0.575-1.016,0.863-2.164,0.863-3.444
				c0-1.279-0.288-2.428-0.863-3.443C146.684,25.44,145.895,24.648,144.895,24.081z M144.751,31.988
				c-0.328,0.608-0.769,1.08-1.319,1.416c-0.553,0.336-1.164,0.504-1.836,0.504c-0.673,0-1.285-0.168-1.836-0.504
				c-0.553-0.336-0.993-0.808-1.32-1.416c-0.328-0.607-0.492-1.304-0.492-2.088c0-0.783,0.164-1.483,0.492-2.1
				c0.327-0.616,0.768-1.092,1.32-1.428c0.551-0.337,1.163-0.505,1.836-0.505c0.672,0,1.283,0.168,1.836,0.505
				c0.551,0.336,0.991,0.812,1.319,1.428c0.327,0.616,0.492,1.316,0.492,2.1C145.243,30.685,145.078,31.381,144.751,31.988z
				 M158.323,23.637c-0.328-0.272-0.731-0.408-1.212-0.408c-0.784,0-1.521,0.172-2.208,0.516c-0.688,0.345-1.216,0.845-1.585,1.5
				v-0.312c0-0.416-0.135-0.764-0.407-1.044s-0.616-0.42-1.032-0.42s-0.76,0.14-1.031,0.42c-0.273,0.28-0.408,0.628-0.408,1.044
				v9.912c0,0.416,0.135,0.764,0.408,1.044c0.271,0.28,0.615,0.42,1.031,0.42s0.76-0.14,1.032-0.42s0.407-0.628,0.407-1.044v-5.688
				c0-0.72,0.125-1.34,0.373-1.859c0.248-0.521,0.563-0.908,0.947-1.164c0.385-0.256,0.784-0.384,1.2-0.384
				c0.192,0,0.372,0.023,0.54,0.071s0.276,0.08,0.324,0.097c0.304,0.111,0.576,0.168,0.816,0.168c0.352,0,0.655-0.124,0.912-0.372
				c0.256-0.248,0.383-0.62,0.383-1.116C158.814,24.229,158.65,23.909,158.323,23.637z M168.688,24.093
				c-0.937-0.576-1.932-0.864-2.987-0.864c-1.072,0-2.08,0.276-3.024,0.828s-1.704,1.348-2.28,2.388s-0.863,2.248-0.863,3.624
				c0,1.232,0.271,2.34,0.815,3.324s1.315,1.756,2.315,2.316c1,0.56,2.173,0.84,3.517,0.84c0.769,0,1.528-0.129,2.28-0.384
				c0.752-0.256,1.352-0.568,1.8-0.937c0.448-0.352,0.672-0.744,0.672-1.176c0-0.32-0.12-0.601-0.36-0.84
				c-0.24-0.24-0.527-0.36-0.863-0.36c-0.256,0-0.528,0.072-0.816,0.216c-0.08,0.048-0.229,0.141-0.443,0.276
				c-0.217,0.136-0.509,0.264-0.877,0.384c-0.367,0.12-0.88,0.18-1.535,0.18c-0.864,0-1.641-0.268-2.328-0.804
				c-0.688-0.536-1.129-1.275-1.32-2.22h7.92c0.385,0,0.721-0.12,1.008-0.36c0.288-0.24,0.439-0.552,0.456-0.936
				c0-1.136-0.28-2.192-0.84-3.168S169.625,24.669,168.688,24.093z M168.701,28.484h-6.289c0.336-1.743,1.432-2.616,3.289-2.616
				c0.752,0,1.424,0.24,2.016,0.721c0.592,0.479,0.92,1.056,0.984,1.728V28.484z M182.568,30.62c-0.4-0.527-0.889-0.919-1.465-1.176
				c-0.576-0.256-1.296-0.504-2.16-0.744c-0.623-0.176-1.107-0.323-1.451-0.443c-0.345-0.12-0.629-0.288-0.853-0.504
				c-0.224-0.217-0.336-0.5-0.336-0.853c0-0.88,0.608-1.319,1.824-1.319c0.576,0,1.092,0.104,1.548,0.312s0.828,0.488,1.116,0.84
				c0.224,0.225,0.512,0.336,0.864,0.336c0.287,0,0.543-0.088,0.768-0.264c0.304-0.24,0.456-0.544,0.456-0.912
				c0-0.32-0.104-0.607-0.312-0.864c-0.465-0.592-1.104-1.04-1.92-1.344c-0.816-0.304-1.633-0.456-2.449-0.456
				c-0.8,0-1.556,0.156-2.268,0.468c-0.712,0.312-1.288,0.753-1.728,1.32c-0.44,0.568-0.66,1.236-0.66,2.004
				c0,0.88,0.212,1.58,0.636,2.1c0.424,0.521,0.928,0.909,1.512,1.164c0.584,0.257,1.34,0.513,2.269,0.769
				c0.896,0.24,1.556,0.479,1.979,0.72s0.637,0.592,0.637,1.056c0,0.896-0.625,1.368-1.872,1.416c-0.736,0-1.364-0.119-1.884-0.359
				c-0.521-0.24-1.021-0.608-1.5-1.104c-0.305-0.304-0.625-0.456-0.961-0.456c-0.24,0-0.472,0.072-0.695,0.217
				c-0.416,0.287-0.624,0.64-0.624,1.056c0,0.288,0.071,0.528,0.216,0.72c0.576,0.784,1.32,1.353,2.232,1.704
				s1.896,0.528,2.951,0.528c0.769,0,1.516-0.152,2.244-0.456s1.324-0.748,1.788-1.332s0.696-1.268,0.696-2.052
				C183.168,31.845,182.968,31.148,182.568,30.62z"/>
		</g>
	</g>
</g>
</svg>
