<?xml version="1.0" encoding="utf-8"?>
<!-- Generator: Adobe Illustrator 16.0.0, SVG Export Plug-In . SVG Version: 6.00 Build 0)  -->
<!DOCTYPE svg PUBLIC "-//W3C//DTD SVG 1.1//EN" "http://www.w3.org/Graphics/SVG/1.1/DTD/svg11.dtd">
<svg version="1.1" xmlns="http://www.w3.org/2000/svg" xmlns:xlink="http://www.w3.org/1999/xlink" x="0px" y="0px" width="220px"
	 height="60px" viewBox="0 0 220 60" enable-background="new 0 0 220 60" xml:space="preserve">
<g id="fapster_1_" enable-background="new    ">
	<g id="fapster">
		<g>
			<path fill="#212121" d="M78.631,23.18c0.128-0.405,0.192-0.949,0.192-1.632s-0.064-1.227-0.192-1.633
				c-0.128-0.404-0.347-0.692-0.656-0.863c-0.31-0.171-0.587-0.272-0.832-0.305c-0.246-0.031-0.613-0.048-1.104-0.048H63.432
				c-1.131,0-1.899,0.197-2.304,0.592c-0.405,0.396-0.608,1.137-0.608,2.225v17.792c0,0.747,0.064,1.291,0.192,1.632
				c0.256,0.811,1.131,1.216,2.624,1.216c1.365,0,2.197-0.288,2.496-0.864c0.17-0.319,0.272-0.597,0.304-0.832
				c0.032-0.234,0.048-0.607,0.048-1.119v-6.049h6.272c0.747,0,1.291-0.053,1.632-0.159c0.811-0.277,1.216-1.163,1.216-2.656
				c0-1.365-0.278-2.208-0.832-2.528c-0.32-0.17-0.603-0.271-0.848-0.304c-0.246-0.032-0.624-0.048-1.136-0.048h-6.304v-3.232h9.792
				c0.512,0,0.891-0.016,1.136-0.048s0.528-0.128,0.848-0.288C78.28,23.867,78.503,23.585,78.631,23.18z M91.451,20.363
				c-0.555-1.108-1.408-1.664-2.56-1.664c-0.533,0-1.04,0.149-1.52,0.448s-0.837,0.693-1.072,1.184l-8.64,17.889
				c-0.363,0.726-0.544,1.27-0.544,1.632c0,0.768,0.619,1.451,1.856,2.048c0.725,0.362,1.296,0.544,1.712,0.544
				s0.757-0.102,1.024-0.304c0.267-0.203,0.458-0.4,0.576-0.592c0.117-0.192,0.283-0.501,0.496-0.929l1.664-3.456h8.864l1.664,3.456
				c0.213,0.428,0.378,0.747,0.496,0.96c0.117,0.214,0.309,0.416,0.576,0.608c0.266,0.192,0.608,0.288,1.024,0.288
				s0.986-0.182,1.712-0.544c1.237-0.619,1.856-1.312,1.856-2.08c0-0.362-0.182-0.906-0.544-1.632L91.451,20.363z M86.747,32.428
				l2.112-4.385l2.144,4.385H86.747z M117.371,20.747c-1.771-1.364-3.596-2.048-5.473-2.048h-6.848
				c-1.366,0-2.198,0.288-2.496,0.864c-0.171,0.32-0.272,0.603-0.304,0.848c-0.032,0.246-0.048,0.614-0.048,1.104v17.76
				c0,0.747,0.064,1.302,0.192,1.664c0.256,0.789,1.131,1.184,2.624,1.184c1.365,0,2.197-0.288,2.496-0.863
				c0.17-0.32,0.272-0.603,0.304-0.849c0.032-0.245,0.048-0.612,0.048-1.104v-3.616h4c1.898,0,3.732-0.683,5.504-2.048
				c0.874-0.661,1.589-1.552,2.144-2.672s0.832-2.373,0.832-3.761c0-1.386-0.277-2.645-0.832-3.775S118.245,21.409,117.371,20.747z
				 M113.787,29.323c-0.619,0.47-1.248,0.704-1.889,0.704h-4.032v-5.664h4c0.66,0,1.301,0.24,1.92,0.72
				c0.618,0.48,0.928,1.189,0.928,2.128C114.715,28.15,114.405,28.854,113.787,29.323z M135.818,29.163
				c-0.811-0.384-1.695-0.709-2.656-0.976c-0.959-0.267-1.845-0.464-2.655-0.592c-0.812-0.128-1.488-0.373-2.032-0.736
				c-0.544-0.362-0.816-0.837-0.816-1.424s0.229-1.045,0.688-1.376c0.458-0.331,1.034-0.496,1.728-0.496s1.265,0.139,1.713,0.416
				c0.148,0.106,0.314,0.245,0.496,0.416c0.181,0.171,0.304,0.277,0.367,0.32c0.661,0.427,1.217,0.64,1.664,0.64
				c0.768,0,1.515-0.533,2.24-1.6c0.512-0.747,0.768-1.333,0.768-1.761c0-0.426-0.33-0.948-0.992-1.567l-0.799-0.608
				c-0.406-0.341-1.137-0.677-2.192-1.008s-2.224-0.496-3.504-0.496c-2.411,0-4.315,0.699-5.712,2.096
				c-1.398,1.397-2.096,3.035-2.096,4.912c0,1.365,0.271,2.533,0.815,3.504c0.544,0.972,1.221,1.681,2.032,2.128
				c0.811,0.448,1.685,0.838,2.623,1.168c0.939,0.331,1.813,0.571,2.625,0.721c0.811,0.149,1.488,0.39,2.031,0.72
				c0.545,0.331,0.816,0.741,0.816,1.232c0,1.621-0.992,2.432-2.977,2.432c-0.469,0-0.98-0.165-1.535-0.496
				c-0.555-0.33-0.982-0.677-1.28-1.04c-1.067-1.066-1.899-1.6-2.496-1.6c-0.598,0-1.163,0.256-1.696,0.768
				c-0.917,0.896-1.375,1.616-1.375,2.16s0.276,1.157,0.832,1.84l0.287,0.352c0.448,0.641,1.237,1.302,2.368,1.984
				c0.555,0.363,1.28,0.667,2.177,0.912c0.896,0.245,1.844,0.368,2.848,0.368c1.962,0,3.808-0.565,5.535-1.696
				c0.896-0.576,1.621-1.392,2.177-2.448c0.554-1.056,0.831-2.276,0.831-3.664c0-1.386-0.271-2.554-0.815-3.504
				C137.307,30.215,136.629,29.548,135.818,29.163z M160.945,18.907c-0.32-0.16-0.822-0.24-1.504-0.24h-17.793
				c-0.703,0-1.248,0.097-1.631,0.288c-0.256,0.128-0.438,0.357-0.545,0.688c-0.106,0.331-0.16,0.773-0.16,1.328
				s0.054,1.003,0.16,1.344c0.107,0.342,0.32,0.592,0.641,0.752s0.82,0.24,1.504,0.24h6.145v16.063c0,0.491,0.016,0.859,0.047,1.104
				c0.033,0.245,0.129,0.522,0.289,0.832s0.437,0.527,0.832,0.656c0.395,0.128,0.922,0.191,1.584,0.191
				c0.66,0,1.193-0.063,1.6-0.191c0.404-0.129,0.688-0.347,0.848-0.656s0.256-0.581,0.288-0.816
				c0.032-0.234,0.048-0.597,0.048-1.088V23.308h6.112c0.704,0,1.248-0.097,1.632-0.288c0.256-0.128,0.438-0.357,0.544-0.688
				c0.106-0.33,0.16-0.772,0.16-1.328c0-0.554-0.054-1.002-0.16-1.344C161.479,19.318,161.266,19.067,160.945,18.907z
				 M178.785,24.363c0.746,0,1.301-0.063,1.664-0.191c0.789-0.257,1.184-1.131,1.184-2.624c0-1.365-0.287-2.197-0.863-2.496
				c-0.32-0.171-0.604-0.272-0.849-0.305c-0.245-0.031-0.613-0.048-1.104-0.048h-12.607c-1.131,0-1.898,0.197-2.304,0.592
				c-0.405,0.396-0.608,1.137-0.608,2.225v17.792c0,0.747,0.064,1.291,0.192,1.632c0.256,0.811,1.13,1.216,2.624,1.216h12.672
				c0.746,0,1.301-0.063,1.664-0.191c0.789-0.257,1.184-1.131,1.184-2.624c0-1.365-0.287-2.197-0.863-2.496
				c-0.32-0.171-0.604-0.272-0.849-0.305c-0.245-0.031-0.613-0.048-1.104-0.048h-9.855V33.26h6.271c0.747,0,1.302-0.064,1.664-0.192
				c0.811-0.256,1.217-1.131,1.217-2.624c0-1.365-0.288-2.197-0.864-2.496c-0.319-0.17-0.603-0.271-0.849-0.304
				c-0.244-0.032-0.613-0.048-1.104-0.048h-6.336v-3.232H178.785z M202.094,38.188c-0.981-2.219-1.707-3.894-2.176-5.024
				c1.6-1.557,2.4-3.541,2.4-5.952c0-1.386-0.277-2.645-0.832-3.775c-0.556-1.131-1.26-2.026-2.112-2.688
				c-1.771-1.364-3.595-2.048-5.472-2.048h-6.912c-1.365,0-2.197,0.288-2.496,0.864c-0.172,0.32-0.272,0.603-0.305,0.848
				c-0.031,0.246-0.047,0.614-0.047,1.104v17.76c0,0.747,0.063,1.302,0.191,1.664c0.256,0.789,1.131,1.184,2.624,1.184
				c1.364,0,2.196-0.288,2.496-0.863c0.171-0.32,0.272-0.603,0.304-0.849c0.032-0.245,0.048-0.612,0.048-1.104v-3.616h4.032
				l0.992-0.064c1.45,3.456,2.282,5.388,2.496,5.792c0.128,0.214,0.324,0.422,0.592,0.624c0.267,0.203,0.607,0.305,1.023,0.305
				s0.965-0.149,1.648-0.448c1.322-0.555,1.984-1.237,1.984-2.048C202.574,39.511,202.414,38.955,202.094,38.188z M195.758,29.323
				c-0.619,0.47-1.237,0.704-1.855,0.704h-4.097v-5.664h4.032c0.661,0,1.301,0.24,1.92,0.72c0.619,0.48,0.928,1.189,0.928,2.128
				C196.686,28.15,196.377,28.854,195.758,29.323z"/>
		</g>
	</g>
</g>
<g id="xxx_1_" enable-background="new    ">
	<g id="xxx">
		<g>
			<path fill="#276FDB" d="M212.906,35.391c0-0.188-0.119-0.417-0.356-0.689c-0.238-0.272-0.445-0.409-0.622-0.409
				c-0.178,0-0.395,0.121-0.653,0.361l-2.255,2.134l-2.254-2.134c-0.245-0.24-0.459-0.361-0.643-0.361s-0.395,0.139-0.633,0.414
				c-0.238,0.276-0.357,0.505-0.357,0.685c0,0.181,0.137,0.398,0.408,0.653l2.225,2.018l-2.225,2.017
				c-0.271,0.248-0.408,0.466-0.408,0.653s0.121,0.419,0.363,0.695c0.24,0.276,0.45,0.414,0.627,0.414s0.391-0.124,0.643-0.372
				l2.254-2.134l2.255,2.134c0.265,0.248,0.483,0.372,0.653,0.372s0.375-0.14,0.617-0.42c0.241-0.279,0.361-0.509,0.361-0.689
				s-0.136-0.398-0.408-0.653l-2.223-2.017l2.223-2.018C212.771,35.796,212.906,35.579,212.906,35.391z M212.906,27.315
				c0-0.187-0.119-0.417-0.356-0.689c-0.238-0.272-0.445-0.409-0.622-0.409c-0.178,0-0.395,0.121-0.653,0.361l-2.255,2.134
				l-2.254-2.134c-0.245-0.24-0.459-0.361-0.643-0.361s-0.395,0.139-0.633,0.414c-0.238,0.276-0.357,0.505-0.357,0.685
				c0,0.181,0.137,0.398,0.408,0.653l2.225,2.018l-2.225,2.017c-0.271,0.248-0.408,0.466-0.408,0.653s0.121,0.419,0.363,0.695
				c0.24,0.276,0.45,0.414,0.627,0.414s0.391-0.124,0.643-0.372l2.254-2.134l2.255,2.134c0.265,0.248,0.483,0.372,0.653,0.372
				s0.375-0.14,0.617-0.419c0.241-0.28,0.361-0.51,0.361-0.69s-0.136-0.398-0.408-0.653l-2.223-2.017l2.223-2.018
				C212.771,27.721,212.906,27.504,212.906,27.315z M210.275,21.911l2.223-2.018c0.272-0.247,0.408-0.465,0.408-0.652
				s-0.119-0.418-0.356-0.69c-0.238-0.272-0.445-0.409-0.622-0.409c-0.178,0-0.395,0.121-0.653,0.361l-2.255,2.134l-2.254-2.134
				c-0.245-0.24-0.459-0.361-0.643-0.361s-0.395,0.139-0.633,0.414c-0.238,0.276-0.357,0.505-0.357,0.686
				c0,0.18,0.137,0.397,0.408,0.652l2.225,2.018l-2.225,2.017c-0.271,0.248-0.408,0.466-0.408,0.653s0.121,0.419,0.363,0.695
				c0.24,0.276,0.45,0.414,0.627,0.414s0.391-0.124,0.643-0.371l2.254-2.135l2.255,2.135c0.265,0.247,0.483,0.371,0.653,0.371
				s0.375-0.14,0.617-0.419c0.241-0.28,0.361-0.51,0.361-0.69s-0.136-0.398-0.408-0.653L210.275,21.911z"/>
		</g>
	</g>
</g>
<g id="Ellipse_2_1_" enable-background="new    ">
	<g id="Ellipse_2">
		<g>
			<linearGradient id="SVGID_1_" gradientUnits="userSpaceOnUse" x1="11.0303" y1="43.6172" x2="52.9687" y2="16.382">
				<stop  offset="0" style="stop-color:#004ABA"/>
				<stop  offset="1" style="stop-color:#0084FF"/>
			</linearGradient>
			<circle fill="url(#SVGID_1_)" cx="32" cy="30" r="25"/>
		</g>
	</g>
</g>
<g id="Shape_2_copy_1_" enable-background="new    ">
	<g id="Shape_2_copy">
		<g>
			<path fill="#FFFFFF" d="M44.226,18h-19.74c-0.972,0.011-1.914,0.324-2.692,0.915c-0.986,0.75-1.618,1.876-1.794,3.113v9.338
				c0.258-1.061,0.818-2.018,1.615-2.746c0.709-0.649,1.576-1.09,2.512-1.282h20.099c2.309-0.51,3.896-2.647,3.769-4.943
				C47.877,20.291,46.342,18.46,44.226,18z M35.971,30.634c-6.58,0-4.905,0-11.485,0c-0.972,0.011-1.914,0.324-2.692,0.916
				c-0.986,0.749-1.618,1.875-1.794,3.112V44c0.258-1.061,0.818-2.018,1.615-2.746c0.709-0.649,1.576-1.09,2.512-1.282
				c6.7,0,5.144,0,11.844,0c2.31-0.51,3.896-2.647,3.769-4.943C39.623,32.925,38.088,31.094,35.971,30.634z"/>
		</g>
	</g>
</g>
</svg>
