<svg xmlns="http://www.w3.org/2000/svg" xmlns:xlink="http://www.w3.org/1999/xlink" width="257" height="112" x="0px" y="0px" viewBox="0 0 257 112"><defs><path id="a" d="M112 51.3v8.3c0 8.3 5.2 13.4 13.5 13.4 3.5 0 7-.8 9.6-2.2 1.2-.6 1.8-1.7 1.8-3 0-1.8-1.3-3-3.2-3-1.2 0-2 .4-3 1-1.4.5-3.2 1-5.2 1-4 0-6.5-2.5-6.5-7.2v-8.3c0-4.7 2.4-7 6.4-7 2 0 3.7.3 5 1 1.3.4 2 1 3.4 1 1.8 0 3-1.4 3-3.2 0-1-.6-2.2-1.7-2.8-2.6-1.4-6-2.3-9.5-2.3-8 0-13.5 4.7-13.5 13.3"/></defs><clipPath id="b"><use xlink:href="#a" overflow="visible"/></clipPath><linearGradient id="c" x1="-292.5" x2="-291.5" y1="353.7" y2="353.7" gradientUnits="userSpaceOnUse" gradientTransform="matrix(0 35.132 35.132 0 -12303.275 10313.538)"><stop offset="0" stop-color="#0081B9"/><stop offset="1" stop-color="#21448F"/></linearGradient><path fill="url(#c)" d="M112 38h24.8v35H112z" clip-path="url(#b)"/><defs><path id="d" d="M142 28.4v41.2c0 2 1.4 3.4 3.4 3.4s3.4-1.4 3.4-3.4V28.4c0-2-1.5-3.4-3.4-3.4-2 0-3.5 1.4-3.5 3.4"/></defs><clipPath id="e"><use xlink:href="#d" overflow="visible"/></clipPath><linearGradient id="f" x1="-292.5" x2="-291.5" y1="353.7" y2="353.7" gradientUnits="userSpaceOnUse" gradientTransform="matrix(0 48.065 48.065 0 -16857.234 14083.25)"><stop offset="0" stop-color="#0081B9"/><stop offset="1" stop-color="#21448F"/></linearGradient><path fill="url(#f)" d="M142 25h6.8v48h-7z" clip-path="url(#e)"/><g><defs><path id="g" d="M157.3 41.3v28.3c0 2 1.5 3.4 3.5 3.4s3.4-1.4 3.4-3.4V41.3c0-2-1.4-3.4-3.4-3.4s-3.5 1.3-3.5 3.3m-.5-12.3c0 2.2 1.8 4 4 4s4-1.8 4-4-1.8-4-4-4-4 1.8-4 4"/></defs><clipPath id="h"><use xlink:href="#g" overflow="visible"/></clipPath><linearGradient id="i" x1="-292.5" x2="-291.5" y1="353.7" y2="353.7" gradientUnits="userSpaceOnUse" gradientTransform="matrix(0 48.065 48.065 0 -16841.797 14083.25)"><stop offset="0" stop-color="#0081B9"/><stop offset="1" stop-color="#21448F"/></linearGradient><path fill="url(#i)" d="M156.8 25h8v48h-8z" clip-path="url(#h)"/></g><g><defs><path id="j" d="M179.6 64.5V45c2-.5 4.3-.8 6.6-.8 4.2 0 6.6 2.4 6.6 6.6v9.4c0 4.3-2.3 6.6-6.6 6.6-2.5 0-4.7-1-6.6-2.3m-4-25c-1.8.8-3 2.3-3 4V84c0 2 1.6 3.4 3.6 3.4s3.4-1.4 3.4-3.4V71c2.2 1.4 5 2 7.2 2 7.6 0 12.8-4.5 12.8-13.2v-8.6c0-9-5.2-13.3-13.4-13.3-3.7 0-7 .4-10.5 1.6"/></defs><clipPath id="k"><use xlink:href="#j" overflow="visible"/></clipPath><linearGradient id="l" x1="-292.5" x2="-291.5" y1="353.7" y2="353.7" gradientUnits="userSpaceOnUse" gradientTransform="matrix(0 49.331 49.331 0 -17264.297 14466.505)"><stop offset="0" stop-color="#0081B9"/><stop offset="1" stop-color="#21448F"/></linearGradient><path fill="url(#l)" d="M172.7 38h27V87h-27z" clip-path="url(#k)"/></g><g><defs><path id="m" d="M205.8 47.6c0 5.8 3.7 7.8 6.6 9l5.4 2c2.2 1 4.6 2.2 4.6 4.3 0 2.2-2 3.8-5.4 3.8-3 0-5-.8-6.5-1.4-.6-.2-1.2-.4-1.7-.4-1.8 0-3 1.3-3 3.2 0 1.3.7 2.2 1.8 2.8 2.3 1 5.8 2 9.7 2 7.7 0 11.7-4.5 11.7-10.2 0-4.8-2.5-7.5-6.8-9l-6-2.3c-1.4-.6-3.8-1.5-3.8-3.8 0-2.2 2.2-3.5 5-3.5 2.5 0 4 .6 5.8 1.2.6.2 1.2.4 2 .4 1.5 0 3-1.2 3-3.2 0-1.2-.7-2.2-1.8-2.8-2.4-1-6-2-9-2-6.8 0-11.6 3.8-11.6 9.8"/></defs><clipPath id="n"><use xlink:href="#m" overflow="visible"/></clipPath><linearGradient id="o" x1="-292.5" x2="-291.5" y1="353.7" y2="353.7" gradientUnits="userSpaceOnUse" gradientTransform="matrix(0 35.132 35.132 0 -12210.307 10313.538)"><stop offset="0" stop-color="#0081B9"/><stop offset="1" stop-color="#21448F"/></linearGradient><path fill="url(#o)" d="M205.8 38H229v35H206z" clip-path="url(#n)"/></g><g><defs><path id="p" d="M76.4 5.6c-2.8 0-5 2.3-5 5 0 3 2.2 5.2 5 5.2h132c21 0 38.3 17.3 38.3 38.4V58c0 21-17.2 38.4-38.3 38.4H77c-3 0-5.2 2.2-5.2 5 0 3 2.3 5 5 5h131.6C235 106.5 257 85 257 58v-3.8c0-26.8-22-48.6-48.6-48.6h-132z"/></defs><clipPath id="q"><use xlink:href="#p" overflow="visible"/></clipPath><linearGradient id="r" x1="-292.5" x2="-291.5" y1="353.7" y2="353.7" gradientUnits="userSpaceOnUse" gradientTransform="matrix(0 100.901 100.901 0 -35528.457 29517.418)"><stop offset="0" stop-color="#0081B9"/><stop offset="1" stop-color="#21448F"/></linearGradient><path fill="url(#r)" d="M71.3 5.6H257v101H71.2z" clip-path="url(#q)"/></g><g fill="#EB4358"><path d="M32 33v10c2-1 4.8-1.6 6.8-1.6 7 0 11 4.2 11 11.8v16.4c0 1.8-1.2 3-3 3-1.7 0-3-1.2-3-3V52.8c0-3.8-2-5.8-5.7-5.8-2 0-4 .7-6 2v20.6c0 1.8-1.2 3-3 3-1.7 0-3-1.2-3-3V33c0-2 1.3-3 3-3 1.8 0 3 1 3 3"/><path d="M17.5 112.2C8.8 112.2 0 105.8 0 91.4V20.8C0 6.4 8.8 0 17.5 0c4 0 8 1.2 12.2 3.6L91 39c7.2 4.2 11.5 10.4 11.5 17 0 6.8-4.3 13-11.6 17.2l-61.3 35.4c-4.2 2.4-8.3 3.6-12.2 3.6m0-100.5c-5.2 0-5.8 6.3-5.8 9v70.7c0 2.8.6 9 5.8 9 1.8 0 4-.6 6.3-2L85 63c3.7-2 5.7-4.5 5.7-7 0-2.3-2-4.8-5.7-7L23.8 14c-2.3-1.4-4.5-2-6.3-2"/></g></svg>