<svg id="Layer_1" data-name="Layer 1" xmlns="http://www.w3.org/2000/svg" viewBox="0 0 592.52 187.62"><defs><style>.cls-1{fill:#df1322;fill-rule:evenodd;}.cls-2{fill:#fff;}</style></defs><title>logo-good</title><path class="cls-1" d="M213.61,44.23c1.83-2.82,3.57-5.42,5.23-8.06,18.26-29,45-39.69,77.71-32.78,23.88,5,47.18,12.85,70.64,19.79,28.13,8.32,56.27,16.43,85.57,19.73,36.13,4.06,71.5,1.19,106-10.56a55.69,55.69,0,0,1,26.06-2.91c5.36.76,8,3.16,7.64,8.5a44.74,44.74,0,0,1-3.16,12.94c-7.11,17.89-19.13,32.38-33.11,45.18C511.72,136.81,459.7,163.28,401,176.58c-32.32,7.31-65,11-98.22,8.94-19.56-1.18-38.69-4.6-56.65-12.94-23.4-10.87-39.67-28.1-45.52-53.59-4.18-18.15-3.44-36.41,3.59-53.94,1.53-3.79.82-6.19-1.85-8.76-9.89-9.47-22.22-13.15-35.34-14.61-11.14-1.25-21.84-.14-31.68,6.24-5.74,3.71-9.45,2.43-11.59-4.08a97.31,97.31,0,0,1-5-21.78c-.9-10.31,5.08-16.9,15.47-16.47A95.83,95.83,0,0,1,161,10.35C181.05,17.23,199.08,27.77,213.61,44.23Z"/><path class="cls-2" d="M5.34,123.84a9.57,9.57,0,0,1-2.91-7V73.33a9.55,9.55,0,0,1,2.89-7,9.53,9.53,0,0,1,7-2.89,9.53,9.53,0,0,1,7,3,9.27,9.27,0,0,1,1.58,2.06,10.46,10.46,0,0,1,1.33,5V85.83H41.45V73.42a10.22,10.22,0,0,1,2.9-7.06,9.56,9.56,0,0,1,7-2.94,10.38,10.38,0,0,1,3.77.72,8.71,8.71,0,0,1,3.2,2.14,10.13,10.13,0,0,1,1.58,2,10.45,10.45,0,0,1,1,2.43,9.87,9.87,0,0,1,.35,2.58v43.45a10.1,10.1,0,0,1-2.9,7.06,9.43,9.43,0,0,1-6.89,2.86,9.6,9.6,0,0,1-3.65-.69,10.74,10.74,0,0,1-3.32-2.18,9.32,9.32,0,0,1-2.91-7V103H22.06v13.78a9.3,9.3,0,0,1-2.86,7A9,9,0,0,1,16,126a10,10,0,0,1-3.67.71A9.49,9.49,0,0,1,5.34,123.84Z"/><path class="cls-2" d="M71,112.64A30.13,30.13,0,0,1,67.91,107,32.08,32.08,0,0,1,66,101a28.48,28.48,0,0,1,0-12.1,32.55,32.55,0,0,1,1.93-6A30.34,30.34,0,0,1,71,77.28a31.64,31.64,0,0,1,7.22-7.52,33,33,0,0,1,19.63-6.51,33.17,33.17,0,0,1,7.87,1,33.68,33.68,0,0,1,7.43,2.8,33.16,33.16,0,0,1,6.47,4.42A32.63,32.63,0,0,1,130.47,95a29.72,29.72,0,0,1-1.45,9.19,33,33,0,0,1-15.83,18.78,34.14,34.14,0,0,1-7.33,2.76,32,32,0,0,1-8,1,33.07,33.07,0,0,1-10.35-1.66,32.27,32.27,0,0,1-9.3-4.86A31.27,31.27,0,0,1,71,112.64ZM84.82,95a15.89,15.89,0,0,0,1.76,7.47,13.29,13.29,0,0,0,4.73,5.21,12.09,12.09,0,0,0,6.5,1.84,14.38,14.38,0,0,0,2.57-.24,12.67,12.67,0,0,0,4.28-1.75,13.79,13.79,0,0,0,3.38-3.15,14.27,14.27,0,0,0,2.26-4.26,15.57,15.57,0,0,0,.79-5,15.85,15.85,0,0,0-.25-2.74,15.2,15.2,0,0,0-2.43-6.22A12.86,12.86,0,0,0,103.87,82a12.68,12.68,0,0,0-12.58.35,13.07,13.07,0,0,0-4.73,5.21A15.92,15.92,0,0,0,84.82,95Z"/><path class="cls-2" d="M131.51,72.5a9.16,9.16,0,0,1,1.2-4.29,8.24,8.24,0,0,1,7.18-4.13h33.25a7.91,7.91,0,0,1,4.27,1.18,8.55,8.55,0,0,1,3,3.2,8.82,8.82,0,0,1,1.13,4.38,8.53,8.53,0,0,1-2.62,6,8,8,0,0,1-5.81,2.45H166v35.61a9.31,9.31,0,0,1-1.31,4.88,10,10,0,0,1-3.48,3.48,9.25,9.25,0,0,1-4.88,1.31,9.6,9.6,0,0,1-8.49-4.9,9.74,9.74,0,0,1-1.3-4.93V81.1h-6.73a7.83,7.83,0,0,1-5.87-2.54A8.42,8.42,0,0,1,131.51,72.5Z"/><path d="M231.27,118.91c0-1.5,0-2.57.09-3.24l7-40.8a13.07,13.07,0,0,1,2.59-6.2,11.31,11.31,0,0,1,5.13-3.76,14.8,14.8,0,0,1,5.19-1,12.56,12.56,0,0,1,12.24,9.33l6.27,21.5,6.3-21.5a12.92,12.92,0,0,1,4.67-6.8,12.46,12.46,0,0,1,7.66-2.53,15.05,15.05,0,0,1,5.19,1,10.9,10.9,0,0,1,5.1,3.74,14,14,0,0,1,2.62,6.22l6.89,40.8a22.35,22.35,0,0,1,.16,3.24,8.72,8.72,0,0,1-3.13,5.93,9.59,9.59,0,0,1-6.45,2.37,11,11,0,0,1-3.24-.5,9.92,9.92,0,0,1-4.44-3.07,8.92,8.92,0,0,1-2-4.81l-3-24.66L278.26,120a14.08,14.08,0,0,1-2.18,4.75A6.63,6.63,0,0,1,272.9,127a10.85,10.85,0,0,1-3.4.71,7.06,7.06,0,0,1-4.94-2,12.14,12.14,0,0,1-3.2-5.73l-7.92-25.82-2.91,24.66a8.92,8.92,0,0,1-2,4.81,9.94,9.94,0,0,1-4.4,3.07,11.35,11.35,0,0,1-3.24.5,9.62,9.62,0,0,1-6.43-2.37A8.69,8.69,0,0,1,231.27,118.91Z"/><path d="M316.6,113.31a30.71,30.71,0,0,1-3.13-5.63,33.09,33.09,0,0,1-1.91-6,28.91,28.91,0,0,1,0-12.1,32.74,32.74,0,0,1,5-11.67,31.64,31.64,0,0,1,7.23-7.51,32.89,32.89,0,0,1,27.49-5.56,33.49,33.49,0,0,1,7.43,2.8,32.8,32.8,0,0,1,6.48,4.42A32.66,32.66,0,0,1,376,95.62a30,30,0,0,1-1.45,9.2,33,33,0,0,1-15.84,18.78,34.25,34.25,0,0,1-7.32,2.76,32.09,32.09,0,0,1-8,1,33.13,33.13,0,0,1-10.36-1.66,32.09,32.09,0,0,1-9.29-4.86A31.51,31.51,0,0,1,316.6,113.31Zm13.78-17.69a15.85,15.85,0,0,0,1.77,7.48,13.11,13.11,0,0,0,4.73,5.2,12,12,0,0,0,6.49,1.85,13.73,13.73,0,0,0,2.58-.25,12.4,12.4,0,0,0,4.27-1.74A13.79,13.79,0,0,0,353.6,105a14.42,14.42,0,0,0,2.27-4.26,15.84,15.84,0,0,0,.79-5,16.91,16.91,0,0,0-.25-2.74A15.58,15.58,0,0,0,354,86.74a13.17,13.17,0,0,0-4.55-4.11,12.7,12.7,0,0,0-12.57.36,12.93,12.93,0,0,0-4.73,5.21A15.77,15.77,0,0,0,330.38,95.62Z"/><path d="M382.26,65.08a10.25,10.25,0,0,1,4.4-.91,9.58,9.58,0,0,1,5.52,1.66,9.47,9.47,0,0,1,3.57,4.6l10,27.89,10-27.89a9.78,9.78,0,0,1,3.59-4.63,9.35,9.35,0,0,1,5.45-1.72,10.47,10.47,0,0,1,4.4,1,10,10,0,0,1,4.11,3.65,9.36,9.36,0,0,1,1.49,5.11,9.13,9.13,0,0,1-.74,3.65l-19,43.2q-2.25,5.15-6,6.27a13.22,13.22,0,0,1-3.49.54q-6.06,0-9-6.81l-19-43.2a9.1,9.1,0,0,1-.79-3.65,9.36,9.36,0,0,1,1.51-5.07A10,10,0,0,1,382.26,65.08Z"/><path d="M440.41,123.64A13.09,13.09,0,0,1,436,119.7a9.46,9.46,0,0,1-1.18-5,9.1,9.1,0,0,1,1.41-4.73,7.11,7.11,0,0,1,6.06-3.57,13.9,13.9,0,0,1,3,.33l3.73,1,3.4.87,2.45.58.92.25a14.06,14.06,0,0,1,1.45.25,18.39,18.39,0,0,0,3,.29,6.91,6.91,0,0,0,2.36-.38,5.82,5.82,0,0,0,2-.91,1.8,1.8,0,0,0,.79-1.45,1.64,1.64,0,0,0-.87-1.45,5,5,0,0,0-.66-.25l-1.62-.58-1.08-.34-4.52-1.12-.87-.16-5.61-1.62a29,29,0,0,1-7.8-3.24A15.43,15.43,0,0,1,437,92.72,16.07,16.07,0,0,1,435.14,85a18.79,18.79,0,0,1,5-12.7,22.67,22.67,0,0,1,7.1-5.14,30.79,30.79,0,0,1,9.79-2.74,37.86,37.86,0,0,1,4.44-.25,32.87,32.87,0,0,1,9.09,1.24,22.86,22.86,0,0,1,7.16,3.26,8.63,8.63,0,0,1,3.13,4.5,12.38,12.38,0,0,1,.42,3,7.66,7.66,0,0,1-1.37,4.57,8.42,8.42,0,0,1-2.84,2.7,7.84,7.84,0,0,1-3.8.87,19.78,19.78,0,0,1-5.27-.83l-.67-.25-2.44-.79-1-.25-2.37-.58-1.2-.29-.83-.17-.48-.06-.64,0a5.3,5.3,0,0,0-3.24.71,1.82,1.82,0,0,0-.75,1.45,1.11,1.11,0,0,0,.5.91,4.25,4.25,0,0,0,1.37.58l1.62.46.58.17,1.7.41,2.82.66L468.55,88a42.33,42.33,0,0,1,7.39,2.83,17.2,17.2,0,0,1,4,2.8,16.7,16.7,0,0,1,3,3.67,16.36,16.36,0,0,1,1.81,4.19,17.68,17.68,0,0,1,.58,4.53,18.73,18.73,0,0,1-4.78,12.4q-7.31,8.85-21.58,8.85c-.72,0-1.94-.06-3.65-.17Q445.27,126.54,440.41,123.64Z"/></svg>