<svg version="1.1" xmlns="http://www.w3.org/2000/svg" width="230" height="44" viewBox="0 0 5276 1024">
<path fill="#fff" d="M1573.559 242.377h-93.613v533.972h245.642v-80.882h-152.029v-453.089zM1894.091 368.943c-67.402 0-125.068 41.19-125.068 119.076v177.866c0 80.133 53.173 117.578 125.068 117.578 68.9 0 125.816-37.446 125.816-118.327v-180.112c0-78.635-58.415-116.081-125.816-116.081zM1931.537 670.752c0 21.719-8.238 42.687-37.446 42.687-0.080 0.001-0.176 0.001-0.271 0.001-20.681 0-37.446-16.765-37.446-37.446 0-1.584 0.098-3.145 0.289-4.678l-0.019 0.183v-187.227c0-23.216 10.484-43.437 37.446-43.437 0.11-0.001 0.239-0.002 0.369-0.002 20.681 0 37.446 16.765 37.446 37.446 0 1.85-0.134 3.668-0.393 5.447l0.024-0.202zM2193.655 639.298h-1.498l-44.935-262.118h-93.613l89.12 401.041h91.367l87.435-400.291h-80.133zM2595.819 607.844v-122.821c0-69.648-41.938-116.081-114.583-116.081-2.136-0.139-4.632-0.218-7.145-0.218-64.833 0-117.391 52.558-117.391 117.391 0 2.513 0.079 5.009 0.235 7.483l-0.017-0.338v172.623c0 79.384 52.424 118.327 126.565 118.327 0.904 0.012 1.972 0.019 3.041 0.019 38.121 0 74.175-8.852 106.217-24.613l-1.416 0.629-16.476-63.657c-22.092 8.914-47.669 14.586-74.423 15.711l-0.469 0.016c-1.728 0.209-3.728 0.328-5.758 0.328-28.023 0-50.739-22.716-50.739-50.739 0-2.028 0.119-4.030 0.35-5.996l-0.023 0.238v-48.304h151.279zM2444.539 481.278c-0.172-1.349-0.271-2.91-0.271-4.495 0-20.681 16.765-37.446 37.446-37.446 0.095 0 0.19 0 0.285 0.001h-0.015c26.211 0 35.948 18.722 35.948 41.19v64.406h-72.644z"></path>
<path fill="#fff" d="M2864.489 462.556h-103.349v-220.179h-93.613v533.972h93.613v-227.668h103.349v227.668h93.613v-533.972h-93.613zM3150.572 368.943c-67.402 0-125.068 41.19-125.068 119.076v177.866c0 80.133 53.173 117.578 125.068 117.578 68.9 0 125.816-37.446 125.816-118.327v-180.112c0-78.635-58.603-116.081-126.004-116.081zM3188.017 670.752c0 21.719-8.238 42.687-37.446 42.687-0.080 0.001-0.176 0.001-0.271 0.001-20.681 0-37.446-16.765-37.446-37.446 0-1.584 0.098-3.145 0.289-4.678l-0.019 0.183v-187.227c0-23.216 10.484-43.437 37.446-43.437 0.11-0.001 0.239-0.002 0.369-0.002 20.681 0 37.446 16.765 37.446 37.446 0 1.85-0.134 3.668-0.393 5.447l0.024-0.202zM3674.807 368.943c-0.146-0.001-0.318-0.001-0.49-0.001-36.483 0-68.543 18.938-86.885 47.52l-0.247 0.411c-11.088-28.367-38.207-48.094-69.933-48.094-1.744 0-3.475 0.060-5.19 0.177l0.232-0.013c-0.672-0.017-1.464-0.027-2.258-0.027-34.326 0-64.337 18.475-80.632 46.025l-0.238 0.435v-37.446h-86.124v398.419h88.371v-278.968c0-28.459 15.727-53.921 39.692-53.921s33.701 18.722 33.701 39.692v293.198h88.371v-280.84c0-28.459 16.476-51.675 39.692-51.675s34.449 18.722 34.449 40.441v292.075h87.622v-327.273c0.062-1.15 0.097-2.496 0.097-3.85 0-42.188-34.2-76.389-76.389-76.389-1.417 0-2.825 0.039-4.224 0.115l0.195-0.008zM3942.168 368.943c-2.136-0.139-4.632-0.218-7.145-0.218-64.833 0-117.391 52.558-117.391 117.391 0 2.513 0.079 5.009 0.235 7.483l-0.017-0.338v172.623c0 79.384 52.424 118.327 126.565 118.327 0.904 0.012 1.972 0.019 3.041 0.019 38.121 0 74.175-8.852 106.217-24.613l-1.416 0.629-16.476-63.657c-22.092 8.914-47.669 14.586-74.423 15.711l-0.469 0.016c-1.728 0.209-3.728 0.328-5.758 0.328-28.023 0-50.739-22.716-50.739-50.739 0-2.028 0.119-4.030 0.35-5.996l-0.023 0.238v-48.304h151.279v-122.821c0.562-69.648-41.377-116.081-114.022-116.081zM3978.115 544.935h-72.644v-63.657c-0.172-1.349-0.271-2.91-0.271-4.495 0-20.681 16.765-37.446 37.446-37.446 0.095 0 0.19 0 0.285 0.001h-0.015c26.211 0 35.948 18.722 35.948 41.19v64.406zM4271.687 242.377h-149.781v533.972h93.613v-199.959h53.173c92.116 0 132.557-65.903 132.557-172.998-1.498-101.851-42.126-161.016-129.749-161.016zM4254.462 498.503h-38.943v-177.491h40.441c37.446 0 52.424 29.956 52.424 84.627-0.187 62.159-18.161 92.865-54.109 92.865zM4570.502 368.943c-67.402 0-125.068 41.19-125.068 119.076v177.866c0 80.133 53.173 117.578 125.068 117.578 68.9 0 125.816-37.446 125.816-118.327v-180.112c-0.187-78.635-58.603-116.081-126.004-116.081zM4607.946 670.752c0 21.719-8.238 42.687-37.446 42.687-0.080 0.001-0.176 0.001-0.271 0.001-20.681 0-37.446-16.765-37.446-37.446 0-1.584 0.098-3.145 0.289-4.678l-0.019 0.183v-187.227c0-23.216 10.484-43.437 37.446-43.437 0.11-0.001 0.239-0.002 0.369-0.002 20.681 0 37.446 16.765 37.446 37.446 0 1.85-0.134 3.668-0.393 5.447l0.024-0.202zM4849.095 422.489v0-44.935h-86.873v398.793h88.371v-269.607c0-37.446 28.459-50.176 58.415-50.176 12.505 0.1 24.679 1.185 36.545 3.182l-1.345-0.187v-83.129c-7.593-1.906-16.309-2.999-25.28-2.999-0.327 0-0.654 0.001-0.981 0.004h0.050c-31.674 0.152-58.594 20.345-68.739 48.542l-0.161 0.512zM5164.385 368.568c-0.584-0.013-1.272-0.020-1.962-0.020-34.231 0-64.231 18.12-80.93 45.292l-0.236 0.412v-37.446h-86.124v399.542h88.371v-278.968c0-28.459 15.727-53.921 39.692-53.921s33.701 18.722 33.701 40.441v292.449h87.622v-327.273c0.074-1.257 0.117-2.727 0.117-4.208 0-41.981-34.032-76.014-76.014-76.014-1.292 0-2.577 0.032-3.853 0.096l0.179-0.007z"></path>
<path fill="#ffdde9" d="M1521.509 943.542l-32.203-24.339c-4.020-2.747-7.427-6.036-10.217-9.809l-0.081-0.114c-1.881-3.030-2.996-6.708-2.996-10.645 0-0.075 0-0.15 0.001-0.225v0.011c-0.017-0.273-0.026-0.593-0.026-0.915 0-5.631 2.889-10.585 7.267-13.464l0.061-0.038c5.104-2.974 11.234-4.731 17.774-4.731 0.663 0 1.321 0.018 1.975 0.054l-0.091-0.004c0.692-0.068 1.497-0.107 2.31-0.107 6.934 0 13.206 2.834 17.72 7.407l0.003 0.003c4.491 6.067 7.267 13.641 7.488 21.854l0.001 0.052 14.604-2.995c-0.102-11.142-4.823-21.163-12.338-28.254l-0.019-0.018c-7.595-5.453-17.080-8.72-27.329-8.72-1.122 0-2.235 0.039-3.338 0.116l0.149-0.008c-0.789-0.044-1.713-0.069-2.642-0.069-10.371 0-20.019 3.1-28.065 8.424l0.189-0.118c-6.851 4.952-11.256 12.919-11.256 21.915 0 0.392 0.008 0.782 0.025 1.169l-0.002-0.055c0 0.038 0 0.083 0 0.128 0 5.674 1.529 10.989 4.199 15.559l-0.079-0.146c3.337 5.405 7.52 9.944 12.415 13.576l0.129 0.092 32.203 24.527c6.405 4.673 11.994 9.845 16.927 15.596l0.11 0.131c3.271 4.175 5.247 9.501 5.247 15.289 0 0.154-0.001 0.308-0.004 0.461v-0.023q0 20.97-25.65 20.97c-0.787 0.083-1.699 0.131-2.623 0.131-7.601 0-14.452-3.212-19.268-8.354l-0.014-0.015c-4.777-6.654-7.897-14.792-8.602-23.611l-0.011-0.166-14.978 3.557c0.43 11.384 5.216 21.575 12.728 29.017l0.003 0.003c7.888 6.595 18.14 10.6 29.328 10.6 1.144 0 2.277-0.042 3.4-0.124l-0.15 0.009c0.74 0.040 1.606 0.063 2.477 0.063 10.414 0 20.072-3.245 28.014-8.781l-0.16 0.106c6.987-5.319 11.451-13.641 11.451-23.005 0-0.469-0.011-0.936-0.033-1.4l0.002 0.066c-0.044-7.921-2.711-15.211-7.177-21.054l0.062 0.085c-5.453-7.505-11.688-13.977-18.702-19.502l-0.207-0.157zM1652.568 868.651c-1.425-0.148-3.078-0.233-4.753-0.233-11.991 0-22.969 4.336-31.453 11.524l0.071-0.058c-6.807 7.857-10.953 18.179-10.953 29.471 0 1.027 0.034 2.046 0.102 3.056l-0.007-0.137v60.475c0 25.85 20.956 46.807 46.807 46.807s46.807-20.956 46.807-46.807v0-61.036c0.060-0.873 0.095-1.892 0.095-2.919 0-11.291-4.148-21.614-11.001-29.527l0.048 0.057c-8.281-7.175-19.161-11.546-31.063-11.546-1.919 0-3.811 0.114-5.672 0.335l0.225-0.022zM1681.776 975.745c0.047 0.691 0.074 1.497 0.074 2.31 0 7.683-2.41 14.804-6.517 20.646l0.076-0.115c-5.063 4.973-12.010 8.043-19.674 8.043-1.116 0-2.217-0.065-3.299-0.192l0.131 0.013c-0.999 0.122-2.155 0.191-3.328 0.191-7.979 0-15.205-3.219-20.452-8.431l0.002 0.002c-4.039-5.713-6.456-12.822-6.456-20.495 0-0.892 0.033-1.776 0.097-2.651l-0.007 0.117v-65.903c-0.066-0.803-0.104-1.739-0.104-2.684 0-7.565 2.425-14.563 6.54-20.26l-0.070 0.102c5.234-4.774 12.228-7.697 19.904-7.697 1.233 0 2.449 0.075 3.643 0.222l-0.143-0.014c1.046-0.136 2.257-0.213 3.485-0.213 7.562 0 14.44 2.93 19.56 7.717l-0.016-0.015c3.729 5.501 5.955 12.285 5.955 19.59 0 1.145-0.055 2.277-0.162 3.394l0.011-0.142zM1839.046 975.745c0.040 0.61 0.062 1.322 0.062 2.039 0 7.641-2.557 14.684-6.862 20.322l0.059-0.081c-6.334 5.073-14.463 8.14-23.31 8.14s-16.976-3.067-23.384-8.197l0.074 0.057c-4.454-5.747-7.139-13.059-7.139-20.997 0-0.451 0.009-0.9 0.026-1.347l-0.002 0.064v-106.345h-16.663v105.784c-0.069 0.91-0.108 1.972-0.108 3.042 0 10.648 3.864 20.394 10.268 27.911l-0.050-0.061c8.384 6.828 19.196 10.963 30.975 10.963 1.883 0 3.742-0.106 5.571-0.312l-0.224 0.021c1.463 0.157 3.16 0.246 4.879 0.246 11.772 0 22.563-4.195 30.962-11.169l-0.080 0.064c6.563-7.443 10.568-17.277 10.568-28.047 0-0.935-0.030-1.864-0.090-2.784l0.006 0.125v-105.784h-16.476zM2005.305 929.313c3.552-6.078 5.65-13.381 5.65-21.173 0-0.587-0.012-1.171-0.035-1.752l0.003 0.083c0.052-0.72 0.082-1.561 0.082-2.408 0-9.803-3.966-18.68-10.38-25.115l0.001 0.001c-8.292-6.002-18.665-9.6-29.88-9.6-1.741 0-3.461 0.087-5.159 0.256l0.214-0.017h-41.19v145.663h17.037v-71.708h28.459l26.773 71.521h16.663l-27.897-74.891c7.805-0.795 14.527-4.86 18.857-10.784l0.052-0.075zM1964.863 933.432h-23.216v-53.734h23.591c1.064-0.127 2.296-0.199 3.545-0.199 7.297 0 14.016 2.469 19.368 6.619l-0.072-0.054c3.921 4.837 6.294 11.065 6.294 17.849 0 0.901-0.042 1.791-0.124 2.67l0.008-0.113c0.071 0.749 0.112 1.619 0.112 2.499 0 6.923-2.521 13.257-6.697 18.133l0.032-0.038c-5.359 4.13-12.168 6.619-19.558 6.619-1.421 0-2.821-0.092-4.195-0.271l0.162 0.017zM2119.7 868.090c-1.472-0.169-3.178-0.265-4.907-0.265-11.922 0-22.772 4.586-30.884 12.089l0.030-0.028c-6.489 8.327-10.403 18.937-10.403 30.462 0 1.139 0.038 2.27 0.114 3.39l-0.008-0.152v57.853c-0.055 0.881-0.087 1.911-0.087 2.948 0 11.555 3.907 22.199 10.47 30.681l-0.086-0.115c8.028 7.588 18.888 12.253 30.839 12.253 1.734 0 3.444-0.098 5.128-0.289l-0.206 0.019c1.381 0.161 2.981 0.252 4.604 0.252 11.202 0 21.384-4.373 28.93-11.504l-0.020 0.019c6.136-7.993 9.833-18.138 9.833-29.148 0-1.075-0.035-2.141-0.105-3.199l0.008 0.144v-8.051h-16.101v9.548c0.062 0.858 0.097 1.859 0.097 2.869 0 7.689-2.051 14.9-5.636 21.114l0.109-0.205c-4.475 4.969-10.929 8.079-18.111 8.079-1.14 0-2.261-0.078-3.36-0.23l0.127 0.014c-0.952 0.114-2.054 0.18-3.172 0.18-7.57 0-14.44-2.994-19.491-7.864l0.009 0.008c-4.078-6.003-6.51-13.411-6.51-21.386 0-1.171 0.052-2.331 0.155-3.475l-0.011 0.148v-62.721c-0.015-0.494-0.024-1.076-0.024-1.659 0-5.745 0.829-11.296 2.374-16.54l-0.104 0.413c1.513-4.626 4.56-8.4 8.525-10.81l0.087-0.049c4.681-2.536 10.247-4.027 16.163-4.027 0.901 0 1.793 0.035 2.677 0.102l-0.117-0.007c0.591-0.038 1.28-0.060 1.975-0.060 5.434 0 10.555 1.338 15.052 3.702l-0.177-0.085c3.755 2.265 6.555 5.794 7.831 9.985l0.033 0.125c1.32 4.654 2.079 9.999 2.079 15.521 0 0.533-0.007 1.065-0.021 1.595l0.002-0.078v8.425h16.101v-8.8c0.165-1.319 0.259-2.846 0.259-4.396 0-20.681-16.765-37.446-37.446-37.446-2.074 0-4.11 0.169-6.092 0.493l0.216-0.029zM2245.141 944.853h38.943v-10.11h-39.505v-54.67h48.492v-10.672h-65.155v145.663h66.279v-10.297h-49.053v-59.913zM2423.194 880.072h37.446v134.99h17.037v-134.99h35.761v-10.672h-89.495zM2608.175 868.090c-1.425-0.148-3.078-0.233-4.753-0.233-11.991 0-22.969 4.336-31.453 11.524l0.071-0.058c-6.807 7.857-10.953 18.179-10.953 29.471 0 1.027 0.034 2.046 0.102 3.056l-0.007-0.137v60.475c0 25.85 20.956 46.807 46.807 46.807s46.807-20.956 46.807-46.807v0-60.475c0.060-0.873 0.095-1.892 0.095-2.919 0-11.291-4.148-21.614-11.001-29.527l0.048 0.057c-8.285-7.187-19.173-11.565-31.085-11.565-1.977 0-3.927 0.121-5.841 0.355l0.23-0.023zM2637.383 975.184c0.047 0.691 0.074 1.497 0.074 2.31 0 7.683-2.41 14.804-6.517 20.646l0.076-0.115c-5.063 4.973-12.010 8.043-19.674 8.043-1.116 0-2.217-0.065-3.299-0.192l0.131 0.013c-1.054 0.136-2.274 0.213-3.511 0.213-7.706 0-14.71-3.003-19.906-7.903l0.014 0.013c-4.039-5.713-6.456-12.822-6.456-20.495 0-0.892 0.033-1.776 0.097-2.651l-0.007 0.117v-65.903c-0.058-0.752-0.091-1.629-0.091-2.514 0-7.557 2.42-14.548 6.527-20.242l-0.070 0.102c5.234-4.774 12.228-7.697 19.904-7.697 1.233 0 2.449 0.075 3.643 0.222l-0.143-0.014c1.046-0.136 2.257-0.213 3.485-0.213 7.562 0 14.44 2.93 19.56 7.717l-0.016-0.015c3.927 5.599 6.275 12.555 6.275 20.059 0 0.914-0.035 1.819-0.103 2.715l0.007-0.119zM2788.1 880.072h37.446v134.99h17.037v-134.99h35.761v-10.672h-89.495zM3004.347 933.993h-57.291v-64.593h-17.412v145.663h17.412v-70.772h57.291v70.772h17.037v-145.663h-17.037zM3109.195 944.853h39.505v-10.11h-40.815v-54.67h48.492v-10.672h-65.903v145.663h66.279v-10.297h-48.866v-59.913zM3384.98 929.5c3.551-6.093 5.648-13.412 5.648-21.22 0-0.57-0.011-1.138-0.033-1.703l0.003 0.081c0.052-0.72 0.082-1.561 0.082-2.408 0-9.803-3.966-18.68-10.38-25.115l0.001 0.001c-8.292-6.002-18.665-9.6-29.88-9.6-1.741 0-3.461 0.087-5.159 0.256l0.214-0.017h-41.19v145.663h17.037v-71.895h28.459l26.773 71.521h16.663l-27.897-74.891c7.805-0.795 14.527-4.86 18.857-10.784l0.052-0.075zM3344.539 933.619h-23.216v-53.921h23.591c1.064-0.127 2.296-0.199 3.545-0.199 7.297 0 14.016 2.469 19.368 6.619l-0.072-0.054c3.921 4.837 6.294 11.065 6.294 17.849 0 0.901-0.042 1.791-0.124 2.67l0.008-0.113c0.071 0.749 0.112 1.619 0.112 2.499 0 6.923-2.521 13.257-6.697 18.133l0.032-0.038c-5.359 4.13-12.168 6.619-19.558 6.619-1.421 0-2.821-0.092-4.195-0.271l0.162 0.017zM3474.288 944.853h39.505v-10.11h-39.505v-54.67h48.492v-10.672h-66.653v145.663h66.279v-10.297h-49.053zM3612.835 869.962l-38.382 145.663h16.663l9.174-38.943h43.437l8.987 38.943h16.85l-38.569-145.663zM3601.976 965.447l18.722-78.635 18.722 78.635zM3746.516 868.651h-17.037v145.663h68.712v-9.548h-51.675zM4013.688 933.244h-57.291v-63.844h-17.225v145.663h17.225v-70.772h57.291v70.772h17.037v-145.663h-17.037zM4144.747 867.341c-1.425-0.148-3.078-0.233-4.753-0.233-11.991 0-22.969 4.336-31.453 11.524l0.071-0.058c-6.809 7.833-10.958 18.135-10.958 29.407 0 1.050 0.036 2.091 0.107 3.123l-0.008-0.139v60.475c0 25.85 20.956 46.807 46.807 46.807s46.807-20.956 46.807-46.807v0-59.726c0.060-0.873 0.095-1.892 0.095-2.919 0-11.291-4.148-21.614-11.001-29.527l0.048 0.057c-8.271-7.142-19.127-11.491-30.999-11.491-1.743 0-3.464 0.094-5.159 0.277l0.21-0.018zM4173.955 974.434c0.050 0.707 0.078 1.532 0.078 2.363 0 7.666-2.412 14.769-6.519 20.591l0.075-0.113c-5.063 4.973-12.010 8.043-19.674 8.043-1.116 0-2.217-0.065-3.299-0.192l0.131 0.013c-1.054 0.136-2.274 0.213-3.511 0.213-7.706 0-14.71-3.003-19.906-7.903l0.014 0.013c-4.039-5.713-6.456-12.822-6.456-20.495 0-0.892 0.033-1.776 0.097-2.651l-0.007 0.117v-65.155c-0.058-0.752-0.091-1.629-0.091-2.514 0-7.557 2.42-14.548 6.527-20.242l-0.070 0.102c5.234-4.774 12.228-7.697 19.904-7.697 1.233 0 2.449 0.075 3.643 0.222l-0.143-0.014c1.046-0.136 2.257-0.213 3.485-0.213 7.562 0 14.44 2.93 19.56 7.717l-0.016-0.015c3.927 5.599 6.275 12.555 6.275 20.059 0 0.914-0.035 1.819-0.103 2.715l0.007-0.119v65.903zM4349.386 868.651l-37.446 126.378-35.948-126.378h-17.037l-4.494 145.663h14.229l3.557-115.706 34.449 115.706h11.046l34.824-115.894 3.557 115.894h14.229l-4.494-145.663zM4457.229 943.542h39.505v-10.11h-39.505v-53.36h48.492v-10.672h-65.903v145.663h66.279v-10.297h-49.053zM4695.944 868.651h-43.624v145.663h17.037v-67.589h26.773c1.068 0.093 2.311 0.145 3.566 0.145 11.060 0 21.164-4.099 28.874-10.86l-0.050 0.043c6.506-6.727 10.515-15.904 10.515-26.017 0-0.529-0.011-1.056-0.033-1.58l0.002 0.075c0.055-0.772 0.086-1.673 0.086-2.581 0-10.040-3.799-19.192-10.039-26.098l0.030 0.034c-7.856-6.643-18.101-10.681-29.289-10.681-1.487 0-2.958 0.071-4.41 0.211l0.185-0.014zM4714.666 928.939c-5.721 3.975-12.812 6.349-20.458 6.349-1.235 0-2.455-0.062-3.658-0.183l0.152 0.012h-21.719v-56.168h22.093c0.663-0.028 1.441-0.044 2.223-0.044 5.888 0 11.564 0.906 16.897 2.586l-0.398-0.108c4.128 1.548 7.381 4.619 9.133 8.511l0.041 0.102c1.698 4.497 2.68 9.695 2.68 15.123 0 0.805-0.022 1.605-0.064 2.399l0.005-0.111c0.172 1.159 0.27 2.497 0.27 3.858 0 7.085-2.659 13.549-7.034 18.448l0.024-0.027zM4840.857 867.154c-1.425-0.148-3.078-0.233-4.753-0.233-11.991 0-22.969 4.336-31.453 11.524l0.071-0.058c-6.807 7.857-10.953 18.179-10.953 29.471 0 1.027 0.034 2.046 0.102 3.056l-0.007-0.137v60.475c0 25.85 20.956 46.807 46.807 46.807s46.807-20.956 46.807-46.807v0-59.539c0.060-0.873 0.095-1.892 0.095-2.919 0-11.291-4.148-21.614-11.001-29.527l0.048 0.057c-8.265-7.121-19.106-11.457-30.96-11.457-1.624 0-3.23 0.081-4.813 0.241l0.199-0.016zM4870.064 974.247c0.047 0.691 0.074 1.497 0.074 2.31 0 7.683-2.41 14.804-6.517 20.646l0.076-0.115c-5.063 4.973-12.010 8.043-19.674 8.043-1.116 0-2.217-0.065-3.299-0.192l0.131 0.013c-1.054 0.136-2.274 0.213-3.511 0.213-7.706 0-14.71-3.003-19.906-7.903l0.014 0.013c-4.039-5.713-6.456-12.822-6.456-20.495 0-0.892 0.033-1.776 0.097-2.651l-0.007 0.117v-64.967c-0.058-0.752-0.091-1.629-0.091-2.514 0-7.557 2.42-14.548 6.527-20.242l-0.070 0.102c5.234-4.774 12.228-7.697 19.904-7.697 1.233 0 2.449 0.075 3.643 0.222l-0.143-0.014c1.046-0.136 2.257-0.213 3.485-0.213 7.562 0 14.44 2.93 19.56 7.717l-0.016-0.015c3.927 5.599 6.275 12.555 6.275 20.059 0 0.914-0.035 1.819-0.103 2.715l0.007-0.119v65.903zM5033.514 928.377c3.551-6.093 5.648-13.412 5.648-21.22 0-0.57-0.011-1.138-0.033-1.703l0.003 0.081c0.052-0.72 0.082-1.561 0.082-2.408 0-9.803-3.966-18.68-10.38-25.115l0.001 0.001c-8.292-6.002-18.665-9.6-29.88-9.6-1.741 0-3.461 0.087-5.159 0.256l0.214-0.017h-41.19v145.663h17.037v-70.772h29.020l26.773 71.521h16.663l-27.897-74.891c7.949-0.685 14.824-4.775 19.232-10.784l0.052-0.074zM4993.073 932.495h-23.216v-52.798h23.591c1.047-0.122 2.261-0.192 3.491-0.192 7.313 0 14.050 2.466 19.424 6.613l-0.074-0.055c3.921 4.837 6.294 11.065 6.294 17.849 0 0.901-0.042 1.791-0.124 2.67l0.008-0.113c0.071 0.749 0.112 1.619 0.112 2.499 0 6.923-2.521 13.257-6.697 18.133l0.032-0.038c-5.337 4.074-12.1 6.527-19.436 6.527-1.133 0-2.253-0.059-3.356-0.173l0.138 0.012zM5175.993 981.549l-58.040-112.336h-12.357v145.663h14.791v-114.209l58.227 114.209h12.17v-145.476h-14.791v112.336zM5258.561 1014.127h17.599v-14.978h-17.599zM5270.169 982.86l5.991-114.396h-17.599l5.617 114.396z"></path>
<path fill="#fff" d="M1329.228 226.275c-285.521-314.167-567.111-53.36-567.111-53.36-38.175-56.215-91.042-99.866-153.122-125.905l-2.276-0.847c-143.978-63.283-376.326-81.256-529.852 142.854-286.457 418.078 318.286 826.794 318.286 826.794l-6.179-318.286-92.303 1.872 400.104-441.294 142.854 150.905-1.123-56.168 95.111-1.872 2.434 156.709 171.313 175.619-88.932 1.31 5.991 307.427s583.025-457.209 304.805-765.758z"></path>
<path fill="#fff" d="M688.724 713.814l-97.92 1.872 1.872 100.541 97.92-1.872zM814.54 711.381l-97.92 1.872 1.872 100.541 97.92-1.872zM593.425 844.312l1.872 100.541 97.359-1.872-1.872-100.541zM818.098 840.005l-97.92 1.872 1.872 100.541 97.92-1.872z"></path>
</svg>
