<?xml version="1.0" encoding="utf-8"?>
<!-- Generator: Adobe Illustrator 23.0.1, SVG Export Plug-In . SVG Version: 6.00 Build 0)  -->
<svg version="1.1" id="Layer_1" xmlns="http://www.w3.org/2000/svg" xmlns:xlink="http://www.w3.org/1999/xlink" x="0px" y="0px"
	 viewBox="0 0 153.3 29.2" style="enable-background:new 0 0 153.3 29.2;" xml:space="preserve">
<style type="text/css">
	.st0{fill:#2FB0E6;}
	.st1{fill:#070707;}
	.st2{fill-rule:evenodd;clip-rule:evenodd;fill:#070707;}
</style>
<path class="st0" d="M56,23.9c1.9,2.8,2.3,3.4,3.4,4.7h-8.3c-0.4-1-1.4-2.7-2.2-4.1l-5-7.9l-3.2,3.2v4c0,2,0.1,3,0.3,4.7h-6.8
	c0.2-1.6,0.3-2.8,0.3-4.7V6.7c0-2-0.1-3.2-0.3-4.7H41c-0.2,1.7-0.3,2.7-0.3,4.7v5.7l6.4-6.8c1.2-1.3,2.1-2.4,2.8-3.6h8.6
	c-0.6,0.6-0.8,0.8-1.2,1.3c-1.7,1.7-1.7,1.7-2.2,2.2l-6.7,7L56,23.9z"/>
<path class="st1" d="M67,25.4L67,25.4c0,1.8-1.4,3.2-3.2,3.2h0c-1.8,0-3.2-1.4-3.2-3.2v0c0-1.8,1.4-3.2,3.2-3.2h0
	C65.6,22.2,67,23.6,67,25.4z"/>
<path class="st1" d="M78.9,24.7c-0.9,1.3-1.5,2.5-2.3,3.9h-8.5c1.7-2.1,2.4-2.9,3.3-4.2l7-9.9l-6-8.4c-1-1.4-2-2.7-3.1-4.1h8.3
	c0.5,1.2,1.2,2.5,2.4,4.2l2.4,3.7l2.4-3.7c1.3-2,1.8-3,2.3-4.2h8.2c-1.2,1.4-1.9,2.4-3,4l-6,8.4l7.1,9.9c1,1.4,1.9,2.6,3.3,4.2h-8.5
	c-0.6-1.2-1.2-2.2-2.3-3.9l-3.5-5.4L78.9,24.7z"/>
<path class="st1" d="M107.2,24.7c-0.9,1.3-1.5,2.5-2.3,3.9h-8.5c1.7-2.1,2.4-2.9,3.3-4.2l7-9.9l-6-8.4c-1-1.4-2-2.7-3.1-4.1h8.3
	c0.5,1.2,1.2,2.5,2.4,4.2l2.4,3.7l2.4-3.7c1.3-2,1.8-3,2.3-4.2h8.2c-1.2,1.4-1.9,2.4-3,4l-6,8.4l7.1,9.9c1,1.4,1.9,2.6,3.3,4.2h-8.5
	c-0.6-1.2-1.2-2.2-2.3-3.9l-3.5-5.4L107.2,24.7z"/>
<path class="st1" d="M135.5,24.7c-0.9,1.3-1.5,2.5-2.3,3.9h-8.5c1.7-2.1,2.4-2.9,3.3-4.2l7-9.9l-6-8.4c-1-1.4-2-2.7-3.1-4.1h8.3
	c0.5,1.2,1.2,2.5,2.4,4.2l2.4,3.7l2.4-3.7c1.3-2,1.8-3,2.3-4.2h8.2c-1.2,1.4-1.9,2.4-3,4l-6,8.4l7.1,9.9c1,1.4,1.9,2.6,3.3,4.2h-8.5
	c-0.6-1.2-1.2-2.2-2.3-3.9l-3.5-5.4L135.5,24.7z"/>
<path class="st0" d="M18.9,1.4c-5.9,0-10.2,3-12,8.1c1.6-0.3,3.1-0.1,3.4,0.7c0.4,1.3-0.3,3.7-4.3,4.1c0,0.3,0,0.7,0,1
	c0,8.5,5.1,14,12.9,14c7.8,0,12.9-5.6,12.9-14C31.8,6.8,26.7,1.4,18.9,1.4z M18.9,23.7c-3.9,0-6.3-3.2-6.3-8.4
	c0-5.2,2.4-8.3,6.3-8.3c3.9,0,6.2,3.1,6.2,8.3C25.1,20.5,22.7,23.7,18.9,23.7z"/>
<path class="st2" d="M14.3,25.3c-0.1-0.5-0.4-0.6-1.3-0.6c-1.8,0.2-1.9,0.1-2.4-0.8c-0.6-1.2-0.9-1.5-1.9-1.7
	c-1-0.2-1.4-0.5-1.6-1.1C7.1,21.1,7,20.9,7,20.8c-0.2-0.6-0.3-2.1-0.1-2.7c0.3-1.2,0.5-1.3,1.3-0.9c1,0.4,2.3,0.5,4.2,0.3
	c0.7-0.1,0.8-1,0.2-1.4c-0.2-0.1-0.2-0.1-1.3,0c-1.5,0.1-1.9,0.1-2.4-0.1c-0.2-0.1-0.5-0.2-0.6-0.2c-0.5-0.2-0.4-1.2,0.2-1.3
	c0.3,0,1.3-0.5,1.8-0.9c1.3-0.8,1.2-2.8-0.3-4.4C9.6,8.7,9.7,8.8,9.8,7.4C9.9,5,9.6,3.5,8.5,1.2C8.3,0.9,8.1,0.5,8,0.4
	C8,0.3,7.9,0.2,7.9,0.2c0-0.2-0.4-0.3-0.6-0.1C7.2,0.2,6.8,1,6.7,1.3c0,0.1-0.1,0.3-0.1,0.5c-0.3,1-0.3,2.2,0,3.6
	C6.6,5.7,7,6.8,7.1,6.9c0,0,0.1,0.2,0.2,0.4c0.1,0.2,0.2,0.4,0.2,0.4C7.6,8,7.6,8,7,8c-0.3,0-0.7,0-0.8,0.1C6,8.1,5.7,8,5.7,7.8
	c0-0.1-0.5-0.8-0.8-1.3C3.8,5.2,3,5,2.1,6c-0.8,0.8-1.1,2.5-0.8,4.2c0.2,1,0.4,1.2,0.7,0.8c0.7-0.8,1.5-1.7,1.6-1.9
	C3.7,8.9,3.8,8.9,4,9.1c0.2,0.2,0.1,0.3-0.1,0.7c-0.9,1.2-1.1,3-0.4,3.9c0.1,0.1,0.2,0.3,0.2,0.3c0.1,0,0,0.2-0.5,0.7
	c-1.5,1.5-2.4,2.8-2.8,4.1c-0.1,0.2-0.1,0.5-0.2,0.6c0,0.1-0.1,0.3-0.1,0.4c0,0.1,0,0.3-0.1,0.6c-0.2,1.3,0.4,3.4,1.2,4.4
	c0.5,0.5,0.5,0.7,0.3,0.7c-0.5,0-1.3,1.1-1.3,1.7c0,1.4,3.6,1.6,4.2,0.1c0.1-0.2,0.2-0.3,0.3-0.3c0.4,0.2,2.7-0.1,3.4-0.4
	c0.1,0,0.2-0.1,0.2-0.1c0.1,0,0.2,0,0.2-0.1c0.8-0.4,1.1-0.5,1.7-0.3c0.9,0.2,2.3,0.3,2.5,0.2c0,0,0.2-0.1,0.5-0.1
	C14.1,26.1,14.4,25.8,14.3,25.3z M9.5,10c0.5,0.3,0.7,1,0.5,1.5L10,11.7l-0.6,0c-0.6,0-0.7,0-1,0.2L8,12.1l-0.1-0.2
	C7,10.9,8.3,9.3,9.5,10z M5.9,12.9c-0.4,0.2-1.1,0.1-1.5-0.2c-0.9-0.9,0-2.5,1.2-2.1C6.8,10.9,7,12.4,5.9,12.9z"/>
</svg>
