<?xml version="1.0" encoding="UTF-8" standalone="no"?><!DOCTYPE svg PUBLIC "-//W3C//DTD SVG 1.1//EN" "http://www.w3.org/Graphics/SVG/1.1/DTD/svg11.dtd"><svg width="100%" height="100%" viewBox="0 0 123 19" version="1.1" xmlns="http://www.w3.org/2000/svg" xmlns:xlink="http://www.w3.org/1999/xlink" xml:space="preserve" xmlns:serif="http://www.serif.com/" style="fill-rule:evenodd;clip-rule:evenodd;stroke-linejoin:round;stroke-miterlimit:1.41421;"><path d="M24.2,0c-5.3,0 -9.6,4.3 -9.6,9.5c0,5.2 4.3,9.5 9.6,9.5c5.3,0 9.6,-4.3 9.6,-9.5c0,-5.2 -4.3,-9.5 -9.6,-9.5Zm0,13.3c-2.1,0 -3.8,-1.7 -3.8,-3.8c0,-2.1 1.7,-3.8 3.8,-3.8c2.1,0 3.8,1.7 3.8,3.8c0.1,2.1 -1.7,3.8 -3.8,3.8Zm-13.9,-12.2c-1.3,-0.4 -2.8,-0.7 -4.5,-0.7l-5.8,0l0,18.1l5.8,0l0,-4.4c4.2,-0.1 6.2,-0.9 7.5,-3.2c0.6,-1.1 0.9,-2.4 0.9,-3.7c0,-2.7 -1.5,-5.3 -3.9,-6.1Zm-4.5,8.2l0,-4c1.6,0 2.4,0.7 2.4,2c0,1.3 -0.8,2 -2.4,2Zm73.4,4c-2.3,0 -4.2,-1.7 -4.2,-3.8c0,-2.1 1.9,-3.8 4.2,-3.8c1.3,0 2.6,0.5 3.4,1.4l3,-5.2c-2.1,-1.4 -3.9,-1.9 -6.4,-1.9c-5.8,0 -10.6,4.3 -10.6,9.5c0,1.2 0.2,2.3 0.7,3.4c0.2,0 0.4,-0.1 0.6,-0.1c2.1,0 3.8,1.7 3.8,3.8c0,0.3 -0.1,0.7 -0.1,1c1.6,0.9 3.5,1.4 5.5,1.4c2.6,0 4.6,-0.7 6.8,-2.2l-3.2,-5.1c-1.2,1.2 -2.2,1.6 -3.5,1.6Zm38.9,-12.9l-4.7,6.9l-4.8,-6.9l-4.8,0l0,18.1l5.8,0l0,-6.5l3.8,5.4l3.7,-5.4l0,6.5l5.9,0l0,-18.1l-4.9,0Zm-70.2,10.6c0.7,-0.9 1,-2.2 1,-3.5c0,-2.1 -1,-4.2 -2.7,-5.4c-1.4,-1.1 -3.1,-1.6 -5.4,-1.6l-6.5,0l0,18.1l5.9,0l0,-4.5l3,4.5l6.6,0l-3.4,-5.9c0.9,-0.9 1.2,-1.1 1.5,-1.7Zm-6,-2c-0.4,0.2 -0.6,0.3 -1.4,0.3l-0.3,0l0,-4l0.3,0c0.8,0 1,0 1.4,0.3c0.6,0.3 1,1 1,1.8c0,0.6 -0.4,1.3 -1,1.6Zm51.7,-9c-5.3,0 -9.6,4.3 -9.6,9.5c0,5.2 4.3,9.5 9.6,9.5c5.3,0 9.6,-4.3 9.6,-9.5c0,-5.2 -4.3,-9.5 -9.6,-9.5Zm0,13.3c-2.1,0 -3.8,-1.7 -3.8,-3.8c0,-2.1 1.7,-3.8 3.8,-3.8c2.1,0 3.8,1.7 3.8,3.8c0,2.1 -1.7,3.8 -3.8,3.8Zm-33.2,-5.9l-0.1,0l-5,-6.9l-4.8,0l0,18.1l5.8,0l0,-6.9l5,6.9l4.9,0l0,-18.2l-5.8,0l0,7Z" style="fill:#fff;fill-rule:nonzero;"/><path d="M69.9,14.3c-1.3,0 -2.4,1.1 -2.4,2.4c0,1.3 1.1,2.4 2.4,2.4c1.3,0 2.4,-1.1 2.4,-2.4c0,-1.4 -1.1,-2.4 -2.4,-2.4Z" style="fill:#ff9801;fill-rule:nonzero;"/></svg>
