<?xml version="1.0" encoding="utf-8"?>
<!-- Generator: Adobe Illustrator 21.1.0, SVG Export Plug-In . SVG Version: 6.00 Build 0)  -->
<svg version="1.1" id="Layer_1" xmlns="http://www.w3.org/2000/svg" xmlns:xlink="http://www.w3.org/1999/xlink" x="0px" y="0px"
	 viewBox="0 0 248 51.3" style="enable-background:new 0 0 248 51.3;" xml:space="preserve">
<style type="text/css">
	.st0{enable-background:new    ;}
	.st1{fill:#40AF64;}
	.st2{fill:#0A090A;}
</style>
<g id="PornH____t_1_" class="st0">
	<g id="PornH____t">
		<g>
			<path class="st1" d="M14.3,0.7H0v39.6h8.9V25.6h5.4c7.7,0,13.4-4.6,13.4-12.7C27.7,4.7,22,0.7,14.3,0.7z M11.5,18.4H8.9V7.9h2.5
				c3.5,0,6.9,1.2,6.9,5.3C18.3,17.2,15,18.4,11.5,18.4z M47.9,0C37.1,0,28.1,8.9,28.1,20.5c0,11.6,8.2,20.5,19.8,20.5
				c11.3,0,19.7-9,19.7-20.5C67.6,8.9,58.8,0,47.9,0z M47.9,32.3c-7.3,0-10.1-5.9-10.1-11.8S41,8.7,47.9,8.7
				c6.9,0,10.1,5.9,10.1,11.8C58,26.4,55,32.3,47.9,32.3z M96.9,12.5c0-7.8-5.5-11.8-12.8-11.8h-14v39.6H79V24.7l12,15.6h11.4
				L88.9,23.9C93.7,22.4,96.9,18.4,96.9,12.5z M80.1,18.3h-1V7.9h1c3.4,0,7.4,0.2,7.4,5.2S83.4,18.3,80.1,18.3z M127.5,0.7v24.6
				h-0.1L111.8,0.7h-8.9v39.6h8.9V15.7h0.1l15.6,24.6h8.9V0.7H127.5z"/>
		</g>
	</g>
</g>
<g id="a_1_" class="st0">
	<g id="a">
		<g>
			<path class="st2" d="M191.9,0.3h-14.1l2.5,29.4L191.9,0.3z M201.5,26.8l-4.9-12.9h-0.1l-4.9,12.9H201.5z M214.2,0.3h-13
				l10.7,27.2L214.2,0.3z M204.9,35.6h-16.7l-3.7,8.7h-14v7h51v-7h-13L204.9,35.6z M171.1,40.3V0.7h-8.9v15.8h-12.7V0.7h-8.9v39.6
				h8.9V24.4h12.7v15.9H171.1z M220.4,0.7v7.9h9.3v31.7h8.9V8.6h9.3V0.7C248,0.7,220.4,0.7,220.4,0.7z"/>
		</g>
	</g>
</g>
</svg>
