<?xml version="1.0" encoding="utf-8"?>
<!-- Generator: Adobe Illustrator 21.1.0, SVG Export Plug-In . SVG Version: 6.00 Build 0)  -->
<svg version="1.1" id="Layer_1" xmlns="http://www.w3.org/2000/svg" xmlns:xlink="http://www.w3.org/1999/xlink" x="0px" y="0px"
	 viewBox="0 0 223 60" style="enable-background:new 0 0 223 60;" xml:space="preserve">
<style type="text/css">
	.st0{fill:#3ABBE8;}
	.st1{fill:#ED548B;}
</style>
<path class="st0" d="M0.8,19.9h5.8v3.6h0.1c0.6-1.3,1.6-2.4,2.7-3.1c1.2-0.7,2.5-1.1,4.1-1.1c0.4,0,0.7,0,1,0.1s0.7,0.1,1,0.2v5.6
	c-0.5-0.1-1-0.2-1.4-0.3c-0.5-0.1-0.9-0.1-1.4-0.1c-1.3,0-2.4,0.2-3.2,0.7s-1.4,1.1-1.9,1.7c-0.4,0.6-0.7,1.3-0.9,1.9
	c-0.1,0.6-0.2,1.1-0.2,1.4v12.3H0.8V19.9z"/>
<path class="st0" d="M21.2,33.4c0.2,1.7,0.9,3.1,2,4c1.2,1,2.5,1.4,4.2,1.4c1.4,0,2.6-0.3,3.6-0.9c1-0.6,1.8-1.3,2.6-2.2l4.1,3.1
	c-1.3,1.7-2.8,2.8-4.5,3.6s-3.4,1.1-5.2,1.1c-1.7,0-3.4-0.3-4.9-0.9c-1.5-0.6-2.9-1.4-4-2.4c-1.1-1.1-2-2.3-2.7-3.8s-1-3.1-1-5
	s0.3-3.5,1-5c0.7-1.5,1.5-2.8,2.7-3.8c1.1-1.1,2.4-1.9,4-2.4c1.5-0.6,3.2-0.9,4.9-0.9c1.6,0,3.1,0.3,4.4,0.8
	c1.3,0.6,2.5,1.4,3.4,2.4c0.9,1.1,1.7,2.4,2.2,3.9c0.5,1.6,0.8,3.3,0.8,5.4v1.6C38.8,33.4,21.2,33.4,21.2,33.4z M33,29.1
	c0-1.7-0.6-3-1.6-4s-2.4-1.5-4.3-1.5c-1.7,0-3.1,0.5-4.1,1.5s-1.6,2.3-1.8,4H33z"/>
<path class="st0" d="M55.5,39.8L55.5,39.8c-0.9,1.3-2,2.3-3.3,2.9s-2.7,0.9-4.2,0.9c-1.1,0-2.1-0.1-3.1-0.4c-1-0.3-1.9-0.7-2.7-1.3
	s-1.4-1.3-1.9-2.2s-0.7-1.9-0.7-3c0-1.2,0.2-2.3,0.7-3.2c0.4-0.9,1-1.6,1.8-2.2c0.8-0.6,1.6-1.1,2.6-1.4c1-0.4,2-0.6,3.1-0.8
	c1.1-0.2,2.2-0.3,3.2-0.3c1.1,0,2.1-0.1,3.1-0.1h1.4V28c0-1.4-0.5-2.5-1.5-3.2s-2.3-1.1-3.8-1.1c-1.2,0-2.4,0.2-3.4,0.6
	c-1.1,0.4-2,1-2.7,1.8l-3-3c1.3-1.3,2.8-2.3,4.5-2.8s3.5-0.9,5.3-0.9c1.6,0,3,0.2,4.1,0.6s2,0.8,2.8,1.4s1.3,1.2,1.7,2
	s0.7,1.5,0.9,2.3s0.3,1.5,0.3,2.2s0,1.4,0,1.9V43h-5.2C55.5,43,55.5,39.8,55.5,39.8z M55.2,32.6H54c-0.8,0-1.7,0-2.7,0.1
	s-1.9,0.2-2.8,0.5c-0.9,0.2-1.6,0.6-2.2,1.1c-0.6,0.5-0.9,1.1-0.9,1.9c0,0.5,0.1,1,0.4,1.4c0.2,0.4,0.6,0.7,0.9,0.9
	c0.4,0.3,0.8,0.4,1.3,0.6c0.5,0.1,1,0.2,1.4,0.2c2,0,3.4-0.5,4.4-1.4c0.9-0.9,1.4-2.2,1.4-3.9C55.2,34,55.2,32.6,55.2,32.6z"/>
<path class="st0" d="M63,6.6h5.8v36.3H63V6.6z"/>
<path class="st0" d="M132.1,19.9h5.5v3.5h0.1c0.8-1.4,2-2.4,3.4-3.1s2.9-1,4.6-1c1.8,0,3.3,0.3,4.8,0.9s2.6,1.5,3.6,2.6
	s1.7,2.4,2.3,3.8c0.5,1.5,0.8,3.1,0.8,4.8c0,1.7-0.3,3.3-0.8,4.8s-1.3,2.8-2.3,3.8c-1,1.1-2.2,1.9-3.5,2.6c-1.4,0.6-2.9,0.9-4.5,0.9
	c-1.1,0-2-0.1-2.9-0.3c-0.8-0.2-1.6-0.5-2.2-0.9c-0.6-0.4-1.2-0.7-1.6-1.1c-0.4-0.4-0.8-0.8-1.1-1.2h-0.1v11.9h-5.8v-32
	C132.4,19.9,132.1,19.9,132.1,19.9z M151.2,31.4c0-0.9-0.2-1.8-0.5-2.6c-0.3-0.8-0.8-1.6-1.3-2.2c-0.6-0.6-1.3-1.2-2.1-1.5
	c-0.8-0.4-1.8-0.6-2.8-0.6c-1.1,0-2,0.2-2.8,0.6s-1.5,0.9-2.1,1.5s-1,1.4-1.3,2.2c-0.3,0.8-0.5,1.7-0.5,2.6c0,0.9,0.2,1.8,0.5,2.6
	s0.8,1.6,1.3,2.2c0.6,0.6,1.3,1.2,2.1,1.5c0.8,0.4,1.8,0.6,2.8,0.6c1.1,0,2-0.2,2.8-0.6c0.8-0.4,1.5-0.9,2.1-1.5s1-1.4,1.3-2.2
	C151.1,33.2,151.2,32.3,151.2,31.4z"/>
<path class="st0" d="M158.2,31.4c0-1.8,0.3-3.5,1-5s1.5-2.8,2.7-3.8c1.1-1.1,2.4-1.9,4-2.4c1.5-0.6,3.2-0.9,4.9-0.9s3.4,0.3,4.9,0.9
	s2.9,1.4,4,2.4c1.1,1.1,2,2.3,2.7,3.8s1,3.1,1,5c0,1.9-0.3,3.5-1,5s-1.5,2.8-2.7,3.8c-1.1,1.1-2.4,1.9-4,2.4
	c-1.5,0.6-3.2,0.9-4.9,0.9s-3.4-0.3-4.9-0.9c-1.5-0.6-2.9-1.4-4-2.4c-1.1-1.1-2-2.3-2.7-3.8C158.5,34.9,158.2,33.2,158.2,31.4z
	 M164,31.4c0,0.9,0.2,1.8,0.5,2.6s0.8,1.6,1.3,2.2c0.6,0.6,1.3,1.2,2.1,1.5c0.8,0.4,1.8,0.6,2.8,0.6c1.1,0,2-0.2,2.8-0.6
	c0.8-0.4,1.5-0.9,2.1-1.5s1-1.4,1.3-2.2s0.5-1.7,0.5-2.6c0-0.9-0.2-1.8-0.5-2.6c-0.3-0.8-0.8-1.6-1.3-2.2c-0.6-0.6-1.3-1.2-2.1-1.5
	c-0.8-0.4-1.8-0.6-2.8-0.6c-1.1,0-2,0.2-2.8,0.6s-1.5,0.9-2.1,1.5s-1,1.4-1.3,2.2C164.1,29.6,164,30.5,164,31.4z"/>
<path class="st0" d="M184.6,19.9h5.8v3.6h0.1c0.6-1.3,1.6-2.4,2.7-3.1c1.2-0.7,2.5-1.1,4.1-1.1c0.4,0,0.7,0,1,0.1s0.7,0.1,1,0.2v5.6
	c-0.5-0.1-1-0.2-1.4-0.3c-0.5-0.1-0.9-0.1-1.4-0.1c-1.3,0-2.4,0.2-3.2,0.7s-1.4,1.1-1.9,1.7c-0.4,0.6-0.7,1.3-0.9,1.9
	c-0.1,0.6-0.2,1.1-0.2,1.4v12.3h-5.7V19.9z"/>
<path class="st0" d="M201.2,19.9h5.5v3.7h0.1c0.5-1.2,1.4-2.2,2.5-3s2.6-1.3,4.6-1.3c1.5,0,2.8,0.3,3.9,0.8c1.1,0.5,1.9,1.2,2.6,2
	c0.7,0.8,1.2,1.8,1.4,2.9c0.3,1.1,0.4,2.2,0.4,3.4v14.5h-5.8V31.3c0-0.6,0-1.4-0.1-2.1s-0.2-1.5-0.5-2.2s-0.7-1.3-1.3-1.7
	s-1.4-0.7-2.4-0.7s-1.8,0.2-2.4,0.5c-0.7,0.3-1.2,0.8-1.6,1.3c-0.4,0.5-0.7,1.2-0.9,1.9c-0.2,0.7-0.3,1.4-0.3,2.2v12.6h-5.8V19.9
	H201.2z"/>
<path class="st1" d="M112.8,36.4l-1.6-1.6l10.5-10.5c5-5,5-13.2,0-18.2c-2.4-2.4-5.6-3.7-9.1-3.7s-6.7,1.3-9.1,3.7L101,8.6l-2.5-2.5
	c-2.4-2.4-5.6-3.7-9.1-3.7s-6.7,1.3-9.1,3.7c-5,5-5,13.2,0,18.2L82,26l-1.6,1.6l-1.7-1.7c-5.9-5.9-5.9-15.5,0-21.4
	C81.5,1.6,85.3,0,89.4,0s7.9,1.6,10.7,4.4l0.9,0.9l0.9-0.9c2.9-2.9,6.7-4.4,10.7-4.4s7.9,1.6,10.7,4.4c5.9,5.9,5.9,15.5,0,21.4
	L112.8,36.4z"/>
<g>
	<path class="st1" d="M86.3,53.8c1.5,1.7,3.5,2.6,5.8,2.6c4.6,0,8.1-3.8,8.1-8.6v-7.1c-1.9,2.6-4.8,4.2-8.1,4.2
		c-5.7,0-10.3-4.9-10.3-10.9s4.6-10.8,10.3-10.8c3.3,0,6.2,1.5,8.1,4.1v-3h2.2v23.5c0,6-4.7,10.8-10.3,10.8c-2.9,0-5.4-1.2-7.3-3.2
		L86.3,53.8z M92.2,42.7c5,0,8.1-4.3,8.1-8.7c0-4.3-2.6-8.6-8.1-8.6c-4.5,0-8.1,3.8-8.1,8.6S87.7,42.7,92.2,42.7z"/>
	<path class="st1" d="M104.3,24.3h2.2V13.2c0-3.1,2.5-5.6,5.6-5.6c1.6,0,2.9,0.6,4,1.6l-1.5,1.6c-0.6-0.7-1.4-1-2.5-1
		c-1.9,0-3.4,1.4-3.4,3.4v11.1h4.4v2.2h-4.4v18.4h-2.2V26.5h-2.2V24.3z"/>
</g>
</svg>
