<svg enable-background="new 0 0 177 44" viewBox="0 0 177 44" xmlns="http://www.w3.org/2000/svg"><path d="m9 22.1c-.3-.1-.6-.2-1-.3-.3-.1-.6-.2-.9-.3s-.5-.3-.6-.4c-.2-.2-.2-.4-.2-.7 0-.4.2-.7.5-.9s.7-.5 1.2-.5c.4 0 .8.1 1.2.2.4.2.9.4 1.3.8l1.6-3.1c-.7-.4-1.5-.7-2.3-.9s-1.6-.3-2.3-.3c-.8 0-1.5.1-2.2.4-.6.2-1.2.6-1.6 1s-.8 1-1 1.6-.4 1.3-.4 2 .1 1.4.4 1.9c.2.5.5.9.9 1.2s.8.6 1.3.8 1 .4 1.5.5c.4.1.8.3 1.1.4s.5.2.7.4.3.3.4.5.1.4.1.6c0 .4-.2.7-.5 1s-.8.4-1.4.4-1.1-.1-1.7-.4-1.2-.6-1.7-1.2l-1.9 3.2c1.6 1.1 3.4 1.7 5.3 1.7.9 0 1.7-.1 2.5-.4.7-.2 1.3-.6 1.8-1s.9-1 1.1-1.6c.3-.6.4-1.3.4-2.1 0-1.1-.3-2.1-.9-2.8-.5-.7-1.4-1.3-2.7-1.7zm9.7-5.9h-3.9v15.1h8.6v-3.3h-4.7zm6 15.1h8.6v-3.3h-4.7v-2.6h4.4v-3.4h-4.4v-2.5h4.7v-3.3h-8.6zm15.4-15.1-5.8 15.1h4.2l.9-2.6h5.6l.9 2.6h4.2l-5.8-15.1zm.4 9.5 1.8-5 1.8 5zm33.8-9.5-2.8 4.1-2.8-4.1h-16.5v3.3h6l-7.2 11.8h13v-3.3h-6.3l6.8-11.2 5.1 7.3v7.2h3.9v-7.3l5.5-7.8z" fill="#24272b"/><path d="m123.2 31.3h8.6v-3.3h-4.7v-2.6h4.4v-3.4h-4.4v-2.5h4.7v-3.3h-8.6zm15.4-15.1-5.8 15.1h4.2l.9-2.6h5.6l.9 2.6h4.2l-5.8-15.1zm.4 9.5 1.8-5 1.8 5zm18.1-3.6c-.3-.1-.6-.2-1-.3-.3-.1-.6-.2-.9-.3s-.5-.3-.6-.4c-.2-.2-.2-.4-.2-.7 0-.4.2-.7.5-.9s.7-.4 1.2-.4c.4 0 .8.1 1.2.2.4.2.9.4 1.3.8l1.6-3.1c-.7-.4-1.5-.7-2.3-.9s-1.6-.3-2.3-.3c-.8 0-1.5.1-2.2.4s-1.2.6-1.6 1-.8 1-1 1.6-.4 1.3-.4 2 .1 1.4.4 1.9c.2.5.5.9.9 1.2s.8.6 1.3.8 1 .4 1.5.5c.4.1.8.3 1.1.4s.5.2.7.4.3.3.4.5.1.4.1.6c0 .4-.2.7-.5 1s-.8.4-1.4.4-1.1-.1-1.7-.4-1.2-.6-1.7-1.2l-1.7 3.2c1.6 1.1 3.4 1.7 5.3 1.7.9 0 1.7-.1 2.5-.4.7-.2 1.3-.6 1.8-1s.9-1 1.1-1.6.4-1.3.4-2.1c0-1.1-.3-2.1-.9-2.8-.7-.8-1.6-1.4-2.9-1.8zm14-5.9-2.8 4.1-2.8-4.1h-4.7l5.5 7.8v7.2h3.9v-7.2l5.5-7.8z" fill="#e10025"/><path d="m5.7 36.9c-.4-.1-.6-.3-.8-.4-.2-.2-.3-.4-.3-.6 0-.3.1-.5.2-.7.2-.2.5-.3.8-.3s.6.1.7.3c.2.2.3.5.3.8h.7c0-.3-.1-.6-.2-.9s-.3-.5-.6-.6-.6-.2-.9-.2c-.5 0-.9.1-1.2.4s-.5.7-.5 1.1c0 .3.1.5.2.7s.3.4.5.5.5.3.9.5c.4.1.7.3.8.4s.2.4.2.7-.1.5-.2.7-.4.2-.7.2-.6-.1-.8-.3-.3-.5-.3-.8h-.7c0 .3.1.6.2.9s.4.5.7.6.6.2.9.2c.5 0 .9-.1 1.2-.4s.5-.6.5-1.1c0-.4-.1-.8-.4-1.1s-.6-.4-1.2-.6zm3.7-2.5h-.7v5.7h3v-.6h-2.3zm4.7 3.1h2v-.6h-2v-1.9h2.3v-.6h-3v5.7h3.1v-.6h-2.3v-2zm5.5-3.1-1.8 5.7h.7l.4-1.5h1.9l.5 1.5h.7l-1.8-5.7zm-.5 3.6.8-2.6.8 2.6zm7.8-3v-.5h-3.4v.5h2.6l-2.6 4.5v.6h3.5v-.6h-2.7zm3.2 2.3-1.2-2.9h-.8l1.6 3.6v2.1h.7v-2.1l1.6-3.6h-.8zm6.2 1.5-2.3-4.4h-.7v5.7h.7v-4.4l2.3 4.4h.7v-5.7h-.7zm3.1-1.3h2v-.6h-2v-1.9h2.3v-.6h-3v5.7h3.1v-.6h-2.3v-2zm5.5-3.1-1.8 5.7h.7l.4-1.5h1.9l.5 1.5h.7l-1.8-5.7zm-.4 3.6.8-2.6.7 2.6zm6.1-1.1c-.4-.1-.6-.3-.8-.4-.2-.2-.3-.4-.3-.6 0-.3.1-.5.2-.7.2-.2.4-.2.7-.2s.6.1.7.3c.2.2.3.5.3.8h.7c0-.3-.1-.6-.2-.9s-.3-.5-.6-.6-.6-.2-.9-.2c-.5 0-.9.1-1.2.4s-.5.7-.5 1.1c0 .3.1.5.2.7s.3.4.5.5c.2.2.5.3.9.5.4.1.7.3.8.4s.2.4.2.7-.1.5-.2.7c-.2.2-.4.2-.7.2s-.6-.1-.8-.3-.3-.5-.3-.8h-.7c0 .3.1.6.2.9s.4.5.7.6.6.2.9.2c.5 0 .9-.1 1.2-.4s.4-.6.4-1.1c0-.4-.1-.8-.4-1.1s-.4-.5-1-.7zm4.5.4-1.2-2.9h-.8l1.6 3.6v2.1h.7v-2.1l1.6-3.6h-.8zm2.9 2c-.1 0-.3 0-.3.1-.1.1-.1.2-.1.3s0 .2.1.3.2.1.3.1.3 0 .3-.1.1-.2.1-.3 0-.2-.1-.3-.1-.1-.3-.1zm3.2-3.9c.2-.3.5-.5.9-.5.3 0 .6.1.8.3s.3.5.3 1h.7c0-.6-.2-1.1-.5-1.4s-.7-.5-1.3-.5-1.1.2-1.4.6-.5 1-.5 1.8v1c0 .7.2 1.3.5 1.8s.8.7 1.4.7 1-.2 1.3-.5.5-.8.5-1.4h-.7c0 .5-.1.8-.3 1s-.4.3-.8.3-.7-.2-.9-.5-.3-.7-.3-1.3v-1c0-.7.1-1.1.3-1.4zm6.4-1.1c-.6 0-1.1.2-1.4.6s-.5 1-.5 1.8v1.1c0 .7.2 1.3.5 1.7s.8.6 1.4.6 1.1-.2 1.4-.6.5-1 .5-1.8v-1c0-.8-.2-1.4-.5-1.8-.4-.4-.8-.6-1.4-.6zm1.2 3.5c0 .6-.1 1-.3 1.3s-.5.4-.9.4-.7-.2-.9-.5-.3-.7-.3-1.3v-1c0-.6.1-1 .3-1.3s.5-.4.9-.4.7.1.9.4.3.7.3 1.3zm6.3-3.4-1.5 4.6-1.5-4.6h-.9v5.7h.7v-2.2l-.1-2.2 1.5 4.4h.5l1.5-4.4-.1 2.2v2.2h.8v-5.7z" fill="#a4a6a9"/><path d="m111.5 3h-31v31c0 3.7 2 6.9 5 8.7v-34.7h12.4l8.6 8.9v9.6l-14-14.5v32h29v-31c0-5.5-4.5-10-10-10z" fill="#e10025"/><path d="m109.5 0v35l-14-14.4v9.5l8.6 8.9h12.4v-39z" fill="#24272b"/></svg>