<svg xmlns="http://www.w3.org/2000/svg" width="123.002" height="85" viewBox="0 0 123.002 85"><g transform="translate(-91.998 -62)"><g transform="translate(-39.164 -165.504)"><path d="M164.937,262.135a4.417,4.417,0,0,1,1-2.166,8.678,8.678,0,0,1,1.828-1.723,6.037,6.037,0,0,1,1.693-.779c1.035-.16,1.613.265,1.76,1.369.016.181.039.391.039.635a8.663,8.663,0,0,1-.055.87c-.03.336-.07.621-.087.855s-.059.574-.123,1.023-.106.765-.122.953c1.065-3.911,2.616-6.1,4.64-6.388a3.548,3.548,0,0,1,2.509.4,5.484,5.484,0,0,1,1.907,1.9,12.674,12.674,0,0,1,1.265,2.844,21.174,21.174,0,0,1,.741,3.412,19.368,19.368,0,0,1-.846,8.785,9.6,9.6,0,0,1-2.1,3.43,6.412,6.412,0,0,1-3.286,1.813,6.534,6.534,0,0,1-3.037-.145c.321,2.519.641,4.532.931,6.042s.522,2.571.7,3.183a11.392,11.392,0,0,1,.333,1.407,3.284,3.284,0,0,1-1.047,2.334,7.109,7.109,0,0,1-3.541,2.037c-1.1.289-2.317-4.593-3.641-14.726C165.157,269.909,164.661,264.1,164.937,262.135Zm9.3,13.716c1.063-.194,1.755-1.043,2.107-2.475a15.312,15.312,0,0,0,.084-5.428c-.455-3.387-1.341-4.971-2.67-4.713-1.092.162-1.726,1.367-1.951,3.48a40.945,40.945,0,0,0,.39,8.91A4.494,4.494,0,0,0,174.241,275.851Z" fill="#cc6d8f"/><path d="M183.508,263.266a14.41,14.41,0,0,1,1.077-4.24,11.593,11.593,0,0,1,1.917-2.93,11.041,11.041,0,0,1,2.315-1.853,7.593,7.593,0,0,1,2.384-.788c1.986-.251,3.308.195,4.067,1.343a9,9,0,0,1,1.637-1.566,3.661,3.661,0,0,1,1.669-.767,1.8,1.8,0,0,1,1.291.373,1.982,1.982,0,0,1,.763,1.418c.039.262.014,1.629-.058,4.1a41.731,41.731,0,0,0,.289,6.735,22.918,22.918,0,0,0,1.108,5.243c.385,1.008.886,1.41,1.436,1.41a1.327,1.327,0,0,0,.931-.563,2.714,2.714,0,0,0,.507-1.082,3.775,3.775,0,0,1,.434-1.075.94.94,0,0,1,.761-.543.951.951,0,0,1,.924.409,2.218,2.218,0,0,1,.477,1.111,5.664,5.664,0,0,1-.132,1.611,10.9,10.9,0,0,1-.746,2.16,5.112,5.112,0,0,1-1.721,2.077,5.492,5.492,0,0,1-2.81,1.081A5.578,5.578,0,0,1,196.889,275a7.287,7.287,0,0,1-2.22,2.159,6.259,6.259,0,0,1-2.792,1.032,6.451,6.451,0,0,1-2.773-.284,6.7,6.7,0,0,1-2.2-1.435,10.571,10.571,0,0,1-1.608-2.272,14.04,14.04,0,0,1-1.109-2.675,15.69,15.69,0,0,1-.585-2.724A21.279,21.279,0,0,1,183.508,263.266Zm6.591,6a14.778,14.778,0,0,0,.682,2.062,4.345,4.345,0,0,0,.719,1.158,1.475,1.475,0,0,0,.687.541.807.807,0,0,0,.564.073c1.113-.144,1.817-1.141,2.141-2.963a2.988,2.988,0,0,1-.215-.872c-.181-1.325-.355-3.507-.571-6.542a1.191,1.191,0,0,1-1.509-1.168,5.366,5.366,0,0,1,.054-1.256,5.666,5.666,0,0,0,.048-1.308.834.834,0,0,0-.309-.655,1.312,1.312,0,0,0-.8-.114,1.778,1.778,0,0,0-1.295.92,5.213,5.213,0,0,0-.719,2,15.626,15.626,0,0,0-.212,2.48,16.5,16.5,0,0,0,.149,2.514A23.76,23.76,0,0,0,190.1,269.266Z" fill="#cc6d8f"/><path d="M205.249,268.815c-.079-2.126-.169-3.8-.334-5.01q-.814-6.421-.96-8.441a18.765,18.765,0,0,1-.02-3.152,3.934,3.934,0,0,1,1.107-2.479,12.157,12.157,0,0,1,2.331-1.914,6.175,6.175,0,0,1,2.217-.807c1.2-.119,1.909.474,2.07,1.843a10.463,10.463,0,0,1-.17,2.355,22.132,22.132,0,0,0-.258,2.924,12.623,12.623,0,0,1,2.666-4.946,6.44,6.44,0,0,1,4.07-2.605,3.638,3.638,0,0,1,3.558,1.283,9.56,9.56,0,0,1,1.532,4.407,55.192,55.192,0,0,1,.265,5.586,54.837,54.837,0,0,0,.3,5.848,11.12,11.12,0,0,0,.99,3.852,1.746,1.746,0,0,0,1.639,1.073,1.206,1.206,0,0,0,1.035-.581,2.708,2.708,0,0,0,.566-1.212,3.745,3.745,0,0,1,.482-1.212,1.106,1.106,0,0,1,.847-.576,1.436,1.436,0,0,1,1.03.553,2.946,2.946,0,0,1,.543,1.427,5.314,5.314,0,0,1-.153,1.815,13.912,13.912,0,0,1-.832,2.415,5.267,5.267,0,0,1-1.92,2.231,5.472,5.472,0,0,1-3.13,1,6.467,6.467,0,0,1-5.347-2,10.529,10.529,0,0,1-2.566-6.017c-.121-1.01-.2-2.648-.226-4.913s-.088-3.808-.191-4.629c-.221-1.678-.754-2.513-1.591-2.394-1.1.159-1.874,1.775-2.278,4.991a45.586,45.586,0,0,0,.27,11.584,3.737,3.737,0,0,1-.075,1.317,3.3,3.3,0,0,1-.707,1.351,3.945,3.945,0,0,1-1.8,1.2,9.5,9.5,0,0,1-3.084.663c-.846.04-1.371-.775-1.617-2.559C205.426,272.361,205.329,270.94,205.249,268.815Z" fill="#cc6d8f"/><path d="M226.666,248.709q-.842-13.969-.1-16.451a7.009,7.009,0,0,1,2.149-3.014,6.488,6.488,0,0,1,2.971-1.732,1.745,1.745,0,0,1,1.342.437,2.627,2.627,0,0,1,.811,1.668c.019.212.021,2.06-.019,5.545s-.022,7.426.058,11.832.291,7.84.571,10.306a39.7,39.7,0,0,1,2.295-6.449,26.033,26.033,0,0,1,3-5.2c1.058-1.387,2.019-2.1,2.861-2.181.971-.04,2.054.582,3.371,1.87,1.27,1.361,1.977,2.429,2.057,3.218a3.074,3.074,0,0,1-.136,1.519,1.9,1.9,0,0,1-.887.963,13.027,13.027,0,0,1-1.392.665,8.456,8.456,0,0,0-1.933.916,23.928,23.928,0,0,0-2.222,1.426,46.723,46.723,0,0,0,4.068,10.218c1.619,2.894,2.975,4.428,4.1,4.508a1,1,0,0,0,1.01-.492,3.8,3.8,0,0,0,.551-1.25,3.913,3.913,0,0,1,.5-1.261.885.885,0,0,1,.876-.505,1.443,1.443,0,0,1,1.015.779,4.041,4.041,0,0,1,.557,1.685,6.572,6.572,0,0,1-.048,1.5,8.616,8.616,0,0,1-.534,2,7.651,7.651,0,0,1-1.063,1.97,4.174,4.174,0,0,1-1.79,1.381,5.009,5.009,0,0,1-2.6.35,9.257,9.257,0,0,1-2.223-.7,12.779,12.779,0,0,1-1.968-1.314,13.121,13.121,0,0,1-1.8-1.984,25.83,25.83,0,0,1-1.553-2.232c-.412-.663-.9-1.518-1.441-2.582s-.963-1.885-1.233-2.5c-.254-.624-.644-1.445-1.124-2.478-.321,1.274-.515,2.217-.628,2.812a20.278,20.278,0,0,0-.23,2.527,24.5,24.5,0,0,0,.166,3.563,3.987,3.987,0,0,1-.086,1.379,4.317,4.317,0,0,1-.7,1.364,3.176,3.176,0,0,1-1.775,1.107,8.8,8.8,0,0,1-3.082.438c-.608.04-1.065-.451-1.359-1.386a26.35,26.35,0,0,1-.814-4.348C227.775,264.681,227.229,258.046,226.666,248.709Z" fill="#cc6d8f"/><path d="M177.023,294.933a4.477,4.477,0,0,0-2.032-.48,1.586,1.586,0,0,0-1.153.369,8.775,8.775,0,0,0-1.223,2.326,22.021,22.021,0,0,0-.829,2.846c-.189.9-.357,1.883-.5,2.926-.142,1.069-.227,1.77-.258,2.143-.013.15-.023.288-.032.414a28.411,28.411,0,0,1-1.481-9.292c0-.451-.218-.989-1.253-.989a4.367,4.367,0,0,0-1.739.391,4.6,4.6,0,0,0-1.494.942,3.791,3.791,0,0,0-.782,1.619,17.228,17.228,0,0,0-.516,2.34c-.14.965-.239,1.8-.313,2.614-.088.941-.14,1.607-.156,1.981,0,.121-.01.234-.014.338-.228-.673-.427-1.329-.593-1.955-.238-.894-.4-1.552-.505-2.073-.116-.564-.218-1.161-.3-1.774-.093-.667-.14-1.122-.163-1.388-.028-.307-.051-.669-.07-1.107-.022-.48-.035-.685-.048-.747a1.542,1.542,0,0,0-.395-1.017,1.068,1.068,0,0,0-.763-.357,3.984,3.984,0,0,0-2.157.979,2.727,2.727,0,0,0-1.324,1.994,19.5,19.5,0,0,0,.446,3.678,35.185,35.185,0,0,0,1.133,4.276,15.389,15.389,0,0,0,1.631,3.531c.65.976,1.247,1.451,1.825,1.451h.05a3.154,3.154,0,0,0,1.491-.492,6.617,6.617,0,0,0,1.386-.989,2.614,2.614,0,0,0,.5-1.432c.09-.717.162-1.552.211-2.482.042-.791.1-1.438.184-1.962a25.549,25.549,0,0,0,1.832,4.9c.82,1.613,1.54,2.4,2.193,2.4h0a3.2,3.2,0,0,0,1.509-.374,5.288,5.288,0,0,0,1.354-.89,1.531,1.531,0,0,0,.4-.715c.077-.248.174-.655.31-1.219l.066-.275c.186-.77.368-1.453.559-2.086a38.688,38.688,0,0,1,1.516-4.108,19.6,19.6,0,0,1,1.316-2.62c.335-.521.6-.976.869-1.436a2.335,2.335,0,0,0,.354-1C178.066,295.651,177.714,295.248,177.023,294.933Z" fill="#4975a8"/><path d="M181.595,283.784a3.923,3.923,0,0,1,2.434-1.039,2.477,2.477,0,0,1,1.67.484,1.911,1.911,0,0,1,.651,1.615,5.526,5.526,0,0,1-1.207,3.663,3.356,3.356,0,0,1-2.509,1.446,1.915,1.915,0,0,1-1.6-.8,4.439,4.439,0,0,1-.642-2.706A3.28,3.28,0,0,1,181.595,283.784Z" fill="#00639b"/><path d="M183.961,307.7a14.292,14.292,0,0,1,1.341-1.021,7.15,7.15,0,0,0,1.455-1.3q2.6-3.034,3.871-11.874a4.09,4.09,0,0,1-2.77-1.713,5.48,5.48,0,0,1-.95-3.213,6.971,6.971,0,0,1,.975-3.438,10.53,10.53,0,0,1,2.29-2.84,4.147,4.147,0,0,1,2.327-1.121,1.752,1.752,0,0,1,1.783.912,6.617,6.617,0,0,1,.493,2.914c0,.287-.1,1.525-.3,3.712a10.079,10.079,0,0,0,2.847-1.307,12.281,12.281,0,0,0,2.188-1.72,20.021,20.021,0,0,1,1.595-1.476,2.208,2.208,0,0,1,1.291-.659c.623-.03,1.193.5,1.707,1.55a7.817,7.817,0,0,1,.772,3.476,4.9,4.9,0,0,1-.684,1.972c-.467.865-.944,1.775-1.492,2.694a17.351,17.351,0,0,0-1.493,3.63,15.754,15.754,0,0,0-.683,4.584,8.987,8.987,0,0,0,.3,2.51,3.478,3.478,0,0,0,.823,1.533,3.158,3.158,0,0,0,.987.681,2.272,2.272,0,0,0,1,.207,1.835,1.835,0,0,0,1.366-.472,2.8,2.8,0,0,0,.809-1.109c.772-1.391,1.227-2.514,1.454-2.779.239-.461-.025-.356.292-.325.355,0,.417,1.7.659,2.066a2.444,2.444,0,0,1,.353,1.283c0,.333,2.831-2.87,2.665-2.329s-2.952,4.385-3.348,5.031a13.685,13.685,0,0,1-1.809,2.215,6.526,6.526,0,0,1-2.139,1.365,6.774,6.774,0,0,1-2.833.463,7.972,7.972,0,0,1-5.477-2.089,6.608,6.608,0,0,1-1.936-4.8,16.93,16.93,0,0,1,1.683-7.05,23.114,23.114,0,0,1,3.176-5.381,31.236,31.236,0,0,1-4.708.959q-.426,2.492-.948,4.71a46.91,46.91,0,0,1-1.3,4.55,27.015,27.015,0,0,1-1.658,3.966,9.036,9.036,0,0,1-2.036,2.666,3.531,3.531,0,0,1-2.454.978,2.275,2.275,0,0,1-1.419-.485,1.411,1.411,0,0,1-.53-1.106A1.3,1.3,0,0,1,183.961,307.7Z" fill="#4975a8"/><path d="M193.891,293.146a.3.3,0,0,0-.345.244c0,.018-.006.036-.009.055l-2.617.049a.3.3,0,0,0-.588-.037c-.827,5.8-2.107,9.745-3.8,11.725a6.855,6.855,0,0,1-1.4,1.25c-.1.066-.192.132-.281.2a2.343,2.343,0,0,1-.288-.7,19.463,19.463,0,0,1-.3-4.145,34.4,34.4,0,0,1,.439-5.237c.4-2.584.447-3.09.447-3.243a1.824,1.824,0,0,0-.516-1.385c-.774-.809-2.01-.623-3.41.446a4.991,4.991,0,0,0-1.719,1.991,15.613,15.613,0,0,0-.714,4.151c-.182,2.12-.275,4.088-.275,5.85a12.287,12.287,0,0,0,.262,2.637,7.7,7.7,0,0,0,.834,2.177,4.246,4.246,0,0,0,1.63,1.6,5.284,5.284,0,0,0,2.429.634c.061,0,.122,0,.184,0a4.551,4.551,0,0,0,2.215-.564,9.606,9.606,0,0,0,2.022-1.287A9.268,9.268,0,0,0,190.2,306.8a27.377,27.377,0,0,0,1.677-4.007,47.188,47.188,0,0,0,1.31-4.577c.346-1.463.666-3.054.953-4.728A.3.3,0,0,0,193.891,293.146Z" fill="#4975a8"/><path d="M209.679,281.919c2.59-3.793,5.681-5.784,9.306-5.935a6.446,6.446,0,0,1,5.751,2.523,10.741,10.741,0,0,1,2.015,6.656,13.565,13.565,0,0,1-.719,4.361,13.169,13.169,0,0,1-1.869,3.7,15.905,15.905,0,0,1-2.671,2.925,18.555,18.555,0,0,1-3.063,2.19,19.8,19.8,0,0,1-3.081,1.377c1.142,3.957,3.234,5.97,6.292,6.06a5.939,5.939,0,0,0,2.6-.454,5.381,5.381,0,0,0,1.8-1.209,14.037,14.037,0,0,0,1.18-1.452,9.436,9.436,0,0,1,1-1.256,1.439,1.439,0,0,1,1.015-.511,1.306,1.306,0,0,1,1.1.693,3.278,3.278,0,0,1,.44,1.817q0,3.506-3.7,6.416a12.411,12.411,0,0,1-8.389,2.677,11.948,11.948,0,0,1-9.224-4.863q-3.654-4.581-3.655-12.169A23.41,23.41,0,0,1,209.679,281.919Zm4.916,12.946q5.631-3.306,5.638-7.989a6.128,6.128,0,0,0-.56-2.659,1.683,1.683,0,0,0-1.637-1.118c-1.07,0-1.93,1.043-2.557,3.052a24.411,24.411,0,0,0-.949,7.295A10.86,10.86,0,0,0,214.594,294.865Z" fill="#4975a8"/><path d="M149.921,257.538q2.427-1.97,1.021-6.265a5.548,5.548,0,0,0-1.889-2.46,5.644,5.644,0,0,0-4.271-.916,5.264,5.264,0,0,0-3.962,1.921,4.23,4.23,0,0,0-.4,3.98,11.314,11.314,0,0,0,1.876,3.693,20.816,20.816,0,0,0,5.729,4.653l3.491,2.1a36.729,36.729,0,0,1,6.609,4.69,20.86,20.86,0,0,1,5.32,8.2q2.614,7.994-1.643,12.943-3.83,4.515-11.609,5.328-9.62,1-14.839-4.641a12.864,12.864,0,0,1-2.729-4.771q-1.652-5.047.395-8.178a8.145,8.145,0,0,1,11.7-1.9,4.808,4.808,0,0,1,1.355,2q-5.069.529-5.98,3.962a4.619,4.619,0,0,0,.141,2.676,8.558,8.558,0,0,0,3.149,4.371,7.6,7.6,0,0,0,5.453,1.309,5.655,5.655,0,0,0,4.616-2.782,6.974,6.974,0,0,0,.3-5.867,17.057,17.057,0,0,0-2.841-5.522,27.535,27.535,0,0,0-3.868-3.858q-2.142-1.753-4.455-3.311t-4.415-3.186q-4.873-3.769-6.153-7.687a8.327,8.327,0,0,1,1.713-8.687q3.335-3.735,9.791-4.41,7.974-.833,11.611,3.65a10.773,10.773,0,0,1,1.745,3.5,5.844,5.844,0,0,1-.1,4.274,3.49,3.49,0,0,1-3.037,2.2A5.237,5.237,0,0,1,149.921,257.538Z" fill="#cc6d8f" stroke="#cc6d8f" stroke-linecap="round" stroke-linejoin="round" stroke-width="0.644"/></g></g></svg>