<?xml version="1.0" encoding="UTF-8"?>
<svg width="190px" height="47px" viewBox="0 0 190 47" version="1.1" xmlns="http://www.w3.org/2000/svg" xmlns:xlink="http://www.w3.org/1999/xlink">
    <!-- Generator: Sketch 61 (89581) - https://sketch.com -->
    <title>hanukkah-day</title>
    <desc>Created with Sketch.</desc>
    <g id="hanukkah-day" stroke="none" stroke-width="1" fill="none" fill-rule="evenodd">
        <g id="logo-(1)" transform="translate(-0.000000, 0.000000)" fill-rule="nonzero">
            <polygon id="Path" fill="#E2454A" points="66.6637931 32.6494253 62.8965517 26.4798851 59.183908 32.6494253 54.9798851 32.6494253 60.6034483 23.3132184 55.0344828 13.9770115 59.2385057 13.9770115 62.9511494 19.9827586 66.6637931 13.9770115 70.8678161 13.9770115 65.2988506 23.3132184 70.8678161 32.6494253 66.6637931 32.6494253"></polygon>
            <g id="Group" fill="#303030">
                <polygon id="Path" points="84.3534483 24.841954 77.5287356 24.841954 77.5287356 32.6494253 73.8706897 32.6494253 73.8706897 13.9770115 77.5287356 13.9770115 77.5287356 21.566092 84.3534483 21.566092 84.3534483 13.9770115 88.0114943 13.9770115 88.0114943 32.6494253 84.3534483 32.6494253"></polygon>
                <path d="M101.16954,28.4454023 L95.4367816,28.4454023 L94.0172414,32.5948276 L90.3591954,32.5948276 L97.0747126,13.8132184 L99.75,13.8132184 L106.465517,32.5948276 L102.643678,32.5948276 L101.16954,28.4454023 Z M96.3649425,25.5517241 L100.350575,25.5517241 L99.204023,21.3477011 L98.3850575,18.454023 L98.2758621,18.454023 L97.5114943,21.3477011 L96.3649425,25.5517241 Z" id="Shape"></path>
                <polygon id="Path" points="123.609195 23.0402299 123.609195 19.2729885 123.390805 19.2729885 122.025862 22.1666667 118.640805 29.2643678 117.494253 29.2643678 113.563218 21.9482759 112.143678 19.2183908 111.925287 19.2183908 111.979885 22.8764368 111.979885 32.6494253 108.867816 32.6494253 108.867816 13.9770115 112.307471 13.9770115 116.948276 21.8936782 118.094828 23.9683908 118.204023 23.9683908 119.241379 21.8936782 123.609195 14.0316092 126.994253 14.0316092 126.994253 32.704023 123.609195 32.704023"></polygon>
                <path d="M138.951149,27.6264368 C138.951149,27.0804598 138.732759,26.5890805 138.350575,26.2614943 C137.859195,25.8793103 137.367816,25.5517241 136.767241,25.2787356 C136.112069,25.0057471 135.456897,24.6781609 134.692529,24.3505747 C133.982759,24.0229885 133.272989,23.6408046 132.617816,23.204023 C131.962644,22.7672414 131.471264,22.1666667 131.034483,21.5114943 C130.597701,20.7471264 130.37931,19.8189655 130.433908,18.9454023 C130.433908,18.1264368 130.543103,17.3074713 130.87069,16.5977011 C131.143678,15.9425287 131.58046,15.3965517 132.181034,14.9051724 C132.781609,14.4683908 133.436782,14.0862069 134.146552,13.9224138 C134.965517,13.704023 135.83908,13.5948276 136.712644,13.5948276 C137.75,13.5948276 138.787356,13.704023 139.770115,13.8678161 C140.807471,14.0316092 141.735632,14.3591954 142.663793,14.9051724 L141.571839,18.0172414 C140.862069,17.6350575 140.097701,17.3074713 139.278736,17.0344828 C138.45977,16.816092 137.586207,16.7068966 136.767241,16.7068966 C136.057471,16.6522989 135.402299,16.816092 134.801724,17.1982759 C134.364943,17.5258621 134.091954,18.0172414 134.146552,18.5632184 C134.146552,19.0545977 134.364943,19.545977 134.747126,19.8735632 C135.238506,20.2557471 135.729885,20.5833333 136.33046,20.8563218 C136.985632,21.183908 137.640805,21.4568966 138.405172,21.7844828 C139.114943,22.112069 139.824713,22.4942529 140.479885,22.9310345 C141.135057,23.3678161 141.626437,23.9683908 142.063218,24.6235632 C142.5,25.387931 142.718391,26.2614943 142.663793,27.1350575 C142.663793,28.0086207 142.5,28.8821839 142.172414,29.7011494 C141.844828,30.4109195 141.408046,31.0114943 140.807471,31.5028736 C140.152299,31.9942529 139.442529,32.3764368 138.623563,32.5948276 C137.695402,32.8132184 136.767241,32.9770115 135.83908,32.9224138 C134.637931,32.9224138 133.491379,32.8132184 132.344828,32.5402299 C131.744253,32.4310345 131.143678,32.2672414 130.543103,32.0488506 L130.543103,28.3908046 C130.979885,28.6091954 131.744253,28.8821839 132.071839,28.9913793 C132.399425,29.1005747 132.781609,29.2643678 133.109195,29.3189655 C133.491379,29.4281609 133.928161,29.5373563 134.364943,29.591954 C134.801724,29.6465517 135.238506,29.7011494 135.729885,29.7011494 C136.603448,29.7557471 137.477011,29.5373563 138.241379,29.1551724 C138.678161,28.9367816 139.005747,28.2816092 138.951149,27.6264368 Z" id="Path"></path>
                <polygon id="Path" points="159.152299 17.1982759 153.692529 17.1982759 153.692529 32.5948276 150.034483 32.5948276 150.034483 17.1982759 144.520115 17.1982759 145.666667 13.9224138 159.097701 13.9224138"></polygon>
                <polygon id="Path" points="161.718391 13.9770115 172.801724 13.9770115 172.801724 17.2528736 165.376437 17.2528736 165.376437 21.6206897 170.344828 21.6206897 170.344828 24.8965517 165.376437 24.8965517 165.376437 29.4827586 172.801724 29.4827586 172.801724 32.7586207 161.718391 32.7586207"></polygon>
                <path d="M176.787356,14.1408046 C177.16954,14.0862069 177.66092,13.9770115 178.097701,13.9224138 C178.534483,13.8678161 179.025862,13.8132184 179.517241,13.7586207 C180.008621,13.704023 179.844828,13.704023 180.281609,13.704023 C180.718391,13.704023 181.155172,13.704023 181.482759,13.704023 C182.520115,13.704023 183.612069,13.7586207 184.649425,13.9224138 C185.468391,14.0862069 186.232759,14.3591954 186.942529,14.7413793 C187.597701,15.1235632 188.143678,15.6695402 188.525862,16.3793103 C188.962644,17.1436782 189.181034,18.0718391 189.126437,18.9454023 C189.181034,20.2557471 188.798851,21.566092 188.034483,22.658046 C187.324713,23.4770115 186.341954,24.0775862 185.304598,24.3505747 C185.795977,24.7327586 186.287356,25.2241379 186.614943,25.7701149 C186.887931,26.316092 190,32.5948276 190,32.5948276 L185.905172,32.5948276 L182.192529,24.9511494 L180.336207,24.9511494 L180.336207,32.5948276 L176.678161,32.5948276 L176.678161,14.1408046 L176.787356,14.1408046 Z M182.356322,16.9798851 C181.974138,16.9798851 181.591954,16.9798851 181.264368,16.9798851 C180.991379,16.9798851 180.718391,17.0344828 180.445402,17.0890805 L180.445402,22.4942529 L181.974138,22.4942529 C182.847701,22.5488506 183.666667,22.2758621 184.376437,21.7844828 C185.031609,21.183908 185.359195,20.3649425 185.304598,19.4913793 C185.359195,18.7816092 185.086207,18.0718391 184.54023,17.6350575 C183.939655,17.1436782 183.175287,16.9252874 182.356322,16.9798851 Z" id="Shape"></path>
                <path d="M49.9022989,22.4942529 C48.6465517,19.6551724 47.1178161,18.7270115 45.2068966,17.3074713 C44.4971264,16.8706897 43.8965517,16.3247126 43.4051724,15.7241379 C43.1867816,15.3965517 43.0775862,15.0143678 43.0775862,14.5775862 C43.0775862,14.0862069 43.1867816,13.5948276 43.3505747,13.158046 C44.0057471,11.2471264 44.387931,9.2816092 44.387931,7.26149425 C44.4425287,4.47701149 43.295977,0 39.8017241,0 C39.3103448,0 38.8189655,0.0545977011 38.3821839,0.218390805 C37.5632184,0.545977011 36.908046,1.03735632 36.362069,1.69252874 C35.6522989,2.45689655 33.6321839,5.56896552 32.9224138,5.84195402 C32.7586207,5.89655172 32.5948276,5.89655172 32.4856322,5.84195402 C30.137931,5.07758621 27.7356322,4.6408046 25.2241379,4.6408046 C22.7672414,4.6408046 20.3103448,5.07758621 17.9626437,5.84195402 C17.7988506,5.89655172 17.6350575,5.89655172 17.5258621,5.84195402 C16.816092,5.56896552 14.795977,2.45689655 14.0862069,1.69252874 C13.5402299,1.03735632 12.8304598,0.545977011 12.066092,0.218390805 C11.5747126,0.0545977011 11.0833333,0 10.591954,0 C7.09770115,0 5.95114943,4.47701149 5.95114943,7.26149425 C5.95114943,9.2816092 6.33333333,11.2471264 6.98850575,13.158046 C7.15229885,13.6494253 7.26149425,14.0862069 7.26149425,14.5775862 C7.26149425,14.9597701 7.15229885,15.341954 6.93390805,15.7241379 C6.44252874,16.3793103 5.84195402,16.9252874 5.13218391,17.3074713 C3.27586207,18.7270115 1.74712644,19.6551724 0.49137931,22.4942529 C0.163793103,23.3678161 0,24.2413793 0,25.1695402 C0,26.6982759 0.545977011,28.0086207 1.36494253,29.591954 C3.11206897,33.1408046 6.66091954,37.2356322 9.06321839,39.3103448 C13.704023,43.4051724 19.545977,46.2988506 24.6235632,46.5718391 C24.7873563,46.5718391 25.0057471,46.5718391 25.1695402,46.5718391 C25.3333333,46.5718391 25.5517241,46.5718391 25.7155172,46.5718391 C30.7931034,46.2442529 36.6350575,43.3505747 41.2758621,39.3103448 C43.6781609,37.1810345 47.2270115,33.1408046 48.9741379,29.591954 C49.7385057,28.0086207 50.3390805,26.6982759 50.3390805,25.1695402 C50.3936782,24.2413793 50.2298851,23.3678161 49.9022989,22.4942529 Z M37.6178161,6.87931034 C38.3275862,6.06034483 39.9655172,4.9683908 41.0028736,5.67816092 C42.204023,6.38793103 42.0402299,9.00862069 41.8218391,10.2097701 C41.658046,10.9741379 41.4396552,11.7385057 41.112069,12.4482759 C40.8390805,13.0488506 40.6206897,13.6494253 40.3477011,14.3591954 C39.091954,13.4856322 38,12.3390805 37.1264368,11.0833333 C36.2528736,9.6091954 36.5258621,8.08045977 37.6178161,6.87931034 Z M34.7787356,12.9396552 C36.1982759,13.7586207 37.0718391,15.2327586 37.1810345,16.8706897 C37.2356322,17.4712644 37.0718391,18.0718391 36.6896552,18.5632184 C36.4712644,18.8362069 36.1436782,18.9454023 35.7614943,19 C36.5804598,17.908046 36.5258621,16.433908 35.6522989,15.3965517 C35.1609195,14.7413793 34.3965517,14.3591954 33.5775862,14.3045977 C31.612069,14.25 30.3017241,15.7787356 30.3017241,17.6896552 C30.0833333,17.362069 29.9195402,17.0344828 29.7557471,16.6522989 C29.3189655,15.3965517 29.4827586,13.8132184 30.4109195,12.9396552 C31.612069,12.066092 33.6321839,12.2844828 34.7787356,12.9396552 Z M19.2183908,7.75287356 C19.4367816,7.47988506 19.7643678,7.26149425 20.091954,7.20689655 C21.7298851,6.77011494 23.4224138,6.49712644 25.0603448,6.49712644 L25.1695402,6.49712644 L25.2787356,6.49712644 C26.9712644,6.49712644 28.6637931,6.77011494 30.2471264,7.20689655 C30.5747126,7.26149425 30.9022989,7.47988506 31.1206897,7.75287356 C31.1752874,7.91666667 31.1752874,8.02586207 31.1206897,8.18965517 C30.683908,8.73563218 30.137931,9.22701149 29.591954,9.6091954 C27.7902299,11.0833333 26.6436782,12.2298851 26.0431034,14.6321839 C25.7155172,15.8333333 25.7701149,17.0890805 26.1522989,18.2902299 C26.7528736,20.2011494 28.1724138,21.3477011 28.8275862,23.0948276 C29.2097701,23.9137931 29.2643678,24.841954 28.9367816,25.7155172 C28.3362069,26.9712644 26.5344828,27.1896552 25.3333333,27.1896552 L25.2241379,27.1896552 L25.1149425,27.1896552 C23.8591954,27.1896552 22.112069,26.9712644 21.5114943,25.7155172 C21.183908,24.8965517 21.2385057,23.9137931 21.6206897,23.0948276 C22.2758621,21.3477011 23.6408046,20.2011494 24.295977,18.2902299 C24.6781609,17.0890805 24.7327586,15.8333333 24.4051724,14.6321839 C23.8045977,12.2844828 22.658046,11.0833333 20.8563218,9.6091954 C20.3103448,9.17241379 19.7643678,8.68103448 19.3275862,8.18965517 C19.1637931,8.08045977 19.1637931,7.91666667 19.2183908,7.75287356 Z M15.5603448,12.9396552 C16.7068966,12.2298851 18.7270115,12.066092 19.8189655,12.9942529 C20.8017241,13.8132184 20.9109195,15.3965517 20.4741379,16.7068966 C20.3649425,17.0890805 20.2011494,17.4166667 19.9281609,17.7442529 C19.9281609,15.8333333 18.6178161,14.25 16.6522989,14.3591954 C15.8333333,14.4137931 15.0689655,14.795977 14.5775862,15.4511494 C13.704023,16.4885057 13.6494253,17.9626437 14.4683908,19.0545977 C14.1408046,19.0545977 13.8132184,18.8908046 13.5402299,18.6178161 C13.158046,18.1264368 12.9942529,17.5258621 13.0488506,16.9252874 C13.2672414,15.2873563 14.1954023,13.8132184 15.5603448,12.9396552 L15.5603448,12.9396552 Z M9.3362069,5.62356322 C10.4281609,4.9683908 12.066092,6.06034483 12.7212644,6.82471264 C13.8132184,8.08045977 14.0862069,9.6091954 13.2126437,11.0287356 C12.3390805,12.2844828 11.2471264,13.4310345 9.99137931,14.3045977 C9.7183908,13.5948276 9.5,12.9396552 9.22701149,12.3936782 C8.89942529,11.683908 8.68103448,10.9195402 8.51724138,10.1551724 C8.29885057,8.95402299 8.13505747,6.38793103 9.3362069,5.62356322 L9.3362069,5.62356322 Z M47.7729885,26.316092 C47.0086207,28.5 44.5517241,31.9396552 42.6408046,34.341954 C40.6206897,36.8534483 38.1091954,39.0373563 35.3793103,40.7298851 C32.5948276,42.4224138 28.5545977,44.0603448 25.2241379,44.1695402 C21.8936782,44.0603448 17.8534483,42.4224138 15.0689655,40.7298851 C12.2844828,39.0373563 9.82758621,36.908046 7.80747126,34.341954 C5.84195402,31.9396552 3.43965517,28.5 2.67528736,26.316092 C2.34770115,25.4425287 2.34770115,24.4597701 2.67528736,23.5862069 C3.27586207,22.0028736 4.36781609,20.637931 5.78735632,19.6551724 C6.16954023,19.3275862 6.66091954,19.1637931 7.15229885,19.1637931 C8.24425287,19.3275862 8.84482759,20.8563218 9.2816092,21.7298851 C9.00862069,22.0028736 8.68103448,22.2758621 8.35344828,22.6034483 C6.49712644,24.6235632 6.77011494,27.2442529 7.91666667,29.7011494 C9.5,32.9770115 12.612069,36.2528736 15.2873563,38.6551724 C13.3764368,34.1235632 14.0862069,28.2816092 18.7816092,25.6063218 C18.2902299,31.2298851 31.2298851,32.2126437 31.6666667,25.5517241 C36.3074713,28.1724138 37.0718391,34.0143678 35.1609195,38.6005747 C37.8908046,36.2528736 41.0028736,32.9770115 42.5862069,29.6465517 C43.7327586,27.1350575 44.0057471,24.5689655 42.1494253,22.5488506 C41.8764368,22.2212644 41.5488506,22.0028736 41.2212644,21.6752874 C41.658046,20.8017241 42.2586207,19.2729885 43.3505747,19.1091954 C43.841954,19.1091954 44.3333333,19.2729885 44.7155172,19.6005747 C46.1350575,20.5833333 47.2270115,21.9482759 47.8275862,23.5316092 C48.1005747,24.4597701 48.1005747,25.4425287 47.7729885,26.316092 Z" id="Shape"></path>
                <path d="M29.591954,33.8505747 C29.045977,34.0143678 28.5,34.0689655 27.954023,34.0689655 C27.0804598,34.0689655 26.316092,33.5775862 25.8793103,32.8132184 C25.8247126,32.6494253 25.6609195,32.6494253 25.2241379,32.6494253 L25.1695402,32.6494253 L25.1149425,32.6494253 L25.0603448,32.6494253 L25.0057471,32.6494253 C24.5689655,32.6494253 24.4597701,32.6494253 24.3505747,32.8132184 C23.9683908,33.5775862 23.1494253,34.0689655 22.2758621,34.0689655 C21.7298851,34.1235632 21.183908,34.0143678 20.637931,33.8505747 C18.7816092,33.25 18.6724138,33.0316092 16.5977011,33.0316092 C18.5086207,37.454023 21.566092,40.7844828 25.0057471,40.7844828 L25.1149425,40.7844828 C28.5545977,40.7844828 31.5574713,37.5086207 33.5229885,33.0316092 C31.5574713,33.0316092 31.4482759,33.25 29.591954,33.8505747 Z M24.6781609,39.9109195 C24.295977,39.8563218 23.9683908,39.8017241 23.6408046,39.6925287 C23.3132184,39.637931 23.0402299,39.4741379 22.7672414,39.3103448 C22.6034483,39.2011494 22.4942529,39.0373563 22.4396552,38.8735632 C21.9482759,37.7270115 21.5114943,36.4712644 21.183908,35.2701149 C22.4396552,35.433908 23.6954023,35.1063218 24.7327586,34.4511494 L24.6781609,39.9109195 L24.6781609,39.9109195 Z M27.954023,38.8189655 C27.8994253,38.9827586 27.7356322,39.1465517 27.6264368,39.2557471 C27.3534483,39.4195402 27.0258621,39.5833333 26.7528736,39.637931 C26.4252874,39.7471264 26.0431034,39.8563218 25.7155172,39.8563218 L25.7155172,34.3965517 C26.7528736,35.1063218 28.0086207,35.3793103 29.2643678,35.2155172 C28.8821839,36.4712644 28.5,37.6724138 27.954023,38.8189655 L27.954023,38.8189655 Z" id="Shape"></path>
            </g>
        </g>
        <g id="candles2" transform="translate(32.000000, 25.000000)">
            <g id="Group-4">
                <path d="M25.9993049,3.17008564 L23.9231718,3.17008564 C23.9231718,8.88767535 19.5829052,13.6136257 14.0376388,14.147253 L14.0376388,12.3180671 C18.5659059,11.7842886 22.1126777,7.89592793 22.1126777,3.16970757 L20.0365447,3.16970757 C20.0365447,6.7141703 17.4319677,9.68665801 14.0356069,10.1824777 L14.0356069,8.35329189 C16.4125087,7.8574884 18.2233771,5.72236886 18.2233771,3.16949153 L16.147244,3.16949153 C16.147244,4.54088129 15.2407672,5.76244492 14.0335216,6.18016492 L14.0335216,3.16949153 L11.9573885,3.16949153 L11.9573885,6.18016492 C10.7125535,5.76031689 9.84366607,4.57885092 9.84366607,3.16949153 L7.77378901,3.16949153 C7.77378901,5.72236886 9.5846574,7.85747219 11.9615592,8.35329189 L11.9615592,10.1824777 C8.56535885,9.68667421 5.9606214,6.71395425 5.9606214,3.16970757 L3.88448835,3.16970757 C3.88448835,7.89565787 7.43104633,11.7838997 11.9595273,12.3180671 L11.9595273,14.147253 C6.45158292,13.6134744 2.07613305,8.88751332 2.07613305,3.17008564 L0,3.17008564 C0,10.0688929 5.28224755,15.7108674 11.9617731,16.2444947 L11.9617731,19.9028663 L8.22512925,19.9028663 L8.22512925,22 L17.8101609,22 L17.8101609,19.9028663 L14.0735171,19.9028663 L14.0735171,16.2444947 C20.717699,15.7086043 26,10.0310853 26,3.17008564 L25.9993049,3.17008564 Z" id="Fill-1" fill="#EA990A"></path>
                <path d="M10.0320719,2.98305085 L7.58538321,2.98305085 L7.58538321,3.16949153 L7.58593299,3.2474969 C7.62108136,5.74009582 9.33795012,7.88552322 11.6994501,8.48416858 L11.7731014,8.50225424 L11.7731014,9.96264407 L11.6918055,9.94780298 C8.51281917,9.33685516 6.1490272,6.49431967 6.1490272,3.16970757 L6.1490272,2.98326689 L3.69608256,2.98326689 L3.69608256,3.16970757 L3.69715191,3.31272651 C3.76622302,7.92938892 7.17358953,11.7987878 11.6584582,12.46603 L11.771029,12.4818305 L11.771029,13.9392373 L11.6519225,13.9250042 C6.35211853,13.2449918 2.26453885,8.63409925 2.26453885,3.17008564 L2.26453885,2.98364497 L-0.188405797,2.98364497 L-0.188405797,3.17008564 L-0.18681607,3.37822142 C-0.0830780655,10.1654514 5.08557337,15.7762871 11.7423714,16.4124154 L11.7732899,16.4151695 L11.7732899,19.7162881 L8.03672346,19.7164256 L8.03672346,22.1864407 L17.9985667,22.1864407 L17.9985667,19.7164256 L14.2617536,19.7162881 L14.2617536,16.4147966 L14.0888225,16.4303191 C20.87029,15.8833559 26.1884058,10.0883546 26.1884058,3.17008564 L26.1884058,2.98364497 L23.734766,2.98364497 L23.734766,3.17008564 L23.7334986,3.33749517 C23.6516324,8.74131929 19.6133199,13.2538605 14.3467152,13.9250931 L14.2259565,13.9394237 L14.2259565,12.4818305 L14.3386834,12.4660547 C18.8696389,11.7922986 22.3010835,7.84949341 22.3010835,3.16970757 L22.3010835,2.98326689 L19.8481389,2.98326689 L19.8481389,3.16970757 L19.847387,3.27238087 C19.7993177,6.55288111 17.4517385,9.34314765 14.305376,9.94780187 L14.2238841,9.96264407 L14.2238841,8.50225424 L14.2977143,8.48417038 C16.6838091,7.87930494 18.4117829,5.69523718 18.4117829,3.16949153 L18.4117829,2.98305085 L15.9588382,2.98305085 L15.9588382,3.16949153 L15.958098,3.234983 C15.9324832,4.36849266 15.2444254,5.41177563 14.2624293,5.88416758 L14.2218116,5.90308475 L14.2219274,2.98305085 L11.7689827,2.98305085 L11.7689565,5.90644068 L11.7201895,5.88440537 C10.6996862,5.40835777 10.0320719,4.36679208 10.0320719,3.16949153 L10.0320719,2.98305085 Z M13.845,3.3559322 L13.8451158,6.44286464 L14.0957073,6.35615728 L14.1586118,6.33362479 C15.369059,5.88519011 16.2458409,4.69745291 16.3291541,3.37559942 L16.3300725,3.3559322 L18.0313768,3.3559322 L18.0300917,3.39372032 C17.9285015,5.72472191 16.2512635,7.7005852 13.9967466,8.17086015 L13.8472011,8.20205419 L13.8472011,10.3984408 L14.0631037,10.3669221 L14.1682553,10.3507675 C17.5596427,9.80373479 20.1197331,6.86730052 20.221787,3.38574085 L20.2223478,3.35611864 L21.9219565,3.35611864 L21.9201741,3.44401665 C21.7866233,7.90924865 18.4039664,11.6156188 14.0153535,12.1329353 L13.849233,12.1525171 L13.849233,14.3527036 L14.0558743,14.3328183 L14.2257204,14.3151525 C19.7046641,13.7025619 23.9375552,9.08496041 24.106345,3.5157592 L24.1097246,3.35649153 L25.810087,3.35649153 L25.8054217,3.57225838 C25.6042786,10.1186085 20.5111698,15.5382031 14.0582117,16.0586702 L13.8851113,16.0726317 L13.8851113,20.089307 L17.6215942,20.0891695 L17.6215942,21.8135593 L8.41344928,21.8135593 L8.41344928,20.0891695 L12.1501789,20.089307 L12.1501789,16.0724991 L11.9769341,16.0586586 L11.7785797,16.0412586 C5.37824712,15.429575 0.39136338,10.0793536 0.194448164,3.57003331 L0.189724638,3.35649153 L1.88933333,3.35649153 L1.89298502,3.5149558 C2.0643267,9.128954 6.40324782,13.7961228 11.9411642,14.332806 L12.1479331,14.3528441 L12.1479331,12.1525304 L11.9818275,12.1329371 L11.8477934,12.116096 C7.52434152,11.5395304 4.20917347,7.8634562 4.07699178,3.44400323 L4.07502899,3.35611864 L5.77463768,3.35611864 L5.77537925,3.38572933 C5.87849195,6.90300132 8.49074254,9.86423976 11.934062,10.3669221 L12.149965,10.3984412 L12.149965,8.20205521 L12.0004207,8.1708604 L11.928665,8.15534131 C9.71038967,7.65848908 8.06758348,5.69991786 7.96707438,3.39371979 L7.9656087,3.3559322 L9.66013043,3.3559322 L9.66153664,3.38119777 C9.74348399,4.75882641 10.6211315,5.9264548 11.896608,6.35663735 L12.1457943,6.44068092 L12.1457681,3.3559322 L13.845,3.3559322 Z" id="Fill-1-Copy" fill="#FFFFFF" fill-rule="nonzero"></path>
                <path d="M0.721611396,2.79380798 C0.721611396,2.79380798 -0.980724197,2.7598224 0.843934912,0 C0.843934912,0 3.26374497,2.89913919 0.721611396,2.79380798" id="Fill-24" fill="#FFD936"></path>
                <path d="M4.67813313,2.79380798 C4.67813313,2.79380798 2.97579754,2.7598224 4.80045665,0 C4.80045665,0 7.22026671,2.89913919 4.67813313,2.79380798" id="Fill-24-Copy" fill="#FFD936"></path>
                <path d="M8.63465487,2.79380798 C8.63465487,2.79380798 6.93231928,2.7598224 8.75697839,0 C8.75697839,0 11.1767884,2.89913919 8.63465487,2.79380798" id="Fill-24-Copy-2" fill="#FFD936"></path>
                <path d="M12.7795824,2.79380798 C12.7795824,2.79380798 11.0772468,2.7598224 12.9019059,0 C12.9019059,0 15.321716,2.89913919 12.7795824,2.79380798" id="Fill-24-Copy-3" fill="#FFD936"></path>
                <path d="M16.9245099,2.79380798 C16.9245099,2.79380798 15.2221744,2.7598224 17.0468335,0 C17.0468335,0 19.4666435,2.89913919 16.9245099,2.79380798" id="Fill-24-Copy-4" fill="#FFD936"></path>
                <path d="M20.8810317,2.79380798 C20.8810317,2.79380798 19.1786961,2.7598224 21.0033552,0 C21.0033552,0 23.4231653,2.89913919 20.8810317,2.79380798" id="Fill-24-Copy-5" fill="#FFD936"></path>
                <path d="M24.6491476,2.79380798 C24.6491476,2.79380798 22.946812,2.7598224 24.7714711,0 C24.7714711,0 27.1912812,2.89913919 24.6491476,2.79380798" id="Fill-24-Copy-6" fill="#FFD936"></path>
            </g>
        </g>
    </g>
</svg>