<?xml version="1.0" encoding="utf-8"?>
<!-- Generator: Adobe Illustrator 16.0.0, SVG Export Plug-In . SVG Version: 6.00 Build 0)  -->
<!DOCTYPE svg PUBLIC "-//W3C//DTD SVG 1.1//EN" "http://www.w3.org/Graphics/SVG/1.1/DTD/svg11.dtd">
<svg version="1.1" id="Layer_1" xmlns="http://www.w3.org/2000/svg" xmlns:xlink="http://www.w3.org/1999/xlink" x="0px" y="0px"
	 width="423.837px" height="361.978px" viewBox="0 0 423.837 361.978" enable-background="new 0 0 423.837 361.978"
	 xml:space="preserve">
<g>
	<g>
		<path d="M40.066,343.353c-0.696,2.857-1.832,5.155-3.406,6.896c-1.575,1.739-4.175,2.957-7.801,3.653l-10.054,1.648l-4.23-26.481
			h-4.121l1.813-6.923H18.2c0.971,0,1.786,0.252,2.445,0.756c0.66,0.504,1.072,1.241,1.236,2.211l3.516,22.031l3.461-0.659
			c0.916-0.165,1.639-0.545,2.17-1.14c0.531-0.596,0.925-1.351,1.181-2.267l3.571-14.01h-8.406l1.813-6.923h10.219
			c1.41,0,2.55,0.444,3.42,1.333c0.87,0.888,1.305,1.918,1.305,3.09c0,0.458-0.055,0.925-0.165,1.401L40.066,343.353z"/>
		<path d="M66.328,354.78v-25.712H47.319l1.813-6.923h21.646c1.062,0,1.951,0.357,2.665,1.071c0.714,0.715,1.071,1.604,1.071,2.665
			v28.898H66.328z"/>
		<path d="M84.129,354.78v-25.712h-4.945l1.813-6.923h7.692c1.062,0,1.95,0.357,2.665,1.071c0.714,0.715,1.071,1.604,1.071,2.665
			v28.898H84.129z"/>
		<path d="M119.675,329.068h-10.769v11.152h-7.856v-11.152h-3.406l1.813-6.923h24.613c1.062,0,1.95,0.357,2.665,1.071
			c0.714,0.715,1.071,1.604,1.071,2.665v25.162c0,1.063-0.357,1.951-1.071,2.665s-1.603,1.071-2.665,1.071H98.523v-6.923h21.152
			V329.068z"/>
		<path d="M161.704,345.11c-0.458,3.169-1.813,5.691-4.065,7.568c-2.252,1.878-4.89,2.815-7.911,2.815
			c-3.022,0-5.641-0.938-7.856-2.815c-2.216-1.877-3.553-4.399-4.011-7.568l-1.978-16.042h-4.23l1.813-6.923H165l-0.467,5.659
			c-0.055,0.55-0.101,0.934-0.137,1.153L161.704,345.11z M145.826,344.616c0.146,1.154,0.595,2.056,1.346,2.706
			s1.603,0.975,2.555,0.975c1.227,0,2.184-0.333,2.871-1.002c0.687-0.669,1.103-1.58,1.25-2.733l2.253-15.493h-12.197
			L145.826,344.616z"/>
		<path d="M169.231,354.78v-18.68h8.131v18.68H169.231z M189.614,354.78v-25.712h-20.108l1.813-6.923h22.47
			c1.062,0,1.996,0.357,2.802,1.071c0.806,0.715,1.209,1.604,1.209,2.665v28.898H189.614z"/>
		<path d="M223.841,322.146c0.916,0,1.703,0.238,2.362,0.715s1.117,1.208,1.374,2.197l4.065,16.866l4.725-12.855h-4.396l1.813-6.923
			h8.296c1.062,0,1.923,0.312,2.582,0.935c0.659,0.622,0.989,1.364,0.989,2.225c0,0.458-0.056,0.87-0.165,1.236l-6.703,17.91h-6.263
			l3.9,17.526h-8.131l-7.856-32.909h-4.23l1.813-6.923H223.841z"/>
		<path d="M254.058,354.78v-25.712h-4.944l1.813-6.923h7.691c1.062,0,1.95,0.357,2.664,1.071c0.715,0.715,1.071,1.604,1.071,2.665
			v28.898H254.058z"/>
		<path d="M285.758,354.78v-25.712H266.75l1.813-6.923h21.646c1.063,0,1.95,0.357,2.665,1.071c0.714,0.715,1.071,1.604,1.071,2.665
			v28.898H285.758z"/>
		<path d="M326.195,342.528c-0.659,2.949-1.964,5.343-3.915,7.184c-1.95,1.841-4.583,3.183-7.897,4.024l-12.966,3.681l-1.648-6.867
			l7.197-2.088l-4.56-19.394h-4.615l1.813-6.923h6.043c0.971,0,1.763,0.238,2.376,0.715s1.049,1.227,1.305,2.252l5,21.098
			l0.659-0.22c0.86-0.275,1.562-0.705,2.102-1.291s0.92-1.364,1.14-2.335l3.077-13.296h-4.341l1.813-6.923h6.703
			c1.263,0,2.289,0.39,3.076,1.168s1.182,1.754,1.182,2.926c0,0.384-0.046,0.778-0.138,1.181L326.195,342.528z"/>
	</g>
	<g>
		<g>
			<defs>
				<path id="SVGID_1_" d="M382.883,0l-17.186,55.982h-150l-18.036,56.261c29.659-17.815,77.074-15.955,90.847-11.236
					c59.269,20.305,75.105,58.123,77.359,97.27L423.837,0H382.883z"/>
			</defs>
			<clipPath id="SVGID_2_">
				<use xlink:href="#SVGID_1_"  overflow="visible"/>
			</clipPath>
			<g clip-path="url(#SVGID_2_)">
				<rect x="-0.949" y="-22.512" fill="#0037AB" width="437.21" height="259.302"/>
				<path fill="#2653B8" d="M349.632,361.79c0-27.935,56.977-272.674,56.977-272.674C242.656,128.07-147.46,229.232-136.414,270.512
					c7.222,26.986,134.075,141.86,259.303,141.86C248.117,412.372,349.632,389.726,349.632,361.79z"/>
			</g>
		</g>
		<g>
			<defs>
				<path id="SVGID_3_" d="M237.209,155.4c-28.604,0-48.748,9.959-60.356,22.403c-0.033-0.104-0.077-0.206-0.109-0.31l-70.93-6.977
					L156.729,0H81.977L0,280.396h96.239c-8.608-17.967-14.262-36.365-14.262-39.53c0-0.126,0.086-0.313,0.236-0.544l77.699-7.896
					c18.576,42.743,60.409,41.645,62.472,41.645c33.063,0,56.063-15.965,65.658-37.978c2.624-6.085,3.818-11.947,3.818-16.737
					C291.861,177.494,263.373,155.4,237.209,155.4z"/>
			</defs>
			<clipPath id="SVGID_4_">
				<use xlink:href="#SVGID_3_"  overflow="visible"/>
			</clipPath>
			<g clip-path="url(#SVGID_4_)">
				<rect x="-0.581" y="-22.512" fill="#0037AB" width="437.21" height="259.302"/>
				<path fill="#2653B8" d="M350,361.79c0-27.935,56.977-272.674,56.977-272.674C243.024,128.07-147.092,229.232-136.046,270.512
					c7.222,26.986,134.075,141.86,259.303,141.86C248.485,412.372,350,389.726,350,361.79z"/>
			</g>
		</g>
	</g>
</g>
</svg>
