<svg id="Layer_1" data-name="Layer 1" xmlns="http://www.w3.org/2000/svg" viewBox="0 0 1087.59 290.31">
  <defs>
    <style>
      .cls-1 {
        fill: #469ec7;
      }

      .cls-2 {
        fill: #fff;
      }

      .cls-3 {
        fill: #e12426;
      }
    </style>
  </defs>
  <title>logo_hdzog-new</title>
  <g id="HD">
    <g id="Square">
      <path id="_Path_2" data-name=" Path 2" class="cls-1" d="M343.66,284.17S286,291,206.74,290.25c-73.5-.7-143.75-10.5-143.75-10.5C21.24,275.25,6.74,243.5,2.49,202c0,0-2.5-30-2.5-63,0-22.75,5.5-65.75,5.5-65.75,7.75-47.5,34.25-61,81.75-64,0,0,71.5-6.5,136-6C294.74,3.8,364,11,364,11c41,5.25,61.25,32.5,65,74,0,0,3,35.25,3,53.25,0,29.75-3,61.25-3,61.25C424.25,266.75,391.33,279.83,343.66,284.17Z" transform="translate(0.01)"/>
    </g>
    <g id="HD_letters" data-name="HD letters">
      <path id="_Path_3" data-name=" Path 3" class="cls-2" d="M69.5,40.83h61l-12,70.33h79l2.33-13.66h59l-15,99.33s39.67-.12,58.67,0c26.33.17,28.67-27,28.67-27s7.33-46.67,9-60-8-22-18.33-22H201.5l8-47.67,125.33.34s30.67-1.17,56.67,20c17,13.85,10,50.33,10,50.33s-10.22,60.06-12,70.17c-3.62,20.17-7,37-28,50-12.59,7.79-28.33,14.17-51.67,14.17H174.5l14-83.67h-78l-15,83.33H35.16Z" transform="translate(0.01)"/>
    </g>
  </g>
  <g id="ZOG">
    <g id="Z">
      <polygon id="_Path_4" data-name=" Path 4" class="cls-3" points="458.84 21 458.84 112 570.84 112 491.84 203 491.84 275 699.34 275 699.34 203.5 587.59 200 699.84 22 458.84 21"/>
    </g>
    <g id="G">
      <path id="_Path_5" data-name=" Path 5" class="cls-3" d="M1023.33,163.5H966.58v44.25h31.76c-9.85,20.7-24.23,33.75-40.26,33.75-29.69,0-53.75-44.77-53.75-100s24.06-100,53.75-100c28.51,0,51.83,41.3,53.63,93.5h75.87C1083.41,51,1023.71,0,940.07,0c-81.6,0-147.75,64.69-147.75,144.5S858.47,289,940.07,289a149,149,0,0,0,103.76-41.64v27.39h42.73V163.5Z" transform="translate(0.01)"/>
    </g>
    <g id="O">
      <path id="_Compound_Path_" data-name=" Compound Path " class="cls-3" d="M728.16,36.5c-46.76,0-84.67,39.91-84.67,86.67A84.67,84.67,0,0,0,812.82,125c0-.61,0-1.23,0-1.84C812.83,76.41,774.92,36.5,728.16,36.5Zm0,114.67a29,29,0,1,1,29-29,29,29,0,0,1-29,29Z" transform="translate(0.01)"/>
    </g>
  </g>
</svg>
