<?xml version="1.0" encoding="utf-8"?>
<!-- Generator: Adobe Illustrator 21.0.2, SVG Export Plug-In . SVG Version: 6.00 Build 0)  -->
<svg version="1.1" id="Слой_2" xmlns="http://www.w3.org/2000/svg" xmlns:xlink="http://www.w3.org/1999/xlink" x="0px" y="0px"
	 viewBox="0 0 749 102" style="enable-background:new 0 0 749 102;" xml:space="preserve">
<style type="text/css">
	.st0{fill:#FFFFFF;stroke:#000000;stroke-width:3;stroke-linecap:round;stroke-linejoin:round;stroke-miterlimit:10;}
	.st1{fill:#CB2424;stroke:#000000;stroke-width:3;stroke-linecap:round;stroke-linejoin:round;stroke-miterlimit:10;}
	.st2{fill:#FFFFFF;stroke:#000000;stroke-width:3;stroke-linecap:round;stroke-linejoin:round;stroke-miterlimit:35;}
	.st3{fill:#CB2424;stroke:#000000;stroke-width:3;stroke-linecap:round;stroke-linejoin:round;stroke-miterlimit:35;}
</style>
<path class="st0" d="M157.4,18.4c4.5-0.8,10.8-1.4,18.7-1.4c9.2,0,15.9,1.5,20.6,5.5c4.4,3.6,7,9.5,7,16c0,19.3-15.7,23.8-26.6,23.8
	c-1.5,0-2.9-0.1-4-0.2V87h-15.7C157.4,87,157.4,18.4,157.4,18.4z M173.1,49.7c1,0.1,2,0.2,3.6,0.2c7.4,0,11.3-4.4,11.3-10.7
	c0-6.4-3.9-9.9-10.2-9.9c-2.2,0-3.9,0.3-4.8,0.5L173.1,49.7L173.1,49.7z M262.3,87h-16.4l-4-16.2h-16L222.1,87h-16l18.4-69.6h20.1
	L262.3,87z M240,58.8l-3.1-13.9c-0.9-4.1-2.1-10.3-3-14.6h-0.2c-0.9,4.2-2.1,10.6-2.9,14.6l-3.1,13.9C227.7,58.8,240,58.8,240,58.8z
	 M304.1,54.5c4.8,1.9,7.2,6.4,8.8,13c1.8,7.5,3.8,16.7,5.1,19.4h-16.4c-0.9-2-2.7-8.2-4.2-16.4c-1.5-8.5-4-10.7-9.3-10.7H285V87
	h-15.7V18.4c4.9-0.8,11.6-1.4,18.8-1.4c9.3,0,27.4,1,27.4,20.1c0,8.2-5.1,14.6-11.5,17.1v0.3L304.1,54.5z M289.2,48.2
	c6.7,0,10.5-4.1,10.5-9.8c0-7.9-5.9-9.4-9.5-9.4c-2.5,0-4.2,0.2-5.1,0.5v18.8h4.1V48.2z M375.7,87h-16.4l-4-16.2h-16L335.5,87h-16
	l18.4-69.6H358L375.7,87z M353.4,58.8l-3.1-13.9c-0.9-4.1-2.1-10.3-3-14.6h-0.2c-0.9,4.2-2.1,10.6-2.9,14.6l-3.1,13.9L353.4,58.8
	L353.4,58.8z M382.7,18.4C387.5,17.6,394,17,401,17c11.5,0,19.1,2.3,24.9,6.8c6.8,5.5,10.6,14.3,10.6,27.1
	c0,14.8-5.1,23.9-10.9,28.9c-6.2,5.3-15.7,7.8-27.7,7.8c-6.7,0-11.9-0.5-15.2-1L382.7,18.4L382.7,18.4z M398.5,74.9
	c1,0.2,2.5,0.2,3.8,0.2c10.3,0.1,17.7-6.8,17.7-24c0-14.5-6.7-21.7-16.6-21.7c-2.3,0-3.8,0.2-4.9,0.4
	C398.5,29.8,398.5,74.9,398.5,74.9z M444.6,17.4h15.8V87h-15.8C444.6,87,444.6,17.4,444.6,17.4z M506.8,32.6
	c-2.5-1.3-6.7-2.9-12.2-2.9c-6.1,0-9.1,3-9.1,6.4c0,3.9,2.9,5.8,11.3,9.6c11.1,4.9,15.7,11.8,15.7,20.4c0,12.7-9.6,21.7-26.5,21.7
	c-7,0-14-1.8-17.2-3.6l2.7-13.3c3.7,1.9,9.5,3.6,15.1,3.6c6.7,0,9.9-2.9,9.9-7c0-4.2-3.1-6.6-10.3-9.8c-11-5-16.6-11.9-16.6-20.2
	c0-11.8,9-21.1,25.1-21.1c6.7,0,11.8,1.4,15.1,3.1C509.8,19.5,506.8,32.6,506.8,32.6z M559.8,87h-39.5V17.4h38.2v13.2h-22.3v13.9
	h21.1v13h-21.1v16.2h23.7L559.8,87L559.8,87z"/>
<path class="st1" d="M619.7,87h-15.8V58.6h-19.6V87h-15.8V17.4h15.8v26.9h19.6V17.4h15.8V87z M631.1,17.4h15.8V87h-15.8
	C631.1,87,631.1,17.4,631.1,17.4z M697.1,87h-38.9V17.4H674v56.2h23V87H697.1z M743.2,87h-38.9V17.4h15.8v56.2h23V87H743.2z"/>
<path class="st2" d="M4.9,18l14.3-6.2L57.5,71H58l38.3-59.1l14.3,6.2L58,99h-0.5L4.9,18z"/>
<path class="st3" d="M110.7,86.2l-14.3,6.2L58.1,33.2h-0.5L19.2,92.4L4.9,86.2l52.6-81H58L110.7,86.2z"/>
</svg>
