<svg viewBox="0 0 99.07 52.91" xmlns="http://www.w3.org/2000/svg" xmlns:xlink="http://www.w3.org/1999/xlink">
    <linearGradient id="a" gradientTransform="matrix(.63 0 0 -.63 -204.54 -97.68)" gradientUnits="userSpaceOnUse" x1="402.08" x2="402.08" y1="-154.81" y2="-238.81">
        <stop offset="0" stop-color="#ff4e01" />
        <stop offset="1" stop-color="#ff0001" />
    </linearGradient>
    <g class="logotype-line-two">
        <path d="m26.39.32h-5.68v12.54h2.65v-4.56h3.45a4.6 4.6 0 0 0 3.65-1.38 4 4 0 0 0 .9-2.53c.02-2.81-1.48-4.07-4.97-4.07zm-3 2.34h2.53c2.07 0 2.91.49 2.91 1.76 0 1-.82 1.56-2.43 1.56h-3z" transform="translate(-.24)" fill="#fff" />
        <path d="m39.86 0c-4.12 0-6.79 2.59-6.79 6.59s2.6 6.58 6.79 6.58 6.87-2.52 6.87-6.58-2.63-6.59-6.87-6.59zm0 10.83c-2.6 0-4.09-1.54-4.09-4.24s1.49-4.25 4.09-4.25 4.14 1.55 4.14 4.25-1.51 4.24-4.14 4.24z" transform="translate(-.24)" fill="#fff" />
        <path d="m60.54 11.65c-.18-.07-.4-.14-.41-.85v-.53a12.21 12.21 0 0 0 -.06-1.48 2.07 2.07 0 0 0 -1.43-1.85 3.21 3.21 0 0 0 1.75-3.15c0-2.28-1.49-3.47-4.27-3.47h-7v12.54h2.58v-4.86h2.71c2.88 0 2.9.42 3 2.72a12.33 12.33 0 0 0 .13 1.35.87.87 0 0 0 .87.74h2.23v-1.12zm-8.83-9h3.49c1.55 0 2.59.25 2.59 1.5s-.79 1.65-2.71 1.65h-3.36z" transform="translate(-.24)" fill="#fff" />
        <path d="m72.87.32v9.04l-6.68-9.04h-3.4v12.54h2.42v-9.21l6.84 9.21h3.28v-12.54z" fill="#fff" />
    </g>
    <path d="m98.28 21.77a7.41 7.41 0 0 0 -4.46-4.56 16.3 16.3 0 0 0 -5.95-.06c-3.87.63-10.3 3.15-15.87 7.1a64.85 64.85 0 0 0 -7.3 5.68 10.76 10.76 0 0 0 -1.66 2 15 15 0 0 0 .52-3.71 18 18 0 0 0 -1-6.5 7.41 7.41 0 0 0 -4.46-4.57 16.75 16.75 0 0 0 -6-.06c-3.87.63-10.3 3.16-15.84 7.11a66.71 66.71 0 0 0 -7.3 5.68 12.7 12.7 0 0 0 -2.43 3.38 6.16 6.16 0 0 0 -1.05-2.35 5.17 5.17 0 0 0 -5-2c2.08-1.46 6.9-5.59 7.57-8.09a3 3 0 0 0 -.71-2.93 4.31 4.31 0 0 0 -2.51-.89 44.91 44.91 0 0 0 -8.44.34c-4.17.46-9.36 1.45-12.86 3.79a3.57 3.57 0 0 0 -1.95 2.67 3.16 3.16 0 0 0 .2 1.94c2 3 14-3.11 15.29-1.56.28.33 0 .85-.24 1.21a13.32 13.32 0 0 1 -2.83 2.61c-3.41 2.44-6.89 4.58-10.38 6.93-1 .68-2 1.41-1.8 3.16a1.41 1.41 0 0 0 1.37 1.41h.14c2.9 0 10.44-3.72 15-4.34 2-.26 2.38.86 2.14 1.55-.63 1.9-2.44 3.38-4.06 4.5a40.82 40.82 0 0 1 -12.67 5.37c-2 .47-1.07 5.63 1 5.63 3.78 0 9.7-2.52 15-6.38a19.15 19.15 0 0 0 4.82-5 11.16 11.16 0 0 0 5.9 10.86c5 2.77 11.71.58 16.86-2.77s9.63-6 13.46-11.51c-1.26 5-.63 11 5.38 14.28 5 2.77 11.71.59 16.85-2.76 5.29-3.45 9.89-6.21 13.76-12a18.68 18.68 0 0 0 2.53-8.62 18 18 0 0 0 -1.02-6.54zm-41.6 7.38a7 7 0 0 1 -.94 2.4 11.88 11.88 0 0 1 -1.43 1.89 41.79 41.79 0 0 1 -13.65 10.22 9.68 9.68 0 0 1 -4.31 1.14 3.86 3.86 0 0 1 -3.57-2.33 4.06 4.06 0 0 1 .63-3.41 23.82 23.82 0 0 1 3.46-4.38c10.43-11.59 17.23-11 18.45-10 0-.03 1.87 1.23 1.36 4.47zm35.68 0a7.16 7.16 0 0 1 -.92 2.4 12.57 12.57 0 0 1 -1.44 1.89 41.75 41.75 0 0 1 -13.64 10.22 9.55 9.55 0 0 1 -4.36 1.14 3.87 3.87 0 0 1 -3.57-2.33 4.06 4.06 0 0 1 .63-3.41 24.25 24.25 0 0 1 3.46-4.38c10.48-11.61 17.26-11.05 18.48-10.05 0 0 1.86 1.28 1.34 4.52z" fill="#111" transform="translate(-.24)" />
    <path d="m97 20.51a7.45 7.45 0 0 0 -4.47-4.57 16.46 16.46 0 0 0 -5.94 0c-3.87.63-10.3 3.15-15.84 7.1a66.71 66.71 0 0 0 -7.3 5.68 11.1 11.1 0 0 0 -1.65 2 15 15 0 0 0 .54-3.72 18 18 0 0 0 -1-6.5 7.4 7.4 0 0 0 -4.47-4.57 16.46 16.46 0 0 0 -5.94-.06c-3.87.62-10.3 3.13-15.84 7.13a65.5 65.5 0 0 0 -7.3 5.68 12.54 12.54 0 0 0 -2.43 3.32 6.07 6.07 0 0 0 -1.06-2.36 5.18 5.18 0 0 0 -5-2c2.09-1.46 6.91-5.59 7.58-8.09a3 3 0 0 0 -.71-2.93 4.32 4.32 0 0 0 -2.59-.85 45.05 45.05 0 0 0 -8.45.35c-4.16.46-9.35 1.45-12.85 3.79a3.59 3.59 0 0 0 -2 2.67 3.16 3.16 0 0 0 .21 1.94c2 3 14-3.11 15.28-1.57.29.34 0 .86-.23 1.22a13.32 13.32 0 0 1 -2.85 2.55c-3.41 2.44-6.9 4.58-10.39 6.93-1 .68-2 1.41-1.79 3.15a1.41 1.41 0 0 0 1.39 1.43h.14c2.9 0 10.44-3.72 15-4.34 2-.27 2.37.86 2.13 1.55-.63 1.89-2.43 3.38-4 4.5a41.16 41.16 0 0 1 -12.69 5.38c-2 .47-1.07 5.63 1 5.63 3.78 0 9.69-2.52 15-6.38a19.3 19.3 0 0 0 4.82-5 11.16 11.16 0 0 0 5.9 10.86c5 2.77 11.71.58 16.86-2.77s9.64-6.11 13.47-11.56c-1.26 5-.63 11 5.38 14.28 5 2.77 11.71.59 16.85-2.76s9.89-6.21 13.76-12a18.55 18.55 0 0 0 2.48-8.62 18 18 0 0 0 -1-6.49zm-41.6 7.38a7.2 7.2 0 0 1 -.94 2.4 11.94 11.94 0 0 1 -1.46 1.89 42 42 0 0 1 -13.6 10.22 9.71 9.71 0 0 1 -4.31 1.14 3.86 3.86 0 0 1 -3.57-2.33 4.08 4.08 0 0 1 .63-3.42 24.13 24.13 0 0 1 3.45-4.37c10.44-11.59 17.24-11 18.46-10 0-.03 1.87 1.22 1.36 4.47zm35.68 0a7.16 7.16 0 0 1 -.92 2.4 12.57 12.57 0 0 1 -1.44 1.89 42.14 42.14 0 0 1 -13.62 10.22 9.84 9.84 0 0 1 -4.34 1.14 3.87 3.87 0 0 1 -3.57-2.33 4.08 4.08 0 0 1 .63-3.42 24.19 24.19 0 0 1 3.46-4.37c10.44-11.61 17.24-11 18.46-10 0 0 1.86 1.27 1.34 4.52z" fill="url(#a)" transform="translate(-.24)" />
</svg>