<svg xmlns="http://www.w3.org/2000/svg" width="180" height="29"><g fill="#f40"><path d="M1 1h12.8c5 0 9.8 2.3 9.8 8.7 0 6.7-3.8 9.3-9.8 9.3H8v9H1V1zm7 12.6h4.7c2.2 0 3.8-.9 3.8-3.4s-1.6-3.6-3.8-3.6H8v7zM37.2.4c8.5 0 13.4 6.3 13.4 14.1s-4.8 14.1-13.4 14.1-13.4-6.3-13.4-14.1S28.7.4 37.2.4zm0 22.2c4.6 0 6.3-4 6.3-8.1 0-4-1.7-8.1-6.3-8.1s-6.3 4-6.3 8.1c0 4 1.8 8.1 6.3 8.1zM52 1h13.8c4.8 0 9.5 2.2 9.5 7.6 0 2.9-1.4 5.7-4.2 6.8v.1c2.9.7 3.7 3.9 3.9 6.5 0 1 .1 5 1.1 6h-7c-.6-.9-.7-3.6-.8-4.3-.2-2.7-.6-5.5-3.9-5.5h-5.3V28h-7L52 1zm7.1 11.7H65c2.1 0 3.3-1.1 3.3-3.2 0-2-1.6-2.9-3.6-2.9h-5.6v6.1zM77.1 1h7.2l9.4 16.6h.1V1h6.6v27h-7.2l-9.4-16.8h-.1V28h-6.6V1z"/></g><g fill="#fff"><path d="M103 1h13.8c4.8 0 9.5 2.2 9.5 7.6 0 2.9-1.4 5.7-4.2 6.8v.1c2.9.7 3.7 3.9 3.9 6.5.1 1.1.2 5.1 1.1 6.1h-7c-.6-.9-.7-3.6-.8-4.3-.2-2.7-.6-5.5-3.9-5.5h-5.3V28h-7L103 1zm7.1 11.7h5.9c2.1 0 3.3-1.1 3.3-3.2 0-2-1.6-2.9-3.6-2.9h-5.6v6.1zM141.1.4c8.5 0 13.4 6.3 13.4 14.1s-4.8 14.1-13.4 14.1-13.4-6.3-13.4-14.1S132.6.4 141.1.4zm0 22.2c4.6 0 6.3-4 6.3-8.1 0-4-1.7-8.1-6.3-8.1s-6.3 4-6.3 8.1c0 4 1.8 8.1 6.3 8.1z"/><path d="M160.4 13.8L151.5 1h8.3l4.5 8.4 4.8-8.4h8l-8.7 12.8L178 28h-8.5l-5.1-9-5.5 9h-8.1l9.6-14.2z"/></g></svg>