<svg xmlns="http://www.w3.org/2000/svg" viewBox="0 0 277.44 36.3"><defs><style>.a{fill:#fff;}.b{fill:#ec2024;}</style></defs><title>porndoe</title><path class="a" d="M60.74,47.41A14.64,14.64,0,0,1,45.84,33c0-.23,0-.45,0-.67A14.92,14.92,0,0,1,60.46,17.13h.38a14.64,14.64,0,0,1,14.87,14.4q0,.33,0,.66A14.91,14.91,0,0,1,61.09,47.4Zm0-26.41c-6.08,0-10.66,4.81-10.66,11.19S54.7,43.54,60.84,43.54s10.65-4.81,10.65-11.19S66.84,21,60.74,21Z" transform="translate(-7.84 -11.11)"/><polygon class="a" points="149.08 35.81 131.42 13.39 131.42 35.81 127.39 35.81 127.39 6.51 131.06 6.51 148.27 28.4 148.27 6.51 152.31 6.51 152.31 35.81 149.08 35.81"/><path class="a" d="M179.43,46.92V17.62h10.31c9,0,15.55,6.13,15.55,14.57s-6.54,14.73-15.55,14.73Zm10.31-3.87c6.66,0,11.31-4.4,11.31-10.7s-4.65-10.86-11.31-10.86h-6.19V43.05Z" transform="translate(-7.84 -11.11)"/><path class="a" d="M7.84,46.92V33.09H18.52c4.45,0,7.32-2.29,7.32-5.8,0-3.71-2.62-5.79-7.17-5.79H7.84V17.62H18.92c6.73,0,11.08,3.71,11.08,9.46,0,6.81-5.83,9.82-11.61,9.82H12v10Z" transform="translate(-7.84 -11.11)"/><polygon class="a" points="255.92 35.72 255.92 6.58 277.24 6.58 277.24 10.39 260.02 10.39 260.02 19.12 275.43 19.12 275.43 22.93 260.02 22.93 260.02 31.91 277.44 31.91 277.44 35.72 255.92 35.72"/><path class="a" d="M113.4,46.83l-8.18-11H97.84v11h-4.1V17.69h12.59a11.62,11.62,0,0,1,8.35,3A8.24,8.24,0,0,1,117,26.57c0,4.38-2.72,7.53-7.32,8.61l8.79,11.69Zm-7.35-14.74c4.13,0,6.8-2.1,6.8-5.36s-2.46-5.19-6.76-5.19H97.84V32.09Z" transform="translate(-7.84 -11.11)"/><path class="b" d="M233.43,47.41A14.64,14.64,0,0,1,218.53,33c0-.23,0-.45,0-.67a15.57,15.57,0,0,1,3.08-9.4c-2.24-5.12.36-9.88,1.22-11.23.29-.46.38-.61.66-.61h.11l.11.06c.27.15.25.33.2.82a21.3,21.3,0,0,0-.16,2.65c.1,2.85,1.36,4,2.23,4.44a15.51,15.51,0,0,1,15.19.07c.93-.42,2.29-1.54,2.39-4.51A21.46,21.46,0,0,0,243.4,12c-.05-.48-.07-.66.2-.81l.1-.06h.14c.28,0,.38.15.74.73.86,1.39,3.43,6.26,1,11.38a15.16,15.16,0,0,1,2.82,9,14.92,14.92,0,0,1-14.63,15.19Zm0-26.41c-6.08,0-10.66,4.81-10.66,11.19s4.62,11.35,10.74,11.35,10.66-4.81,10.66-11.19S239.55,21,233.43,21Z" transform="translate(-7.84 -11.11)"/></svg>