<?xml version="1.0" encoding="utf-8"?>
<!-- Generator: Adobe Illustrator 18.0.0, SVG Export Plug-In . SVG Version: 6.00 Build 0)  -->
<!DOCTYPE svg PUBLIC "-//W3C//DTD SVG 1.1//EN" "http://www.w3.org/Graphics/SVG/1.1/DTD/svg11.dtd">
<svg version="1.1" xmlns="http://www.w3.org/2000/svg" xmlns:xlink="http://www.w3.org/1999/xlink" x="0px" y="0px"
	 viewBox="0 0 252.8 40.6" enable-background="new 0 0 252.8 40.6" xml:space="preserve">

<g id="Layer_1">
	
	<g>
		<path fill="#FFFFFF" d="M11.8,25.2C10.1,24.6,8.5,24,7,23.4c-1.4-0.6-2.7-1.4-3.7-2.3c-1-0.9-1.9-1.9-2.4-3.2
			C0.3,16.8,0,15.3,0,13.5c0-3.4,1.3-6.1,3.9-8.2c2.6-2,6.3-3.1,11-3.1c1.7,0,3.3,0.1,4.8,0.4c1.5,0.2,2.7,0.6,3.8,1.1
			c1.1,0.5,1.9,1.1,2.5,1.9c0.6,0.8,0.9,1.7,0.9,2.7s-0.2,1.9-0.7,2.7s-1.1,1.4-1.7,1.9c-0.9-0.6-2.1-1-3.5-1.5
			c-1.5-0.4-3.1-0.6-4.9-0.6c-1.8,0-3.1,0.3-4,0.8s-1.3,1.1-1.3,1.9c0,0.6,0.3,1.1,0.8,1.5c0.5,0.4,1.3,0.7,2.3,1.1l3.2,1
			c3.8,1.2,6.6,2.7,8.7,4.6c2,1.9,3,4.4,3,7.6c0,3.4-1.3,6.2-4,8.3c-2.7,2.1-6.6,3.2-11.8,3.2c-1.8,0-3.6-0.2-5.1-0.5
			c-1.6-0.3-3-0.7-4.1-1.3c-1.2-0.6-2.1-1.3-2.8-2.2c-0.7-0.9-1-1.8-1-3c0-1.2,0.3-2.1,1-3c0.7-0.8,1.4-1.4,2.2-1.9
			c1.1,0.9,2.5,1.6,4.1,2.3s3.4,1,5.3,1c2,0,3.3-0.3,4.1-0.9c0.8-0.6,1.2-1.3,1.2-2.1s-0.3-1.4-1-1.8c-0.6-0.4-1.5-0.8-2.7-1.2
			L11.8,25.2z"/>
		<path fill="#FFFFFF" d="M61.1,39.6c-0.4,0.1-1,0.2-1.9,0.4c-0.9,0.1-1.8,0.2-2.7,0.2c-0.9,0-1.7-0.1-2.4-0.2
			c-0.7-0.1-1.3-0.4-1.8-0.7s-0.9-0.8-1.1-1.5c-0.3-0.6-0.4-1.4-0.4-2.4V22c0-1.6-0.4-2.8-1.2-3.5c-0.8-0.7-1.8-1-3-1
			c-0.8,0-1.6,0.1-2.3,0.3c-0.7,0.2-1.3,0.4-1.7,0.7v21c-0.4,0.1-1,0.2-1.9,0.4c-0.9,0.1-1.8,0.2-2.7,0.2c-0.9,0-1.7-0.1-2.4-0.2
			c-0.7-0.1-1.3-0.4-1.8-0.7c-0.5-0.4-0.9-0.8-1.1-1.5c-0.3-0.6-0.4-1.4-0.4-2.4V0.5c0.4-0.1,1.1-0.2,1.9-0.3C35.2,0.1,36.1,0,37,0
			c0.9,0,1.7,0.1,2.4,0.2c0.7,0.1,1.3,0.4,1.8,0.7c0.5,0.4,0.8,0.8,1.1,1.5c0.3,0.6,0.4,1.4,0.4,2.4v5.9c0.5-0.2,1.3-0.4,2.4-0.7
			c1.1-0.3,2.2-0.4,3.5-0.4c4,0,7.1,1,9.3,3c2.2,2,3.3,4.9,3.3,8.8V39.6z"/>
		<path fill="#FFFFFF" d="M81.3,40.6c-2.4,0-4.6-0.3-6.6-1c-2-0.7-3.8-1.6-5.3-3s-2.7-3-3.5-5c-0.9-2-1.3-4.3-1.3-7
			c0-2.6,0.4-4.9,1.3-6.8c0.9-1.9,2-3.5,3.4-4.7c1.4-1.2,3-2.1,4.8-2.7c1.8-0.6,3.6-0.9,5.5-0.9c2.1,0,4.1,0.3,5.8,1
			c1.7,0.6,3.2,1.5,4.5,2.6c1.3,1.1,2.2,2.5,2.9,4c0.7,1.6,1.1,3.3,1.1,5.1c0,1.4-0.4,2.4-1.1,3.1c-0.8,0.7-1.8,1.2-3.2,1.4L74.8,29
			c0.4,1.3,1.3,2.3,2.7,3c1.4,0.7,2.9,1,4.7,1c1.6,0,3.2-0.2,4.6-0.6c1.5-0.4,2.6-0.9,3.6-1.5c0.6,0.4,1.2,1,1.6,1.7
			c0.4,0.7,0.7,1.5,0.7,2.3c0,1.8-0.8,3.1-2.5,4c-1.3,0.7-2.7,1.1-4.3,1.4C84.2,40.5,82.7,40.6,81.3,40.6z M79.6,17
			c-1,0-1.8,0.2-2.5,0.5c-0.7,0.3-1.3,0.7-1.7,1.2c-0.4,0.5-0.8,1.1-1,1.7c-0.2,0.6-0.4,1.3-0.4,1.9l10.3-1.7
			c-0.1-0.8-0.6-1.6-1.3-2.4C82.2,17.4,81.1,17,79.6,17z"/>
		<path fill="#FFFFFF" d="M111.3,9.6c1.6,0,3.2,0.2,4.8,0.7c1.6,0.5,2.9,1.2,4.1,2.1c1.2-0.8,2.5-1.5,4-2c1.5-0.5,3.3-0.8,5.4-0.8
			c1.5,0,3,0.2,4.5,0.6c1.5,0.4,2.8,1,3.9,1.9c1.1,0.9,2,2,2.7,3.4c0.7,1.4,1,3.2,1,5.2v18.9c-0.4,0.1-1,0.2-1.9,0.4
			c-0.9,0.1-1.8,0.2-2.7,0.2c-0.9,0-1.7-0.1-2.4-0.2c-0.7-0.1-1.3-0.4-1.8-0.7s-0.9-0.8-1.1-1.5c-0.3-0.6-0.4-1.4-0.4-2.4V21
			c0-1.2-0.3-2.1-1-2.6c-0.7-0.5-1.6-0.8-2.8-0.8c-0.6,0-1.2,0.1-1.8,0.4c-0.6,0.3-1.1,0.5-1.4,0.8c0,0.2,0.1,0.3,0.1,0.5
			c0,0.1,0,0.3,0,0.4v20c-0.4,0.1-1.1,0.2-2,0.4c-0.9,0.1-1.7,0.2-2.6,0.2c-0.9,0-1.7-0.1-2.4-0.2c-0.7-0.1-1.3-0.4-1.8-0.7
			s-0.9-0.8-1.1-1.5c-0.3-0.6-0.4-1.4-0.4-2.4V21c0-1.2-0.4-2.1-1.1-2.6c-0.7-0.5-1.6-0.8-2.7-0.8c-0.7,0-1.3,0.1-1.9,0.3
			c-0.5,0.2-1,0.4-1.3,0.6v21.1c-0.4,0.1-1,0.2-1.9,0.4c-0.9,0.1-1.8,0.2-2.7,0.2c-0.9,0-1.7-0.1-2.4-0.2c-0.7-0.1-1.3-0.4-1.8-0.7
			s-0.9-0.8-1.1-1.5c-0.3-0.6-0.4-1.4-0.4-2.4V17.2c0-1.1,0.2-1.9,0.7-2.6c0.5-0.6,1.1-1.2,1.9-1.8c1.4-1,3-1.7,5.1-2.3
			C107,9.9,109.1,9.6,111.3,9.6z"/>
		<path fill="#FFFFFF" d="M158.6,9.6c2.2,0,4.1,0.2,5.9,0.7c1.8,0.4,3.3,1.1,4.6,2c1.3,0.9,2.2,2,2.9,3.4c0.7,1.4,1,3,1,4.9V34
			c0,1-0.3,1.9-0.9,2.5c-0.6,0.7-1.3,1.2-2.1,1.7c-2.6,1.6-6.3,2.3-11,2.3c-2.1,0-4-0.2-5.7-0.6c-1.7-0.4-3.2-1-4.4-1.8
			c-1.2-0.8-2.2-1.8-2.8-3.1c-0.7-1.2-1-2.7-1-4.3c0-2.8,0.8-4.9,2.5-6.4c1.6-1.5,4.2-2.4,7.6-2.8l7.9-0.8v-0.4c0-1.2-0.5-2-1.5-2.5
			c-1-0.5-2.5-0.8-4.4-0.8c-1.5,0-3,0.2-4.4,0.5c-1.4,0.3-2.7,0.7-3.9,1.2c-0.5-0.4-1-0.9-1.3-1.7c-0.4-0.7-0.5-1.5-0.5-2.3
			c0-1,0.2-1.9,0.8-2.5c0.5-0.6,1.3-1.1,2.3-1.6c1.2-0.4,2.5-0.8,4.1-1C155.7,9.7,157.2,9.6,158.6,9.6z M159.1,33.2
			c0.7,0,1.4-0.1,2.3-0.2c0.8-0.1,1.4-0.3,1.8-0.6v-4.8l-4.3,0.4c-1.1,0.1-2,0.3-2.8,0.7c-0.7,0.4-1.1,1-1.1,1.8
			c0,0.8,0.3,1.5,0.9,1.9C156.5,32.9,157.6,33.2,159.1,33.2z"/>
		<path fill="#FFFFFF" d="M188.1,39.6c-0.4,0.1-1.1,0.2-2,0.3s-1.7,0.2-2.6,0.2s-1.7-0.1-2.4-0.2c-0.7-0.1-1.3-0.4-1.8-0.7
			s-0.9-0.8-1.1-1.5s-0.4-1.4-0.4-2.4V0.5c0.4-0.1,1.1-0.2,2-0.3c0.9-0.1,1.7-0.2,2.6-0.2s1.7,0.1,2.4,0.2c0.7,0.1,1.3,0.4,1.8,0.7
			c0.5,0.4,0.8,0.8,1.1,1.5c0.3,0.6,0.4,1.4,0.4,2.4V39.6z"/>
		<path fill="#FFFFFF" d="M208.4,40.6c-2.4,0-4.6-0.3-6.6-1c-2-0.7-3.8-1.6-5.3-3s-2.7-3-3.5-5c-0.9-2-1.3-4.3-1.3-7
			c0-2.6,0.4-4.9,1.3-6.8c0.9-1.9,2-3.5,3.4-4.7c1.4-1.2,3-2.1,4.8-2.7c1.8-0.6,3.6-0.9,5.5-0.9c2.1,0,4,0.3,5.8,1
			c1.7,0.6,3.2,1.5,4.5,2.6c1.3,1.1,2.2,2.5,2.9,4c0.7,1.6,1,3.3,1,5.1c0,1.4-0.4,2.4-1.1,3.1c-0.8,0.7-1.8,1.2-3.2,1.4L201.9,29
			c0.4,1.3,1.3,2.3,2.7,3c1.4,0.7,2.9,1,4.7,1c1.6,0,3.2-0.2,4.7-0.6c1.5-0.4,2.6-0.9,3.6-1.5c0.6,0.4,1.2,1,1.6,1.7
			s0.7,1.5,0.7,2.3c0,1.8-0.8,3.1-2.5,4c-1.3,0.7-2.7,1.1-4.3,1.4C211.3,40.5,209.8,40.6,208.4,40.6z M206.8,17
			c-1,0-1.8,0.2-2.5,0.5c-0.7,0.3-1.3,0.7-1.7,1.2c-0.4,0.5-0.8,1.1-1,1.7c-0.2,0.6-0.4,1.3-0.4,1.9l10.3-1.7
			c-0.1-0.8-0.6-1.6-1.3-2.4C209.4,17.4,208.2,17,206.8,17z"/>
		<path fill="#ED278B" d="M239.5,12.7h-14.8c-0.3-0.4-0.5-1-0.8-1.8c-0.2-0.8-0.4-1.6-0.4-2.4c0-1.6,0.3-2.7,1-3.4
			c0.7-0.7,1.6-1,2.7-1h22.4c1.8,1.4,2.6,3.4,2.6,5.8c0,1-0.2,2-0.7,3c-0.5,1-1.1,1.9-1.8,2.8l-13.6,16.4h15.4
			c0.3,0.4,0.5,1,0.8,1.8c0.2,0.8,0.4,1.6,0.4,2.4c0,1.6-0.4,2.7-1,3.4c-0.7,0.7-1.6,1-2.7,1h-23.6c-0.7-0.6-1.2-1.3-1.7-2.3
			c-0.4-1-0.7-2.1-0.7-3.3c0-1,0.3-2,0.8-3.1c0.5-1,1.1-2,1.9-2.9L239.5,12.7z"/>
	</g>
</g>
<g id="Layer_3">
</g>
</svg>
