<?xml version="1.0" encoding="utf-8"?>
<!-- Generator: Adobe Illustrator 17.0.1, SVG Export Plug-In . SVG Version: 6.00 Build 0)  -->
<!DOCTYPE svg PUBLIC "-//W3C//DTD SVG 1.1//EN" "http://www.w3.org/Graphics/SVG/1.1/DTD/svg11.dtd" [
	<!ENTITY ns_extend "http://ns.adobe.com/Extensibility/1.0/">
	<!ENTITY ns_ai "http://ns.adobe.com/AdobeIllustrator/10.0/">
	<!ENTITY ns_graphs "http://ns.adobe.com/Graphs/1.0/">
	<!ENTITY ns_vars "http://ns.adobe.com/Variables/1.0/">
	<!ENTITY ns_imrep "http://ns.adobe.com/ImageReplacement/1.0/">
	<!ENTITY ns_sfw "http://ns.adobe.com/SaveForWeb/1.0/">
	<!ENTITY ns_custom "http://ns.adobe.com/GenericCustomNamespace/1.0/">
	<!ENTITY ns_adobe_xpath "http://ns.adobe.com/XPath/1.0/">
]>
<svg version="1.1" id="Layer_1" xmlns:x="&ns_extend;" xmlns:i="&ns_ai;" xmlns:graph="&ns_graphs;"
	 xmlns="http://www.w3.org/2000/svg" xmlns:xlink="http://www.w3.org/1999/xlink" x="0px" y="0px" width="206px" height="45px"
	 viewBox="0 0 206 45" enable-background="new 0 0 206 45" xml:space="preserve">
<metadata>
	<sfw  xmlns="&ns_sfw;">
		<slices></slices>
		<sliceSourceBounds  width="205.851" height="44.168" x="-0.23" y="-45" bottomLeftOrigin="true"></sliceSourceBounds>
	</sfw>
</metadata>
<g id="tube">
	<g>
		<path fill-rule="evenodd" clip-rule="evenodd" d="M136.558,8.756h6.13v18.347h4.068V8.756h6.116V4.165h-16.313V8.756z
			 M165.872,17.937c0,0.629-0.107,1.221-0.32,1.776c-0.213,0.555-0.505,1.04-0.875,1.456c-0.37,0.416-0.804,0.744-1.301,0.984
			c-0.498,0.24-1.026,0.36-1.586,0.36c-0.56,0-1.088-0.12-1.586-0.36c-0.498-0.24-0.932-0.568-1.301-0.984
			c-0.37-0.416-0.661-0.901-0.875-1.456c-0.213-0.554-0.32-1.146-0.32-1.776V4.165h-4.068v13.772c0,1.269,0.213,2.461,0.64,3.575
			c0.427,1.114,1.007,2.085,1.742,2.911c0.735,0.827,1.598,1.48,2.589,1.959c0.991,0.48,2.05,0.72,3.179,0.72
			c1.128,0,2.188-0.24,3.179-0.72c0.991-0.48,1.856-1.133,2.596-1.959c0.74-0.826,1.323-1.797,1.749-2.911
			c0.427-1.114,0.64-2.306,0.64-3.575V4.165h-4.082V17.937z M187.363,14.786c0.265-0.341,0.493-0.72,0.683-1.136
			c0.19-0.416,0.336-0.848,0.441-1.296c0.104-0.448,0.156-0.885,0.156-1.312c0-0.949-0.161-1.84-0.484-2.671
			c-0.322-0.832-0.761-1.56-1.316-2.183s-1.202-1.117-1.941-1.48c-0.74-0.362-1.531-0.544-2.375-0.544H172.33v22.938h10.198
			c0.844,0,1.636-0.181,2.375-0.544c0.74-0.362,1.387-0.856,1.941-1.48s0.993-1.352,1.316-2.183
			c0.322-0.832,0.484-1.722,0.484-2.671c0-0.426-0.05-0.866-0.149-1.32c-0.1-0.453-0.244-0.888-0.434-1.304
			c-0.19-0.416-0.417-0.797-0.683-1.144c-0.266-0.346-0.564-0.621-0.896-0.824C186.803,15.41,187.097,15.128,187.363,14.786z
			 M184.405,21.121c-0.104,0.277-0.249,0.52-0.434,0.728s-0.401,0.371-0.647,0.488c-0.247,0.117-0.512,0.176-0.796,0.176h-6.116
			v-4.575h6.116c0.284,0,0.55,0.059,0.796,0.176c0.246,0.117,0.462,0.28,0.647,0.488s0.329,0.451,0.434,0.728
			c0.104,0.277,0.156,0.576,0.156,0.896C184.561,20.545,184.509,20.843,184.405,21.121z M184.405,11.947
			c-0.104,0.283-0.249,0.528-0.434,0.736s-0.401,0.371-0.647,0.488c-0.247,0.117-0.512,0.176-0.796,0.176h-6.116V8.756h6.116
			c0.284,0,0.55,0.059,0.796,0.176c0.246,0.117,0.462,0.28,0.647,0.488s0.329,0.451,0.434,0.728
			c0.104,0.277,0.156,0.576,0.156,0.896C184.561,11.363,184.509,11.664,184.405,11.947z M204.545,8.756V4.165h-13.981v22.938h13.981
			v-4.591h-9.899v-4.575h6.699v-4.591h-6.699V8.756H204.545z"/>
	</g>
</g>
<g id="Tropic">
	<g>
		<linearGradient id="SVGID_1_" gradientUnits="userSpaceOnUse" x1="-0.23" y1="21.4396" x2="90.527" y2="21.4396">
			<stop  offset="0" style="stop-color:#06DAF9"/>
			<stop  offset="1" style="stop-color:#49A6FD"/>
		</linearGradient>
		<path fill-rule="evenodd" clip-rule="evenodd" fill="url(#SVGID_1_)" d="M28.211,10.263c0.516,0.013,0.944,0.007,1.282-0.019
			c0.338-0.025,0.536-0.069,0.594-0.132c0-0.076,0.031-0.208,0.095-0.396c0.063-0.189,0.135-0.402,0.215-0.642
			c0.08-0.239,0.152-0.487,0.215-0.745c0.063-0.258,0.095-0.506,0.095-0.745c0-0.239-0.046-0.45-0.138-0.632
			c-0.092-0.182-0.253-0.318-0.482-0.406c-0.241,0-0.602-0.006-1.084-0.019c-0.482-0.012-1.036-0.031-1.661-0.057
			c-0.626-0.025-1.299-0.05-2.022-0.076c-0.723-0.025-1.446-0.057-2.169-0.094c-1.687-0.076-3.528-0.163-5.525-0.264
			c-0.092-0.012-0.172-0.076-0.241-0.189c-0.058-0.101-0.109-0.252-0.155-0.453c-0.046-0.201-0.069-0.497-0.069-0.887
			c-0.115-0.378-0.218-0.802-0.31-1.274C16.759,2.761,16.61,2.33,16.404,1.94c-0.207-0.39-0.499-0.692-0.878-0.906
			c-0.379-0.214-0.918-0.258-1.618-0.132c-0.08,0.352-0.149,0.623-0.206,0.812c-0.058,0.189-0.103,0.346-0.138,0.472
			c-0.034,0.126-0.06,0.236-0.077,0.33c-0.017,0.094-0.032,0.217-0.043,0.368c-0.012,0.151-0.017,0.352-0.017,0.604v1.51h-0.465
			c-0.172,0-0.468-0.006-0.886-0.019c-0.419-0.012-0.907-0.031-1.463-0.057c-0.557-0.025-1.162-0.05-1.816-0.076
			C8.142,4.821,7.488,4.79,6.834,4.752C5.285,4.689,3.592,4.608,1.757,4.507C1.16,4.62,0.689,4.809,0.345,5.073
			C0.196,5.186,0.07,5.322-0.034,5.479C-0.137,5.636-0.2,5.815-0.223,6.017c-0.023,0.201,0.009,0.434,0.095,0.698
			c0.086,0.264,0.244,0.554,0.473,0.868c0.39,0.252,0.689,0.453,0.895,0.604c0.207,0.151,0.361,0.267,0.465,0.349
			c0.103,0.082,0.178,0.142,0.224,0.179c0.046,0.038,0.109,0.073,0.189,0.104c0.08,0.032,0.195,0.066,0.344,0.104
			c0.149,0.038,0.379,0.101,0.688,0.189h9.811c0.172,0.038,0.327,0.126,0.465,0.264c0.126,0.139,0.238,0.34,0.336,0.604
			c0.097,0.264,0.146,0.654,0.146,1.17l1.394,16.891c-0.069,0.667-0.052,1.246,0.052,1.736c0.046,0.214,0.109,0.415,0.189,0.604
			c0.08,0.189,0.192,0.349,0.336,0.481c0.143,0.132,0.318,0.224,0.525,0.274c0.207,0.05,0.459,0.044,0.757-0.019
			c0.344,0,0.611-0.116,0.8-0.349c0.189-0.233,0.327-0.525,0.413-0.878c0.086-0.352,0.138-0.739,0.155-1.161
			c0.017-0.421,0.026-0.821,0.026-1.198c-0.058-0.126-0.121-0.465-0.189-1.019c-0.069-0.554-0.141-1.239-0.215-2.057
			c-0.075-0.818-0.152-1.727-0.232-2.727c-0.08-1-0.155-2.01-0.224-3.029c-0.172-2.403-0.35-5.089-0.534-8.058
			c-0.08-0.189-0.098-0.359-0.052-0.51c0.023-0.126,0.106-0.242,0.25-0.349c0.143-0.107,0.393-0.16,0.749-0.16
			c0.172,0,0.47,0.016,0.895,0.047C19.427,9.7,19.926,9.734,20.5,9.772c0.574,0.038,1.202,0.085,1.885,0.142
			c0.683,0.057,1.368,0.107,2.057,0.151c0.688,0.044,1.36,0.085,2.014,0.123C27.11,10.225,27.695,10.25,28.211,10.263z
			 M38.374,19.227c-0.115-0.277-0.41-0.5-0.886-0.67c-0.476-0.17-1.036-0.311-1.678-0.425c-0.425-0.076-0.907-0.003-1.446,0.217
			c-0.54,0.22-1.09,0.51-1.652,0.868c-0.562,0.359-1.119,0.758-1.67,1.198c-0.551,0.441-1.056,0.843-1.515,1.208
			c-0.459,0.365-0.852,0.664-1.179,0.896c-0.327,0.233-0.542,0.324-0.645,0.274c-0.172-0.076-0.275-0.236-0.31-0.481
			c-0.034-0.245-0.066-0.531-0.095-0.859c-0.029-0.327-0.083-0.679-0.164-1.057c-0.08-0.377-0.247-0.736-0.499-1.076
			c-0.264-0.327-0.534-0.51-0.809-0.547c-0.275-0.038-0.519-0.009-0.732,0.085c-0.212,0.094-0.376,0.217-0.491,0.368
			c-0.115,0.151-0.138,0.252-0.069,0.302c0.034,0.038,0.063,0.198,0.086,0.481c0.023,0.283,0.046,0.645,0.069,1.085
			c0.023,0.441,0.043,0.941,0.06,1.5c0.017,0.56,0.031,1.129,0.043,1.708c0.034,1.359,0.057,2.894,0.069,4.605
			c0.516,1.007,1.004,1.762,1.463,2.265c0.195,0.214,0.39,0.381,0.585,0.5c0.195,0.119,0.379,0.157,0.551,0.113
			c0.172-0.044,0.33-0.198,0.473-0.462c0.143-0.264,0.255-0.679,0.336-1.246c0.172-1.095,0.488-2.032,0.947-2.812
			c0.459-0.78,1.027-1.478,1.704-2.095c0.677-0.616,1.451-1.189,2.324-1.717c0.872-0.528,1.801-1.095,2.788-1.698
			c0.987-0.591,1.652-1.091,1.997-1.5C38.374,19.847,38.488,19.504,38.374,19.227z M52.541,20.473
			c-0.299-0.654-0.671-1.227-1.119-1.717c-0.333-0.365-0.755-0.686-1.265-0.963c-0.511-0.277-1.073-0.5-1.687-0.67
			c-0.614-0.17-1.262-0.277-1.945-0.321c-0.683-0.044-1.368-0.003-2.057,0.123c-0.688,0.126-1.357,0.34-2.005,0.642
			c-0.648,0.302-1.245,0.711-1.79,1.227c-0.545,0.516-1.018,1.145-1.42,1.887c-0.402,0.742-0.694,1.617-0.878,2.623
			c0.057,0.944,0.178,1.831,0.361,2.661c0.08,0.352,0.175,0.711,0.284,1.076c0.109,0.365,0.241,0.714,0.396,1.047
			c0.155,0.333,0.333,0.639,0.534,0.915c0.201,0.277,0.433,0.497,0.697,0.661c0.333,0.226,0.68,0.472,1.041,0.736
			s0.746,0.513,1.153,0.745c0.407,0.233,0.846,0.431,1.317,0.594c0.47,0.163,0.984,0.248,1.54,0.255
			c0.556,0.006,1.162-0.082,1.816-0.264s1.365-0.5,2.134-0.953c0.769-0.465,1.408-1.016,1.919-1.651
			c0.51-0.635,0.906-1.318,1.188-2.048c0.281-0.73,0.453-1.482,0.516-2.255c0.063-0.774,0.031-1.529-0.095-2.265
			C53.051,21.822,52.839,21.127,52.541,20.473z M49.89,25.342c-0.299,0.264-0.697,0.525-1.196,0.783
			c-0.499,0.258-1.076,0.503-1.73,0.736c-0.654,0.233-1.331,0.412-2.031,0.538c-0.356,0.063-0.688,0.079-0.998,0.047
			c-0.31-0.031-0.6-0.101-0.869-0.208c-0.27-0.107-0.522-0.236-0.757-0.387c-0.235-0.151-0.445-0.314-0.628-0.491
			c-0.448-0.403-0.832-0.881-1.153-1.434c-0.069-0.101-0.098-0.258-0.086-0.472c0.011-0.176,0.066-0.425,0.164-0.745
			c0.097-0.321,0.29-0.733,0.577-1.236c0.183-0.34,0.442-0.645,0.775-0.915c0.333-0.27,0.714-0.51,1.145-0.717
			c0.43-0.208,0.883-0.384,1.36-0.528c0.476-0.144,0.952-0.264,1.429-0.359c0.476-0.094,0.926-0.163,1.351-0.208
			c0.424-0.044,0.797-0.066,1.119-0.066c0.321,0,0.591,0.104,0.809,0.311c0.218,0.208,0.399,0.472,0.542,0.793
			c0.143,0.321,0.252,0.673,0.327,1.057c0.074,0.384,0.132,0.761,0.172,1.132c0.04,0.371,0.063,0.705,0.069,1
			c0.006,0.296,0.014,0.513,0.026,0.651C50.326,24.839,50.188,25.078,49.89,25.342z M64.935,18.812
			c-0.436-0.453-1.039-0.717-1.807-0.793c-0.941-0.113-1.773-0.097-2.496,0.047c-0.723,0.145-1.354,0.381-1.893,0.708
			c-0.54,0.327-1.001,0.717-1.386,1.17c-0.385,0.453-0.706,0.925-0.964,1.415c-0.258,0.491-0.465,0.985-0.62,1.482
			c-0.155,0.497-0.278,0.944-0.37,1.34c-0.092,0.396-0.158,0.727-0.198,0.991c-0.04,0.264-0.077,0.415-0.112,0.453
			c-0.138,0.151-0.261,0.352-0.37,0.604c-0.109,0.252-0.198,0.51-0.267,0.774c-0.069,0.264-0.12,0.522-0.155,0.774
			c-0.034,0.252-0.052,0.453-0.052,0.604v12.116c0.207,0.453,0.399,0.789,0.577,1.01c0.178,0.22,0.353,0.368,0.525,0.443
			c0.172,0.076,0.35,0.107,0.534,0.094c0.183-0.013,0.379-0.019,0.585-0.019c0.172-0.038,0.324-0.214,0.456-0.528
			c0.132-0.315,0.247-0.717,0.344-1.208c0.097-0.491,0.181-1.041,0.25-1.651c0.069-0.61,0.126-1.236,0.172-1.878
			c0.103-1.485,0.161-3.164,0.172-5.039h1.102c0.7,0.113,1.377,0.012,2.031-0.302c0.654-0.314,1.265-0.771,1.833-1.368
			c0.568-0.597,1.076-1.299,1.523-2.104c0.447-0.805,0.809-1.642,1.084-2.51c0.275-0.868,0.453-1.73,0.534-2.586
			c0.08-0.855,0.037-1.629-0.129-2.321C65.672,19.838,65.371,19.265,64.935,18.812z M63.42,23.19
			c-0.275,0.604-0.582,1.23-0.921,1.878c-0.339,0.648-0.68,1.23-1.024,1.746c-0.344,0.516-0.686,0.925-1.024,1.227
			c-0.339,0.302-0.645,0.415-0.921,0.34c-0.287,0-0.519,0.016-0.697,0.047c-0.178,0.032-0.318,0.066-0.422,0.104
			c-0.126,0.05-0.218,0.101-0.275,0.151v-4.567c0-0.151,0.069-0.352,0.206-0.604c0.138-0.252,0.336-0.522,0.594-0.812
			c0.258-0.289,0.577-0.579,0.955-0.868c0.379-0.289,0.809-0.547,1.291-0.774c0.482-0.151,0.924-0.239,1.325-0.264
			c0.402-0.025,0.717,0.038,0.947,0.189c0.229,0.151,0.35,0.406,0.361,0.764C63.827,22.105,63.695,22.587,63.42,23.19z
			 M68.017,6.186c0.08,0.365,0.155,0.711,0.224,1.038c0.057,0.277,0.109,0.551,0.155,0.821c0.046,0.271,0.069,0.469,0.069,0.594
			c0.115,0,0.293,0.047,0.534,0.142s0.488,0.17,0.74,0.226c0.252,0.057,0.473,0.073,0.663,0.047
			c0.189-0.025,0.284-0.163,0.284-0.415c0-0.239-0.003-0.535-0.009-0.887c-0.006-0.352-0.023-0.711-0.052-1.076
			c-0.029-0.365-0.072-0.72-0.129-1.066c-0.058-0.346-0.144-0.638-0.258-0.878c-0.103-0.126-0.215-0.27-0.336-0.434
			c-0.12-0.163-0.264-0.305-0.43-0.425c-0.167-0.119-0.367-0.201-0.602-0.245c-0.235-0.044-0.519-0.003-0.852,0.123
			c-0.333,0.126-0.522,0.321-0.568,0.585c-0.046,0.264-0.023,0.535,0.069,0.812C67.621,5.476,67.787,5.822,68.017,6.186z
			 M70.805,22.681c-0.092-0.805-0.195-1.541-0.31-2.208c-0.115-0.667-0.23-1.227-0.344-1.68c-0.115-0.453-0.23-0.742-0.344-0.868
			c-0.069-0.088-0.166-0.239-0.293-0.453c-0.126-0.214-0.267-0.45-0.422-0.708c-0.155-0.258-0.327-0.503-0.516-0.736
			c-0.189-0.233-0.387-0.409-0.594-0.528c-0.207-0.119-0.422-0.154-0.645-0.104c-0.224,0.05-0.445,0.239-0.663,0.566
			c-0.115,0.126-0.201,0.352-0.258,0.679c-0.058,0.327-0.101,0.673-0.129,1.038c-0.029,0.365-0.046,0.711-0.052,1.038
			c-0.006,0.327-0.009,0.554-0.009,0.679c0,0.063,0.02,0.214,0.06,0.453c0.04,0.239,0.089,0.535,0.146,0.887
			c0.057,0.352,0.126,0.745,0.207,1.18c0.08,0.434,0.166,0.871,0.258,1.312c0.195,1.044,0.419,2.208,0.671,3.491
			c0,0.239,0.034,0.528,0.103,0.868c0.069,0.34,0.166,0.692,0.293,1.057c0.126,0.365,0.272,0.724,0.439,1.076
			c0.166,0.352,0.35,0.667,0.551,0.944c0.201,0.277,0.41,0.503,0.628,0.679c0.218,0.176,0.436,0.264,0.654,0.264
			c0.218,0,0.393-0.182,0.525-0.547c0.132-0.365,0.226-0.849,0.284-1.453c0.057-0.604,0.08-1.293,0.069-2.067
			c-0.012-0.774-0.043-1.576-0.095-2.406C70.969,24.304,70.897,23.486,70.805,22.681z M90.325,28.805
			c-0.092-0.245-0.235-0.459-0.43-0.642c-0.195-0.182-0.448-0.321-0.757-0.415c-0.31-0.094-0.688-0.11-1.136-0.047
			c-0.344,0.05-0.746,0.088-1.205,0.113c-0.459,0.025-0.95,0.044-1.472,0.057c-0.522,0.013-1.062,0.016-1.618,0.009
			c-0.557-0.006-1.099-0.016-1.626-0.028c-1.239-0.025-2.536-0.076-3.89-0.151c-0.723-0.176-1.274-0.465-1.652-0.868
			c-0.161-0.163-0.29-0.362-0.387-0.594c-0.098-0.233-0.135-0.5-0.112-0.802c0.023-0.302,0.121-0.645,0.293-1.029
			c0.172-0.384,0.448-0.814,0.826-1.293c0.505-0.579,1.081-1.057,1.73-1.434c0.648-0.377,1.311-0.682,1.988-0.915
			c0.677-0.233,1.348-0.409,2.014-0.528c0.665-0.119,1.262-0.211,1.79-0.274c0.528-0.063,0.967-0.113,1.317-0.151
			c0.35-0.038,0.553-0.088,0.611-0.151c0.057-0.063,0.115-0.201,0.172-0.415c0.057-0.214,0.089-0.465,0.095-0.755
			c0.006-0.289-0.029-0.588-0.103-0.896c-0.075-0.308-0.221-0.594-0.439-0.859c-0.218-0.264-0.522-0.481-0.912-0.651
			c-0.39-0.17-0.895-0.255-1.515-0.255c-0.62,0.063-1.354,0.236-2.203,0.519c-0.849,0.283-1.721,0.661-2.616,1.132
			c-0.895,0.472-1.762,1.022-2.599,1.651c-0.838,0.629-1.552,1.315-2.143,2.057c-0.591,0.743-1.013,1.535-1.265,2.378
			c-0.253,0.843-0.235,1.711,0.052,2.604c0.333,1.246,0.7,2.227,1.102,2.944c0.401,0.717,0.875,1.255,1.42,1.614
			c0.545,0.359,1.185,0.582,1.919,0.67c0.734,0.088,1.606,0.132,2.616,0.132c0.677,0,1.374,0.009,2.091,0.028
			c0.717,0.019,1.426,0.032,2.126,0.038c0.7,0.007,1.374,0.003,2.022-0.009c0.648-0.012,1.236-0.047,1.764-0.104
			c0.528-0.057,0.981-0.138,1.36-0.245c0.379-0.107,0.654-0.255,0.826-0.444c0.057-0.126,0.1-0.302,0.129-0.528
			c0.028-0.226,0.028-0.465,0-0.717C90.477,29.299,90.417,29.05,90.325,28.805z"/>
	</g>
</g>
<g id="tropictube.com">
	<g>
		<path fill-rule="evenodd" clip-rule="evenodd" fill="#AFAFB6" d="M141.946,29.728h-3.377c-0.174,0-0.307,0.039-0.399,0.118
			c-0.092,0.079-0.138,0.187-0.138,0.323c0,0.132,0.044,0.237,0.132,0.318c0.088,0.08,0.223,0.12,0.404,0.12h1.159v3.822
			c0,0.218,0.049,0.38,0.148,0.488c0.099,0.108,0.227,0.161,0.385,0.161c0.155,0,0.281-0.053,0.379-0.16
			c0.098-0.106,0.147-0.27,0.147-0.49v-3.822h1.159c0.181,0,0.317-0.04,0.408-0.12c0.091-0.08,0.136-0.186,0.136-0.318
			c0-0.132-0.045-0.238-0.134-0.319C142.266,29.769,142.129,29.728,141.946,29.728z M147.048,33.685
			c-0.135-0.221-0.288-0.43-0.46-0.626c-0.172-0.196-0.352-0.344-0.54-0.445c0.448-0.098,0.783-0.264,1.003-0.499
			c0.221-0.234,0.331-0.548,0.331-0.94c0-0.191-0.033-0.373-0.098-0.544c-0.066-0.171-0.162-0.321-0.288-0.45
			c-0.126-0.129-0.272-0.228-0.436-0.298c-0.136-0.062-0.289-0.103-0.458-0.124c-0.169-0.02-0.373-0.031-0.612-0.031h-1.728
			c-0.229,0-0.395,0.052-0.497,0.154c-0.103,0.103-0.154,0.269-0.154,0.499v4.048c0,0.213,0.047,0.374,0.14,0.484
			c0.093,0.11,0.224,0.165,0.393,0.165c0.157,0,0.285-0.053,0.383-0.158c0.098-0.105,0.147-0.269,0.147-0.492v-1.69h0.372
			c0.188,0,0.345,0.025,0.469,0.075s0.246,0.144,0.367,0.28c0.12,0.136,0.257,0.335,0.41,0.596l0.426,0.711
			c0.1,0.168,0.179,0.294,0.238,0.38c0.058,0.086,0.128,0.157,0.209,0.214c0.081,0.056,0.181,0.084,0.3,0.084
			c0.1,0,0.188-0.02,0.265-0.059c0.076-0.039,0.136-0.093,0.181-0.161c0.044-0.068,0.066-0.137,0.066-0.206
			c0-0.067-0.038-0.19-0.113-0.368S147.183,33.906,147.048,33.685z M145.769,31.908c-0.174,0.044-0.389,0.066-0.644,0.066h-0.951
			v-1.446h0.98c0.365,0,0.609,0.026,0.733,0.079c0.131,0.055,0.234,0.138,0.308,0.249c0.074,0.111,0.111,0.24,0.111,0.386
			c0,0.187-0.046,0.333-0.138,0.44C146.077,31.789,145.944,31.864,145.769,31.908z M152.096,29.97
			c-0.39-0.221-0.857-0.332-1.4-0.332c-0.401,0-0.758,0.063-1.073,0.188s-0.582,0.307-0.801,0.544
			c-0.219,0.237-0.387,0.524-0.503,0.861c-0.116,0.337-0.174,0.708-0.174,1.113c0,0.395,0.055,0.762,0.166,1.102
			c0.111,0.34,0.275,0.63,0.492,0.872c0.217,0.242,0.488,0.429,0.812,0.562c0.324,0.133,0.692,0.199,1.102,0.199
			c0.413,0,0.779-0.065,1.098-0.194c0.32-0.129,0.589-0.316,0.808-0.56s0.384-0.532,0.494-0.865s0.165-0.702,0.165-1.109
			c0-0.55-0.1-1.029-0.3-1.437S152.485,30.192,152.096,29.97z M152.003,33.396c-0.135,0.285-0.316,0.495-0.544,0.632
			c-0.228,0.136-0.477,0.205-0.749,0.205c-0.212,0-0.407-0.039-0.585-0.118c-0.178-0.079-0.335-0.198-0.472-0.357
			c-0.137-0.159-0.243-0.359-0.318-0.601s-0.113-0.512-0.113-0.811c0-0.297,0.038-0.564,0.113-0.802
			c0.075-0.238,0.178-0.434,0.308-0.587c0.13-0.153,0.285-0.27,0.465-0.35c0.18-0.08,0.376-0.12,0.588-0.12
			c0.298,0,0.562,0.072,0.792,0.217s0.407,0.358,0.531,0.641c0.124,0.282,0.186,0.616,0.186,1.001
			C152.205,32.76,152.137,33.111,152.003,33.396z M157.712,30.119c-0.156-0.139-0.342-0.238-0.556-0.298
			c-0.217-0.062-0.527-0.093-0.93-0.093h-1.363c-0.234,0-0.404,0.05-0.512,0.151c-0.107,0.1-0.161,0.268-0.161,0.502v4.055
			c0,0.211,0.049,0.37,0.147,0.479c0.098,0.109,0.227,0.163,0.386,0.163c0.153,0,0.279-0.055,0.379-0.165
			c0.1-0.11,0.15-0.272,0.15-0.484V32.94h0.973c0.651,0,1.141-0.138,1.47-0.414c0.329-0.276,0.494-0.682,0.494-1.218
			c0-0.251-0.041-0.477-0.122-0.678C157.986,30.428,157.868,30.258,157.712,30.119z M156.98,31.799
			c-0.088,0.12-0.216,0.206-0.385,0.258s-0.377,0.079-0.628,0.079h-0.715v-1.608h0.715c0.474,0,0.788,0.078,0.941,0.233
			c0.136,0.146,0.204,0.335,0.204,0.567C157.112,31.522,157.068,31.679,156.98,31.799z M159.645,29.638
			c-0.155,0-0.281,0.054-0.379,0.161s-0.147,0.269-0.147,0.484v4.145c0,0.215,0.049,0.377,0.148,0.486s0.225,0.163,0.377,0.163
			c0.16,0,0.289-0.054,0.388-0.161c0.099-0.108,0.148-0.27,0.148-0.488v-4.145c0-0.218-0.05-0.38-0.148-0.486
			C159.934,29.692,159.805,29.638,159.645,29.638z M165.375,32.865c-0.148,0-0.255,0.044-0.322,0.131
			c-0.067,0.087-0.123,0.2-0.168,0.339c-0.107,0.294-0.266,0.517-0.477,0.669c-0.211,0.152-0.469,0.228-0.774,0.228
			c-0.281,0-0.527-0.067-0.737-0.201c-0.21-0.134-0.372-0.337-0.486-0.608c-0.115-0.271-0.172-0.612-0.172-1.021
			c0-0.612,0.129-1.085,0.388-1.418c0.259-0.333,0.606-0.499,1.043-0.499c0.274,0,0.505,0.065,0.692,0.194
			c0.187,0.129,0.35,0.324,0.488,0.585c0.083,0.158,0.159,0.269,0.227,0.334c0.068,0.065,0.17,0.097,0.306,0.097
			c0.122,0,0.225-0.047,0.311-0.14s0.129-0.201,0.129-0.323c0-0.222-0.088-0.459-0.265-0.709c-0.177-0.25-0.431-0.46-0.762-0.63
			c-0.331-0.17-0.709-0.255-1.134-0.255c-0.348,0-0.676,0.062-0.984,0.187s-0.576,0.306-0.805,0.544
			c-0.229,0.238-0.405,0.525-0.528,0.86c-0.123,0.335-0.184,0.714-0.184,1.138c0,0.261,0.024,0.507,0.073,0.739
			c0.049,0.232,0.122,0.45,0.22,0.655c0.098,0.205,0.216,0.389,0.354,0.554c0.155,0.182,0.325,0.328,0.51,0.44
			s0.39,0.193,0.617,0.246c0.227,0.053,0.478,0.079,0.755,0.079c0.365,0,0.684-0.059,0.959-0.176c0.274-0.117,0.5-0.27,0.676-0.458
			c0.176-0.188,0.306-0.379,0.388-0.574s0.123-0.376,0.123-0.544c0-0.132-0.045-0.242-0.136-0.33
			C165.61,32.909,165.502,32.865,165.375,32.865z M170.197,29.728h-3.377c-0.174,0-0.307,0.039-0.399,0.118
			c-0.092,0.079-0.138,0.187-0.138,0.323c0,0.132,0.044,0.237,0.132,0.318c0.088,0.08,0.223,0.12,0.404,0.12h1.159v3.822
			c0,0.218,0.049,0.38,0.148,0.488c0.099,0.108,0.227,0.161,0.385,0.161c0.155,0,0.281-0.053,0.379-0.16
			c0.098-0.106,0.147-0.27,0.147-0.49v-3.822h1.159c0.181,0,0.317-0.04,0.408-0.12c0.091-0.08,0.136-0.186,0.136-0.318
			c0-0.132-0.045-0.238-0.134-0.319C170.518,29.769,170.381,29.728,170.197,29.728z M175.252,29.638c-0.16,0-0.287,0.053-0.383,0.16
			c-0.095,0.106-0.143,0.269-0.143,0.486v2.609c0,0.45-0.086,0.785-0.258,1.007c-0.172,0.221-0.465,0.332-0.88,0.332
			c-0.3,0-0.534-0.054-0.701-0.163c-0.167-0.109-0.283-0.262-0.349-0.459c-0.066-0.197-0.098-0.443-0.098-0.737v-2.587
			c0-0.215-0.048-0.377-0.145-0.484c-0.097-0.108-0.227-0.161-0.392-0.161c-0.157,0-0.284,0.054-0.381,0.161
			c-0.097,0.108-0.145,0.269-0.145,0.484v2.53c0,0.397,0.043,0.739,0.129,1.025c0.086,0.286,0.221,0.52,0.404,0.703
			s0.421,0.318,0.712,0.406s0.638,0.131,1.041,0.131c0.339,0,0.634-0.041,0.887-0.122c0.253-0.081,0.474-0.211,0.665-0.388
			c0.222-0.208,0.373-0.45,0.453-0.725c0.08-0.275,0.12-0.618,0.12-1.03v-2.53c0-0.218-0.049-0.38-0.148-0.486
			C175.541,29.692,175.412,29.638,175.252,29.638z M180.253,32.204c0.525-0.244,0.787-0.629,0.787-1.156
			c0-0.153-0.025-0.298-0.075-0.436c-0.05-0.138-0.123-0.263-0.218-0.377c-0.095-0.114-0.205-0.208-0.329-0.282
			c-0.145-0.088-0.31-0.148-0.494-0.179c-0.184-0.031-0.401-0.047-0.651-0.047h-1.699c-0.227,0-0.391,0.051-0.492,0.153
			c-0.101,0.102-0.152,0.269-0.152,0.501v3.955c0,0.227,0.049,0.393,0.148,0.497c0.099,0.104,0.264,0.156,0.495,0.156h1.603
			c0.277,0,0.519-0.014,0.726-0.041c0.208-0.027,0.391-0.075,0.551-0.142c0.255-0.112,0.458-0.286,0.608-0.522
			s0.225-0.501,0.225-0.795C181.286,32.853,180.942,32.424,180.253,32.204z M177.992,30.528h0.862c0.386,0,0.674,0.044,0.862,0.131
			c0.188,0.087,0.283,0.264,0.283,0.529c0,0.124-0.03,0.237-0.089,0.337c-0.076,0.141-0.187,0.237-0.331,0.287
			c-0.144,0.05-0.349,0.075-0.614,0.075h-0.973V30.528z M179.133,34.189h-1.141v-1.536h1.105c0.37,0,0.647,0.06,0.833,0.179
			c0.186,0.12,0.279,0.312,0.279,0.578C180.21,33.929,179.851,34.189,179.133,34.189z M185.743,34.142h-2.475v-1.497h2.203
			c0.165,0,0.286-0.038,0.365-0.113c0.079-0.075,0.118-0.173,0.118-0.292c0-0.12-0.04-0.216-0.12-0.289
			c-0.08-0.073-0.201-0.109-0.363-0.109h-2.203V30.55h2.393c0.169,0,0.295-0.038,0.377-0.113c0.082-0.075,0.123-0.175,0.123-0.3
			c0-0.122-0.041-0.221-0.123-0.296c-0.082-0.075-0.208-0.113-0.377-0.113h-2.804c-0.15,0-0.274,0.022-0.37,0.066
			c-0.097,0.044-0.168,0.115-0.213,0.212c-0.045,0.097-0.068,0.222-0.068,0.375v3.955c0,0.23,0.051,0.396,0.152,0.499
			c0.101,0.103,0.268,0.154,0.499,0.154h2.887c0.167,0,0.293-0.039,0.377-0.117c0.085-0.078,0.127-0.179,0.127-0.303
			c0-0.129-0.042-0.233-0.127-0.31C186.036,34.181,185.91,34.142,185.743,34.142z M187.661,33.999c-0.15,0-0.277,0.053-0.379,0.158
			c-0.103,0.105-0.154,0.231-0.154,0.377c0,0.172,0.054,0.306,0.161,0.402c0.107,0.096,0.235,0.144,0.383,0.144
			c0.143,0,0.268-0.048,0.374-0.145c0.106-0.097,0.159-0.23,0.159-0.4c0-0.148-0.053-0.275-0.159-0.379
			S187.811,33.999,187.661,33.999z M193.391,32.865c-0.148,0-0.255,0.044-0.322,0.131c-0.067,0.087-0.123,0.2-0.168,0.339
			c-0.107,0.294-0.266,0.517-0.478,0.669c-0.211,0.152-0.469,0.228-0.774,0.228c-0.281,0-0.527-0.067-0.737-0.201
			c-0.21-0.134-0.372-0.337-0.486-0.608c-0.115-0.271-0.172-0.612-0.172-1.021c0-0.612,0.129-1.085,0.388-1.418
			c0.259-0.333,0.606-0.499,1.043-0.499c0.274,0,0.505,0.065,0.692,0.194c0.187,0.129,0.35,0.324,0.488,0.585
			c0.083,0.158,0.159,0.269,0.227,0.334c0.068,0.065,0.17,0.097,0.306,0.097c0.122,0,0.225-0.047,0.311-0.14
			s0.129-0.201,0.129-0.323c0-0.222-0.088-0.459-0.265-0.709c-0.176-0.25-0.43-0.46-0.762-0.63c-0.331-0.17-0.709-0.255-1.134-0.255
			c-0.348,0-0.676,0.062-0.984,0.187s-0.576,0.306-0.805,0.544c-0.229,0.238-0.405,0.525-0.528,0.86
			c-0.123,0.335-0.184,0.714-0.184,1.138c0,0.261,0.024,0.507,0.073,0.739c0.049,0.232,0.122,0.45,0.22,0.655
			c0.098,0.205,0.216,0.389,0.354,0.554c0.155,0.182,0.325,0.328,0.51,0.44c0.185,0.111,0.39,0.193,0.617,0.246
			c0.227,0.053,0.478,0.079,0.755,0.079c0.365,0,0.684-0.059,0.959-0.176s0.5-0.27,0.676-0.458c0.176-0.188,0.306-0.379,0.388-0.574
			s0.123-0.376,0.123-0.544c0-0.132-0.045-0.242-0.136-0.33C193.626,32.909,193.518,32.865,193.391,32.865z M198.515,29.97
			c-0.39-0.221-0.857-0.332-1.4-0.332c-0.401,0-0.758,0.063-1.073,0.188c-0.315,0.126-0.582,0.307-0.801,0.544
			s-0.387,0.524-0.503,0.861s-0.173,0.708-0.173,1.113c0,0.395,0.055,0.762,0.166,1.102c0.111,0.34,0.275,0.63,0.492,0.872
			c0.217,0.242,0.488,0.429,0.812,0.562c0.324,0.133,0.692,0.199,1.102,0.199c0.413,0,0.779-0.065,1.098-0.194
			c0.32-0.129,0.589-0.316,0.808-0.56c0.219-0.244,0.384-0.532,0.494-0.865s0.165-0.702,0.165-1.109c0-0.55-0.1-1.029-0.3-1.437
			C199.2,30.506,198.905,30.192,198.515,29.97z M198.422,33.396c-0.135,0.285-0.316,0.495-0.544,0.632
			c-0.228,0.136-0.478,0.205-0.749,0.205c-0.212,0-0.407-0.039-0.585-0.118c-0.178-0.079-0.335-0.198-0.472-0.357
			c-0.137-0.159-0.243-0.359-0.318-0.601c-0.075-0.242-0.113-0.512-0.113-0.811c0-0.297,0.038-0.564,0.113-0.802
			c0.075-0.238,0.178-0.434,0.308-0.587c0.13-0.153,0.285-0.27,0.465-0.35c0.18-0.08,0.376-0.12,0.588-0.12
			c0.298,0,0.562,0.072,0.792,0.217c0.23,0.145,0.407,0.358,0.531,0.641c0.124,0.282,0.186,0.616,0.186,1.001
			C198.624,32.76,198.557,33.111,198.422,33.396z M205.442,29.848c-0.119-0.08-0.28-0.12-0.483-0.12h-0.329
			c-0.198,0-0.342,0.018-0.431,0.054c-0.089,0.036-0.156,0.1-0.199,0.194c-0.043,0.093-0.092,0.245-0.147,0.456l-0.762,2.882
			l-0.762-2.882c-0.055-0.211-0.104-0.362-0.147-0.456s-0.109-0.158-0.198-0.194s-0.233-0.054-0.431-0.054h-0.329
			c-0.203,0-0.364,0.04-0.483,0.12c-0.119,0.08-0.179,0.235-0.179,0.465v4.163c0,0.203,0.045,0.355,0.136,0.454
			c0.091,0.099,0.207,0.149,0.351,0.149c0.148,0,0.266-0.05,0.356-0.151c0.089-0.101,0.134-0.251,0.134-0.452v-3.632l0.841,3.352
			c0.029,0.11,0.057,0.216,0.084,0.318c0.027,0.102,0.065,0.194,0.113,0.278c0.048,0.084,0.114,0.153,0.2,0.206
			s0.191,0.081,0.315,0.081c0.165,0,0.293-0.042,0.386-0.126c0.093-0.084,0.157-0.176,0.191-0.278
			c0.034-0.102,0.079-0.261,0.134-0.479l0.841-3.352v3.632c0,0.201,0.045,0.352,0.136,0.452c0.091,0.1,0.206,0.151,0.347,0.151
			c0.15,0,0.27-0.05,0.359-0.151c0.089-0.101,0.134-0.251,0.134-0.452v-4.163C205.621,30.083,205.562,29.928,205.442,29.848z"/>
	</g>
</g>
<g id="Ellipse_4">
	<g>
		<ellipse fill-rule="evenodd" clip-rule="evenodd" fill="#FFFFFF" cx="114.937" cy="22.953" rx="22.094" ry="22.047"/>
	</g>
</g>
<g id="Rectangle_1">
	<g>
		<path fill-rule="evenodd" clip-rule="evenodd" fill="#FFE55C" d="M122.436,3.729c-2.377-0.85-5.38-1.272-5.38-1.272h-2.549
			c0,0-2.92,0.235-4.814,0.848c-3.056,0.989-5.664,2.544-5.664,2.544h22.513C126.542,5.849,124.802,4.575,122.436,3.729z"/>
	</g>
</g>
<g id="Rectangle_2">
	<g>
		<path fill-rule="evenodd" clip-rule="evenodd" fill="#FDCA47" d="M129.232,7.828c-0.966-0.937-2.407-1.979-2.407-1.979h-22.796
			c0,0-1.353,0.815-2.407,1.837c-1.379,1.338-2.549,2.968-2.549,2.968h32.707C131.781,10.654,130.654,9.206,129.232,7.828z"/>
	</g>
</g>
<g id="Rectangle_3">
	<g>
		<path fill-rule="evenodd" clip-rule="evenodd" fill="#FEB833" d="M133.197,12.774c-0.6-1.072-1.416-2.12-1.416-2.12H99.074
			c0,0-0.822,1.001-1.416,2.12c-0.676,1.274-1.274,2.685-1.274,2.685h38.087C134.471,15.46,133.928,14.082,133.197,12.774z"/>
	</g>
</g>
<g id="Rectangle_4">
	<g>
		<path fill-rule="evenodd" clip-rule="evenodd" fill="#FB7581" d="M135.179,17.297c-0.28-1.023-0.708-1.837-0.708-1.837H96.242
			c0,0-0.567,1.372-0.425,2.544c0.141,1.16,0.991,2.12,0.991,2.12h38.937C135.745,20.124,135.529,18.577,135.179,17.297z"/>
	</g>
</g>
<g id="Rectangle_5">
	<g>
		<path fill-rule="evenodd" clip-rule="evenodd" fill="#FB466D" d="M135.887,22.103c-0.033-1.056-0.142-1.979-0.142-1.979H96.1
			l-0.142,4.523h39.928C135.887,24.647,135.924,23.299,135.887,22.103z"/>
	</g>
</g>
<g id="Rectangle_6">
	<g>
		<path fill-rule="evenodd" clip-rule="evenodd" fill="#FB0276" d="M135.887,24.647c-10.598,0-38.937,0-38.937,0l0.283,4.664
			c0,0,26.122,0,37.578,0h0.51l0.85-4.664H135.887z"/>
	</g>
</g>
<g id="Rectangle_7">
	<g>
		<path fill-rule="evenodd" clip-rule="evenodd" fill="#43ABFD" d="M96.016,29.301c-0.091,0,0.52,2.016,1.784,3.967
			c1.324,2.044,3.131,4.099,3.257,4.099h28.743c-0.018,0,1.517-1.458,2.62-3.101c1.514-2.257,2.428-4.954,2.393-4.955
			C124.567,29.022,100.934,29.301,96.016,29.301z"/>
	</g>
</g>
<g id="Ellipse_2_1_">
	<g>
		<path fill-rule="evenodd" clip-rule="evenodd" fill="#FFFFFF" d="M94.688,24.375c0,0.555,0.186,1.063,0.491,1.479
			c-0.207,0.374-0.335,0.798-0.335,1.255c0,0.93,0.49,1.741,1.223,2.203h13.607c-0.075-1.253-1.112-2.25-2.392-2.25
			c-0.196,0-0.383,0.03-0.565,0.073c0-0.009,0.003-0.017,0.003-0.026c0-1.683-1.357-3.047-3.031-3.047
			c-0.967,0-1.819,0.464-2.374,1.173c0.012-0.099,0.03-0.196,0.03-0.298c0-0.963-0.534-1.792-1.315-2.23
			c0.539-0.619,0.877-1.418,0.877-2.302c0-1.95-1.588-3.531-3.547-3.531c-1.959,0-3.547,1.581-3.547,3.531
			c0,1.073,0.487,2.025,1.247,2.669C94.828,23.456,94.688,23.898,94.688,24.375z"/>
	</g>
</g>
<g id="Ellipse_3">
	<g>
		<path fill-rule="evenodd" clip-rule="evenodd" fill="#FFFFFF" d="M128.977,29.313c0.013-0.013,0.029-0.024,0.042-0.038
			c0.019,0.014,0.041,0.025,0.061,0.038h7.299c0.27-0.979,0.074-2.4,0.074-3.817c0-2.537,0.63-4.099-1.911-4.099
			c-2.287,0-4.17,1.671-4.527,3.853c-0.958,0.146-1.716,0.887-1.882,1.833c-0.035-0.003-0.066-0.02-0.102-0.02
			c-0.576,0-1.058,0.362-1.249,0.866c-0.4-0.263-0.959-0.428-1.579-0.428c-1.217,0-2.203,0.63-2.203,1.406
			c0,0.142,0.043,0.277,0.104,0.406H128.977z"/>
	</g>
</g>
<g id="Shape_4">
	<g>
		<path fill-rule="evenodd" clip-rule="evenodd" fill="#E9DDC8" d="M121.728,37.226c-3.448,0-8.354-1.413-8.354-1.413
			s-3.413-0.985-6.796-1.272c-4.059-0.344-7.929,0-7.929,0s0.618,1.222,2.265,2.827c1.125,1.095,2.799,2.379,4.814,3.534
			c3.987,2.284,9.203,2.403,9.203,2.403s4.915,0.24,9.486-2.12c5.512-2.845,6.796-5.371,6.796-5.371S126.806,37.226,121.728,37.226z
			"/>
	</g>
</g>
<g id="Shape_2">
	<g>
		<path fill-rule="evenodd" clip-rule="evenodd" fill="#A80960" d="M124.842,21.108c-1.243-3.836-2.973-6.92-2.973-6.92l6.23,1.413
			c0,0,0.891,0.341,0.991,0.141c0.112-0.223-0.566-0.989-0.566-0.989s-1.061-1.765-2.973-2.968c-1.127-0.709-3.54-1.131-3.54-1.131
			s1.215-0.96,2.407-1.555c0.886-0.442,1.841-0.565,1.841-0.565s0.342-0.249,0.283-0.424c-0.08-0.239-0.566-0.424-0.566-0.424
			s-2.482-0.583-4.389-0.141c-2.052,0.476-3.54,1.979-3.54,1.979s-2.149-0.463-3.823-0.141c-1.981,0.38-3.54,1.555-3.54,1.555
			s-0.32,0.173-0.283,0.283c0.034,0.102,0.425,0.141,0.425,0.141s2.015-0.118,3.398,0c1.047,0.09,1.557,0.424,1.557,0.424
			s-2.529,1.434-4.106,3.251c-1.093,1.259-1.416,3.109-1.416,3.109s-0.01,0.49,0.142,0.565c0.13,0.065,0.425-0.283,0.425-0.283
			s2.452-1.691,4.531-2.968c1.511-0.928,2.832-1.555,2.832-1.555s-0.469,1.091-0.566,2.261c-0.114,1.36,0.142,2.827,0.142,2.827
			l0.425,0.141l2.265-3.958c0,0,1.939,2.604,3.681,9.328c1.408,5.434,2.69,15.265,2.69,15.265s0.925-0.524,1.557-0.989
			c0.708-0.521,1.133-0.989,1.133-0.989C129.521,37.792,127.088,28.038,124.842,21.108z"/>
	</g>
</g>
<g id="Shape_3">
	<g>
		<path fill-rule="evenodd" clip-rule="evenodd" fill="#A80960" d="M114.365,25.354c-0.159,0.106-0.283,0.424-0.283,0.424
			s-0.579-0.395-0.991-0.283c-0.363,0.099-0.566,0.707-0.566,0.707s0.437-0.383,0.85-0.424c0.258-0.026,0.566,0.283,0.566,0.283
			l0.283-0.141c0,0,0.007-0.29,0.142-0.424c0.204-0.204,0.566-0.283,0.566-0.283S114.612,25.19,114.365,25.354z"/>
	</g>
</g>
<g id="Shape_3_copy">
	<g>
		<path fill-rule="evenodd" clip-rule="evenodd" fill="#A80960" d="M118.888,22.063c-0.28,0.181-0.5,0.727-0.5,0.727
			s-1.021-0.677-1.749-0.485c-0.641,0.17-0.999,1.211-0.999,1.211s0.772-0.656,1.499-0.727c0.456-0.044,1.049,0.444,1.049,0.444
			l0.45-0.202c0,0,0.163-0.416,0.4-0.646c0.361-0.35,1.274-0.283,1.274-0.283S119.323,21.782,118.888,22.063z"/>
	</g>
</g>
</svg>
