<svg xmlns="http://www.w3.org/2000/svg" viewBox="0 0 232.77 43.57"><defs><style>.cls-1{fill:#fff;}.cls-2{isolation:isolate;}.cls-3{fill:#cb1a4c;fill-rule:evenodd;}</style></defs><title>Asset 2512</title><g id="Layer_2" data-name="Layer 2"><g id="Layer_1-2" data-name="Layer 1"><path class="cls-1" d="M46.63,9H58.19c6.83,0,11.5,3.05,11.5,9.15v.07c0,6.21-4.73,9.51-11.68,9.51H55.22v7H46.63V9Zm10.9,12.6c2.2,0,3.68-1,3.68-2.83v-.07c0-1.87-1.36-2.83-3.65-2.83H55.21v5.73Z"/><path class="cls-1" d="M77.61,21.94v-.07c0-7.46,6.13-13.41,14.06-13.41s14,5.88,14,13.33v.07c0,7.46-6.13,13.41-14.06,13.41S77.61,29.4,77.61,21.94Zm19.39,0v-.07c0-3.05-2.08-5.8-5.39-5.8s-5.33,2.72-5.33,5.73v.07c0,3.05,2.09,5.8,5.39,5.8S97,25,97,21.94Z"/><path class="cls-1" d="M114.4,9H127c4.57,0,7.47,1.14,9.27,2.94a8.08,8.08,0,0,1,2.35,6.1v.07A8.32,8.32,0,0,1,133.51,26l6,8.74h-9.81l-4.85-7.35H123v7.35h-8.61V9Zm12.3,12.24c2.07,0,3.32-.92,3.32-2.5v-.07c0-1.65-1.3-2.46-3.28-2.46H123v5Z"/><path class="cls-1" d="M148.49,9h8l9.15,11.35V9h8.52V34.72h-7.63L157,22.85V34.72h-8.53V9Z"/><path class="cls-1" d="M185.74,9h8.6V34.72h-8.6Z"/><path class="cls-1" d="M213.41,8.83h8.52l10.84,25.9h-9.33l-1.36-3.45h-9l-1.32,3.45h-9.18ZM220,25.18l-2.35-6.24-2.36,6.24Z"/><g class="cls-2"><path class="cls-3" d="M0,0,3.09,1.54l7.56,3.77a.4.4,0,0,1,.26.42q0,9.74,0,19.47a10.45,10.45,0,0,0,.63,3.87,6.31,6.31,0,0,0,4.26,4,9.58,9.58,0,0,0,5.66,0,6.44,6.44,0,0,0,4.46-4.77,9.66,9.66,0,0,0,.33-2.51q0-10,0-20a.43.43,0,0,1,.3-.46L37,.1,37.16,0V.26c0,8.49,0,17,0,25.47a19,19,0,0,1-2.26,9.11,15.84,15.84,0,0,1-5.64,5.88,18.23,18.23,0,0,1-6.83,2.54,24.32,24.32,0,0,1-4.34.31,20.34,20.34,0,0,1-7.88-1.65,16.45,16.45,0,0,1-7.77-6.81,17.33,17.33,0,0,1-2-5.31A23.85,23.85,0,0,1,0,25Q0,12.65,0,.34Z"/></g></g></g></svg>