<svg enable-background="new 0 0 160 50" height="28.666667" width="130.555556" xmlns="http://www.w3.org/2000/svg"><rect fill="none" height="100%" width="100%"/><path d="m54.00287247 6.60507298c-.25 0-.484.074-.704.221s-.389.352-.50599998.61500001l-4.04799986 10.40600014-4.42199993-10.40600014c-.118-.278-.28600001-.491-.50599998-.63800001-.22-.146-.45500001-.22-.704-.22-.308 0-.60900003.121-.90200001.36300001-.29300001.241-.44.56099999-.44.95599997 0 .221.036.40400001.11.551l5.43400002 12.76000023c.117.264.28200001.46599999.495.60399997.212.14.44299999.21699999.69300002.23100001.264 0 .51300001-.073.74800003-.22.234-.146.41800001-.359.55000001-.639l5.43400002-12.7159996c.088-.205.132-.403.132-.59399998 0-.352-.13600001-.65200001-.40700001-.90200001-.27100332-.2470006-.59000357-.3720006-.95700033-.3720006zm4.9790039-.37400055c-.484 0-.83600003.081-1.05599999.242-.22.162-.33000001.447-.33000001.85799998v.41800001c0 .41.103.69599998.308.85699999.206.162.55699998.242 1.05599999.242.51300001 0 .87599999-.077 1.08899999-.23.212-.154.31900001-.44299999.31900001-.86900002v-.41800001c0-.41100001-.103-.69599998-.308-.85799998-.20500652-.1610006-.56500713-.24199997-1.07799999-.24199997zm0 4.04899978c-.38100001 0-.69700003.12800001-.94599998.38499999-.25.257-.37400001.57499999-.37400001.95700002v9.08600044c0 .382.124.69999999.37400001.95700002.249.257.56400001.38499999.94599998.38499999s.69599998-.12800001.94599998-.38499999.37400001-.57499999.37400001-.95700002v-9.08600044c0-.382-.125-.69999999-.37400001-.95700002s-.56500327-.38499999-.94599998-.38499999zm10.42099762 5.28000069 3.3210001-3.05800009c.35299999-.30899999.52899998-.63800001.52899998-.99000001 0-.278-.12899999-.55400002-.38600001-.82499999-.257-.271-.546-.40599999-.86799997-.40599999-.36700001 0-.69.139-.96899998.41800001l-4.70800018 4.5539999v-8.14099979c0-.38100001-.124-.69999999-.37400001-.95599997-.25-.257-.56400001-.38600001-.94499999-.38600001-.382 0-.69700003.12899999-.94700003.38600001-.25.25600001-.37400001.57499999-.37400001.95599997v13.59700012c0 .382.125.69999999.37400001.95700002s.56400001.38499999.94700003.38499999c.38100001 0 .69499999-.12800001.94499999-.38499999s.37400001-.57499999.37400001-.95700002v-2.31100011l1.07799995-.98900002 3.96000004 4.17999983c.264.294.58600003.43900001.96799999.43900001.32300001 0 .62800002-.124.91299999-.37400001.28600001-.249.43000001-.55699998.43000001-.92400002 0-.366-.141-.69599998-.41800001-.98900002zm7.9469986-5.28000069c-.38100001 0-.69700003.12800001-.94499999.38499999-.25.257-.375.57499999-.375.95700002v9.08600044c0 .382.125.69999999.375.95700002.248.257.56400001.38499999.94499999.38499999s.69700003-.12800001.94599998-.38499999.37400001-.57499999.37400001-.95700002v-9.08600044c0-.382-.125-.69999999-.37400001-.95700002s-.56500328-.38499999-.94599998-.38499999zm1.07800293-3.80599975c-.205-.161-.56400001-.242-1.07799995-.242-.484 0-.83600003.081-1.05599999.242-.22.162-.33000001.447-.33000001.85799998v.41800001c0 .41.103.69599998.308.85699999.205.162.55800003.242 1.05700004.242.51300001 0 .87599999-.077 1.08800006-.23.213-.154.31999999-.44299999.31999999-.86900002v-.41800001c-.00100148-.41099945-.10400594-.6960012-.30900014-.85799995z" fill="#0195f4"/><path d="m90.68587112 7.32107258c-.67400002-.447-1.38499999-.67199999-2.1329999-.67199999h-5.0170002c-.382 0-.69999999.12899999-.95700002.38600001s-.38499999.57499999-.38499999.95700002v12.7159996c0 .382.117.69999999.352.95700002.235.257.53600001.38499999.90200001.38499999.38100001 0 .68800002-.124.92400002-.37400001.234-.249.35299999-.57200003.35299999-.96799999v-4.15799999h3.82800007c.74800003 0 1.45899999-.22400001 2.1329999-.671.67500001-.447 1.21800005-1.05299997 1.62899995-1.81500006.41-.76200002.61500001-1.58399999.61500001-2.46399999 0-.89499998-.205-1.72000003-.61500001-2.4749999-.41199696-.75599938-.95499622-1.35599976-1.62899983-1.80399971zm-.64899444 5.45499992c-.169.37400001-.389.67900002-.66000003.91299999-.271.235-.54699999.35299999-.824.35299999h-3.82800007v-4.86199999h3.82800007c.27700001 0 .55299997.114.824.34099999.271.228.491.528.66000003.90200001.168.37400001.25299999.76700002.25299999 1.17700005-.00000164.41099867-.08500072.80199941-.25299999 1.17599996zm13.66199493-1.93500137c-.917-.52100003-1.926-.78100002-3.0250001-.78100002-1.11500001 0-2.12700009.26100001-3.03500009.78100002-.91000003.52100003-1.62899995 1.24699998-2.1559999 2.17799997-.528.93199998-.79299998 1.98399997-.79299998 3.15700006 0 1.17400002.26499999 2.22600007.79299998 3.15700006.52700001.93199998 1.24600005 1.653 2.1559999 2.16700006.90799999.514 1.91999996.76999998 3.03500009.76999998 1.10000002 0 2.10800004-.25600001 3.0250001-.76999998.91600001-.514 1.63900006-1.23500001 2.16700006-2.16700006s.792-1.98300004.792-3.15700006c0-1.17299998-.264-2.22600007-.792-3.15700006-.52800012-.93099832-1.25099969-1.65799951-2.16700006-2.17799997zm-.1329956 7.24900055c-.301.55800003-.70300001.99000001-1.20899999 1.29799998-.50599998.30899999-1.06700003.46200001-1.68400002.46200001-.61500001 0-1.17700005-.153-1.68299997-.46200001-.50700003-.308-.90899998-.74000001-1.21000004-1.29799998s-.45100001-1.19500005-.45100001-1.91400003.15000001-1.36000001.45100001-1.92499995.70300001-1.00100005 1.21000004-1.30999994c.50599998-.308 1.06700003-.46200001 1.68299997-.46200001.616 0 1.17799997.154 1.68400002.46200001.50599998.30899999.90799999.745 1.20899999 1.30999994s.45100001 1.20599997.45100001 1.92499995-.15000514 1.35600137-.45100001 1.91400003zm11.88999176-8.02999878c-.71899998 0-1.39400005.15800001-2.02399993.47400001s-1.11500001.773-1.45099998 1.375v-.28600001c0-.382-.125-.69999999-.375-.95700002-.249-.257-.56400001-.38499999-.94499999-.38499999-.382 0-.69700003.12800001-.94599998.38499999s-.37400001.57499999-.37400001.95700002v9.08600044c0 .382.125.69999999.37400001.95700002s.56400001.38499999.94599998.38499999c.38100001 0 .69599998-.12800001.94499999-.38499999.25-.257.375-.57499999.375-.95700002v-5.21400023c0-.66000003.113-1.22899997.34-1.70500004.229-.477.51800001-.83200002.86900002-1.06700003.35299999-.234.71899998-.352 1.10099995-.352.176 0 .34099999.021.495.065s.25299999.074.29699999.088c.278.104.52700001.154.74800003.154.322 0 .602-.113.83600003-.34099999s.352-.56800002.352-1.023c0-.33700001-.15000001-.63-.45100001-.88-.30198729-.24900015-.67099058-.37400015-1.1120001-.37400015zm13.14100647 1.33099937c-.57200003-.88700002-1.60599995-1.33099997-3.10299993-1.33099997-.76200002 0-1.46300006.191-2.10100007.57200003-.63800001.382-1.15499997.83600003-1.55200005 1.36399996v-.37400001c0-.382-.124-.69999999-.373-.95700002-.25-.257-.56400001-.38499999-.94599998-.38499999s-.69599998.12800001-.94599998.38499999c-.249.257-.373.57499999-.373.95700002v9.08600044c0 .382.124.69999999.373.95700002.25.257.56400001.38499999.94599998.38499999s.69599998-.12800001.94599998-.38499999c.249-.257.373-.57499999.373-.95700002v-5.63199997c0-.74800003.242-1.36800003.727-1.85899997s1.15100002-.73699999 2.00200009-.73699999c.82099998 0 1.39999998.23100001 1.73800004.69300002.33700001.46200001.50599998 1.097.50599998 1.903v5.63199997c0 .382.125.69999999.37400001.95700002s.56400001.38499999.94599998.38499999c.38100001 0 .69599998-.12800001.94499999-.38499999.25-.257.375-.57499999.375-.95700002v-5.63199997c.00100167-1.56900131-.2860009-2.79800141-.85700004-3.68500054z" fill="#1f212b"/><path d="m26.58787155 21.60607052c-1.11000001-.55500001-2.11899996-1.47800004-2.97399998-2.398-4.55999994-4.59399986-8.92199993-8.98799992-13.48200035-13.58399963-3.08200002-2.46399999-6.46600008-2.67199993-8.32699966-1.199-.72799999.57700002-1.59899998 1.98599994-1.78400004 4.39599991-.169 2.20600009.70599997 4.76300001 1.98300004 6.59299994 3.56800008 3.66300011 6.93900013 6.92500019 10.50800037 10.5880003 1.77199996 1.33599997 3.93400002 2.04200006 6.14599991 1.99800003 2.0769999-.041 4.08599997-.74299997 5.75-1.99800003l4.16400003-4.19399977c-.67399895.0660008-1.38399803.0980023-1.98400032-.20200075z" fill="#0195f4"/><path d="m34.71687317 3.22707176c-3.07599998-3.48600006-8.47200012-4.16900015-12.49100018-1.398-1.255 1.19799995-2.51099992 2.39700007-3.76699996 3.59599996-1.05700004-.99900001-2.11500001-1.99699998-3.17199993-2.99600005-1.48699999-1.36399996-3.35299993-2.22600007-5.35400009-2.39700007-2.8440001-.245-5.59000015.92900002-7.53399992 2.99600005.77700001-.602 1.64600003-1.01400006 2.5769999-1.19799995 2.39499998-.47799999 4.81699991.602 6.54300022 2.39700007 4.29500008 4.32800007 8.5909996 8.65600014 12.88700008 12.98499966 1.15699995 1.42900002 2.90100002 2.33100009 4.7579999 2.19700003 1.08599997-.077 2.11199999-.505 2.97399998-1.19799995 1.05799997-1.06500006 2.11500001-2.13100004 3.17199993-3.1960001 2.52900172-3.69500019 2.22099924-8.59899952-.59299993-11.78799965zm-6.71500015 8.77200031c-1.65699995 0-3-1.34300005-3-3s1.34300005-3 3-3 3 1.34300005 3 3-1.34299851 3-3 3z" fill="#1f212b"/></svg>