<?xml version="1.0" encoding="utf-8"?>
<!-- Generator: Adobe Illustrator 16.0.0, SVG Export Plug-In . SVG Version: 6.00 Build 0)  -->
<!DOCTYPE svg PUBLIC "-//W3C//DTD SVG 1.1//EN" "http://www.w3.org/Graphics/SVG/1.1/DTD/svg11.dtd">
<svg version="1.1" id="Layer_1" xmlns="http://www.w3.org/2000/svg" xmlns:xlink="http://www.w3.org/1999/xlink" x="0px" y="0px"
	 width="848.667px" height="211.333px" viewBox="20.32 16.5 848.667 211.333" enable-background="new 20.32 16.5 848.667 211.333"
	 xml:space="preserve">
<g>
	<g>
		<g>
			<path fill="#5D5D5D" d="M381.24,182.88c-0.923,0-1.854-0.021-2.797-0.065c-24.125-1.125-42.183-19.763-42.937-44.316
				c-0.327-10.661,0.431-21.462,1.165-31.906c0.269-3.821,0.546-7.771,0.765-11.643c0.399-7.062,0.912-13.973,1.454-21.288
				c0.239-3.223,0.48-6.474,0.713-9.769l0.216-3.052l26.432,2.393l-0.667,10.477c-0.414,6.524-0.823,12.985-1.255,19.443
				c-0.296,4.44-0.614,8.879-0.932,13.318c-0.585,8.188-1.191,16.655-1.648,24.977c-0.424,7.745,1.568,14.362,5.609,18.631
				c3.372,3.562,8.078,5.443,13.61,5.444c0,0,0,0,0.001,0c1.344,0,2.748-0.112,4.173-0.334c8.619-1.337,14.229-9.134,15.007-20.855
				c0.749-11.269,1.642-23.235,2.504-34.808c0.737-9.873,1.498-20.081,2.159-29.714l0.211-3.07l26.413,2.491l-0.76,11.119
				c-0.415,6.104-0.823,12.12-1.262,18.132c-0.321,4.38-0.596,8.85-0.862,13.172c-0.628,10.217-1.278,20.781-2.592,31.125
				c-3.144,24.733-20.278,40.099-44.716,40.1C381.243,182.88,381.242,182.88,381.24,182.88z"/>
			<path d="M342.596,64.104c6.878,0.624,13.403,1.213,20.475,1.853c-0.582,9.109-1.137,18.056-1.735,26.995
				c-0.854,12.777-1.879,25.546-2.583,38.331c-0.905,16.54,8.193,27.24,22.215,27.24c1.491,0,3.037-0.121,4.634-0.369
				c10.015-1.554,16.676-10.585,17.541-23.622c1.389-20.9,3.229-43.619,4.663-64.514c6.858,0.646,13.416,1.266,20.437,1.928
				c-0.617,8.953-1.186,17.64-1.821,26.319c-1.079,14.722-1.582,29.527-3.438,44.138c-2.996,23.563-19.034,37.478-41.74,37.478
				c-0.878,0-1.764-0.021-2.661-0.062c-22.25-1.037-39.359-18.007-40.078-41.411c-0.441-14.395,1.111-28.865,1.926-43.289
				C341.007,84.917,341.844,74.732,342.596,64.104 M337.043,57.577l-0.432,6.104c-0.233,3.29-0.474,6.538-0.713,9.757
				c-0.544,7.33-1.057,14.253-1.458,21.342c-0.218,3.852-0.495,7.792-0.762,11.603c-0.738,10.519-1.502,21.396-1.17,32.208
				c0.803,26.162,20.062,46.021,45.795,47.221c0.983,0.046,1.973,0.069,2.94,0.069c26.067,0,44.342-16.37,47.692-42.721
				c1.327-10.441,1.979-21.055,2.61-31.32c0.265-4.313,0.54-8.774,0.859-13.137c0.44-6.022,0.84-11.912,1.263-18.146
				c0.185-2.713,0.37-5.444,0.56-8.2l0.402-5.837l-5.825-0.549l-9.674-0.913l-10.763-1.015l-6.127-0.577l-0.421,6.14
				c-0.66,9.624-1.421,19.828-2.157,29.696c-0.864,11.578-1.757,23.55-2.506,34.832c-0.678,10.222-5.341,16.984-12.474,18.091
				c-1.273,0.197-2.522,0.298-3.714,0.298c-4.688,0-8.641-1.559-11.432-4.506c-3.469-3.664-5.171-9.491-4.792-16.406
				c0.456-8.296,1.061-16.751,1.646-24.928c0.318-4.443,0.635-8.886,0.933-13.331c0.432-6.465,0.851-13.07,1.256-19.457l0.48-7.555
				l0.373-5.832l-5.82-0.526l-3.003-0.271l-17.471-1.582L337.043,57.577L337.043,57.577z"/>
		</g>
	</g>
	<g>
		<g>
			<path fill="#5D5D5D" d="M268.41,59.791l67.886-5.115l1.981,24.305l-35.758,3.052l1.15,20.197l29.4-2.367h0.122
				c2.943,0.002,2.986,2.335,3.045,5.563l0.106,5.903c0.103,5.826,0.155,9.185,0.155,9.981v2.755l-2.745,0.234
				c-7.892,0.673-13.033,1.139-17.848,1.575c-3.421,0.31-6.678,0.605-10.636,0.949l1.206,21.283l35.365-2.357l0.373,2.782
				c0.218,1.627,0.574,3.811,0.95,6.123c0.835,5.122,1.698,10.419,1.698,13.225v2.823l-2.818,0.171
				c-10.149,0.618-20.69,1.152-30.884,1.669c-10.289,0.521-20.929,1.062-31.249,1.689l-2.954,0.181L268.41,59.791z"/>
			<path d="M333.548,57.891c0.509,6.233,0.989,12.131,1.496,18.354c-12.018,1.025-23.558,2.01-35.687,3.045
				c0.495,8.687,0.975,17.136,1.49,26.175c11.206-0.901,17.981-1.449,32.34-2.604c0-0.001,0.309,16.568,0.309,18.448
				c-14.81,1.263-19.941,1.797-31.389,2.774c0.517,9.106,1.012,17.863,1.542,27.216c11.94-0.795,23.569-1.567,35.588-2.371
				c0.683,5.097,2.622,15.139,2.622,18.949c-20.346,1.238-41.542,2.104-62.133,3.358c-2.703-36.269-5.38-72.169-8.102-108.679
				C292.296,60.999,312.733,59.458,333.548,57.891 M339.043,51.459l-5.946,0.448l-61.924,4.666l-5.978,0.451l0.446,5.979
				l8.102,108.679l0.44,5.902l5.908-0.359c10.305-0.628,20.937-1.167,31.218-1.688c10.202-0.517,20.751-1.052,30.915-1.67
				l5.636-0.344v-5.646c0-3.048-0.883-8.467-1.737-13.707c-0.373-2.291-0.726-4.454-0.938-6.039l-0.746-5.564l-5.602,0.375
				c-9.089,0.607-17.956,1.197-26.902,1.793l-2.639,0.176l-0.302-5.332l-0.568-10.021c2.734-0.242,5.198-0.465,7.747-0.696
				c4.891-0.442,9.949-0.901,17.832-1.573l5.49-0.468v-5.51c0-0.814-0.052-4.191-0.155-10.035l-0.106-5.905l-0.035-1.904
				l-0.01-0.529c-0.073-3.946-3.147-6.075-6.002-6.075h-0.241l-0.24,0.02l-17.532,1.412l-8.686,0.699l-0.396-6.965l-0.413-7.254
				l29.875-2.549l5.955-0.508l-0.485-5.957l-0.287-3.53l-1.208-14.826L339.043,51.459L339.043,51.459z"/>
		</g>
	</g>
	<g>
		<g>
			<path fill="#5D5D5D" d="M168.181,189.967c-21.281,0-38.439-8.636-51-25.669c-7.428-10.072-10.602-21.509-10.613-38.241
				c0.094-14.3,6.53-28.57,17.658-39.174c11.399-10.862,26.474-17.038,42.447-17.39c0.691-0.016,1.383-0.023,2.066-0.023
				c23.127,0,41.06,9.035,53.299,26.854c11.398,16.595,13.155,37.98,4.7,57.203c-8.527,19.388-25.647,32.66-45.798,35.505
				C176.541,189.653,172.248,189.967,168.181,189.967z M169.37,100.62c-8.029,0-15.525,3.082-21.108,8.678
				c-5.578,5.591-8.64,13.086-8.622,21.104c0.038,16.547,13.034,29.537,29.587,29.573c0.001,0,0.002,0,0.003,0
				c8.107,0,15.604-3.076,21.178-8.663c5.572-5.585,8.63-13.084,8.612-21.117c-0.038-16.543-13.031-29.535-29.581-29.575l-0.07-3
				V100.62z"/>
			<path fill="#000002" d="M168.739,72.47c21.279,0,38.559,7.693,50.827,25.553c23.131,33.679,1.442,82.322-39.045,88.038
				c-4.226,0.597-8.344,0.906-12.34,0.906c-19.356,0-35.914-7.266-48.585-24.449c-7.125-9.662-10.017-20.732-10.028-36.463
				c0.184-27.951,25.366-52.861,57.172-53.562C167.409,72.478,168.078,72.47,168.739,72.47 M169.294,162.975
				c18.277,0,32.768-14.511,32.726-32.787c-0.041-18.074-14.494-32.524-32.573-32.568c-0.026,0-0.051,0-0.077,0
				c-18.249,0-32.772,14.54-32.73,32.789c0.042,18.065,14.514,32.527,32.581,32.566
				C169.244,162.975,169.271,162.975,169.294,162.975 M168.743,66.47v6V66.47c-0.709,0-1.423,0.008-2.136,0.024
				c-16.723,0.369-32.509,6.839-44.451,18.217c-11.714,11.162-18.489,26.217-18.588,41.304c0.012,17.466,3.361,29.435,11.199,40.063
				c13.157,17.843,31.128,26.889,53.414,26.889c4.207,0,8.641-0.324,13.179-0.965c21.187-2.991,39.177-16.923,48.125-37.268
				c8.876-20.181,7.017-42.651-4.973-60.109C211.679,75.943,192.916,66.47,168.743,66.47L168.743,66.47z M169.294,156.975h-0.058
				c-7.145-0.016-13.829-2.773-18.824-7.767s-7.756-11.675-7.772-18.813c-0.017-7.216,2.734-13.956,7.746-18.979
				c5.016-5.028,11.758-7.797,18.984-7.797h0.062c7.147,0.018,13.832,2.775,18.823,7.766c4.991,4.99,7.749,11.672,7.765,18.816
				c0.017,7.229-2.73,13.974-7.734,18.989C183.278,154.21,176.533,156.975,169.294,156.975L169.294,156.975z"/>
		</g>
	</g>
	<g>
		<path fill-rule="evenodd" clip-rule="evenodd" fill="#5D5D5D" d="M225.233,180.542l0.541-10.808
			c0.298-6.009,0.589-11.879,0.907-17.747c0.136-2.503,0.298-5.006,0.46-7.508c0.33-5.079,0.671-10.331,0.766-15.468
			c0.034-1.824-0.591-4.039-1.554-5.51c-8.152-12.455-16.571-25.042-24.712-37.213c-2.704-4.042-5.407-8.084-8.106-12.129
			c-0.447-0.668-0.877-1.352-1.248-1.941l-0.426-0.674l-2.982-4.662l35.731,0.294l7.127,11.086
			c4.264,6.63,7.946,12.356,12.562,19.65c0.059,0.093,0.119,0.186,0.18,0.279l2.354-3.202c5.619-7.646,10.927-14.869,16.396-22.174
			l2.521-3.247l1.46-0.007c0,0,15.591-0.072,27.922-0.072h5.562l-4.45,6.77c-6.884,10.476-14.66,20.739-22.179,30.664
			c-4.467,5.896-9.085,11.992-13.448,18.043c-1.451,2.012-2.472,4.902-2.665,7.54c-0.689,9.406-1.15,19.006-1.596,28.289
			c-0.188,3.907-0.375,7.813-0.579,11.719c-0.074,1.412-0.206,2.828-0.344,4.328c-0.069,0.74-0.141,1.519-0.212,2.355l-0.246,2.893
			L225.233,180.542z"/>
		<path d="M194.388,69.926l28.576,0.235c0,0,2.46,3.827,3.168,4.927c5.734,8.924,9.96,15.463,15.632,24.427
			c0.752,1.188,1.611,2.311,2.663,3.811c7.233-9.828,14.165-19.311,21.204-28.714c1.593-2.052,1.593-2.052,1.593-2.052
			s15.583-0.072,27.908-0.072c0,0,0,0-1.395,2.123c-10.912,16.604-23.838,32.35-35.554,48.601c-1.815,2.518-2.996,5.966-3.224,9.075
			c-0.977,13.34-1.48,26.713-2.179,40.07c-0.106,2.021-0.333,4.036-0.549,6.586c-7.925-0.412-15.66-0.815-23.851-1.241
			c0.443-8.787,0.842-17.171,1.296-25.552c0.417-7.695,1.088-15.383,1.23-23.082c0.044-2.409-0.726-5.197-2.043-7.209
			C218.041,105.323,207,88.932,196.03,72.493C195.406,71.56,194.82,70.601,194.388,69.926 M183.37,63.835l5.964,9.324
			c0.125,0.196,0.264,0.417,0.413,0.654c0.364,0.578,0.816,1.298,1.296,2.016c2.696,4.039,5.399,8.081,8.103,12.123
			c8.138,12.167,16.553,24.749,24.698,37.192c0.64,0.977,1.087,2.58,1.064,3.812c-0.093,5.066-0.432,10.283-0.76,15.328
			c-0.16,2.466-0.326,5.015-0.462,7.539c-0.319,5.88-0.605,11.653-0.908,17.767c-0.127,2.574-0.256,5.173-0.389,7.809l-0.302,5.982
			l5.982,0.312l12.972,0.675l10.879,0.566l5.799,0.302l0.491-5.787c0.07-0.828,0.142-1.599,0.209-2.332
			c0.142-1.53,0.276-2.976,0.353-4.446c0.205-3.911,0.393-7.822,0.581-11.734c0.445-9.264,0.905-18.844,1.591-28.212
			c0.153-2.085,0.979-4.441,2.107-6.005c4.342-6.023,8.95-12.105,13.406-17.986c7.549-9.965,15.355-20.269,22.295-30.828
			l1.395-2.123l6.109-9.295h-11.124c-12.197,0-27.78,0.072-27.936,0.072l-2.92,0.014l-1.791,2.306l-1.593,2.052l-0.033,0.042
			l-0.032,0.042c-5.397,7.21-10.634,14.334-16.167,21.862c-3.654-5.75-6.822-10.677-10.399-16.24l-3.082-4.793l-3.169-4.929
			l-1.754-2.728l-3.243-0.027l-28.576-0.235L183.37,63.835L183.37,63.835z"/>
	</g>
</g>
<g>
	<g>
		<g>
			<path fill="#5D5D5D" d="M425.917,74.102l2.972-0.037c6.543-0.08,13.089-0.437,19.418-0.783c4.507-0.247,9.168-0.501,13.736-0.649
				c0.463-0.015,0.944-0.022,1.442-0.022c8.461,0,21.72,2.151,28.385,5.625c16.135,8.412,16.673,23.99,15.673,34.976
				c-1.105,12.106-7.926,21.659-20.852,29.207c-0.513,0.3-1.033,0.579-1.566,0.853l28.936,39.453l-5.69,0.181
				c-3.815,0.122-7.676,0.331-11.409,0.533c-5.234,0.283-10.179,0.552-14.953,0.594l-1.483,0.013l-1.681-2.16
				c-2.601-3.341-5.436-6.914-8.316-10.546c-4.644-5.854-9.444-11.906-13.584-17.385c-0.35-0.462-0.729-0.963-1.125-1.489
				l-0.97,31.913l-28.603,0.722L425.917,74.102z M456.222,117.062c0.419,3.514,1.317,4.684,5.815,4.684
				c0.647,0,1.369-0.032,2.145-0.094c1.643-0.132,3.44-0.6,5.2-1.353c5.896-2.52,8.831-8.4,6.981-13.982
				c-1.778-5.368-8.273-9.572-14.786-9.572c-1.812,0-3.476,0.337-4.947,1.003c-0.202,0.213-0.475,0.741-0.506,0.993
				c-0.111,2.556-0.101,8.884-0.042,13.673v0.003c0.018,1.506,0.04,2.822,0.064,3.756l0.006,0.196
				C456.172,116.607,456.195,116.838,456.222,117.062L456.222,117.062z"/>
			<path d="M463.486,75.61c8.1,0,20.879,2.096,26.998,5.286c12.938,6.745,15.289,18.667,14.072,32.043
				c-1.15,12.593-8.941,20.794-19.377,26.888c-1.334,0.78-2.75,1.418-4.576,2.351c9.141,12.46,18.148,24.741,27.672,37.729
				c-9.057,0.288-18.109,1.053-26.293,1.125c0,0,0,0-0.77-0.989c-6.805-8.74-15.199-19.062-21.875-27.897
				c-1.629-2.152-3.604-4.766-5.121-7.004c-0.141-0.068-0.274-0.103-0.398-0.103c-0.502,0-0.843,0.555-0.824,1.617
				c-0.346,11.467-0.696,22.935-1.057,34.794c-7.44,0.187-14.893,0.376-22.7,0.573c-0.102-34.997-0.205-69.497-0.312-104.958
				c11.311-0.138,22.309-1.081,33.214-1.434C462.572,75.617,463.022,75.61,463.486,75.61 M453.082,112.452
				c-0.038,1.494-0.021,2.842,0.071,4.047c0.021,0.777,0.043,1.234,0.063,1.234c0.009,0,0.018-0.101,0.026-0.315
				c0.604,5.076,2.868,7.329,8.794,7.329c0.737,0,1.53-0.035,2.385-0.104c2.084-0.167,4.213-0.76,6.141-1.585
				c7.398-3.162,10.98-10.647,8.648-17.684c-2.263-6.829-10.191-11.628-17.634-11.628c-2.214,0-4.383,0.424-6.349,1.346
				c-1.049,0.493-2.046,2.272-2.1,3.497C453.009,101.318,453.025,107.788,453.082,112.452 M453.082,112.445c0,0.003,0,0.006,0,0.009
				c0-0.001,0-0.002,0-0.003C453.082,112.449,453.082,112.448,453.082,112.445 M453.082,112.455
				c0.019,1.529,0.041,2.863,0.065,3.808C453.106,115.012,453.072,113.234,453.082,112.455 M453.147,116.262
				c0.003,0.097,0.006,0.19,0.01,0.28c-0.002-0.015-0.003-0.029-0.004-0.043C453.151,116.423,453.149,116.344,453.147,116.262
				 M453.157,116.542c0.023,0.3,0.052,0.592,0.086,0.875c-0.006,0.139-0.013,0.201-0.02,0.201
				C453.204,117.618,453.18,117.176,453.157,116.542 M453.246,117.327c-0.001,0.031-0.002,0.06-0.003,0.085
				C453.244,117.385,453.245,117.357,453.246,117.327 M453.243,117.412c0,0.002,0,0.003,0,0.005v0
				C453.243,117.416,453.243,117.414,453.243,117.412 M463.487,69.61c-0.532,0-1.047,0.008-1.541,0.024
				c-4.602,0.149-9.279,0.405-13.803,0.652c-6.298,0.344-12.811,0.7-19.29,0.779l-5.945,0.072l0.018,5.945
				c0.106,35.461,0.21,69.96,0.312,104.958l0.018,6.136l6.133-0.155l7.172-0.182l15.526-0.392l5.675-0.143l0.172-5.673l0.328-10.792
				c0.101-3.301,0.2-6.58,0.3-9.846c3.102,3.997,6.396,8.149,9.615,12.207c2.937,3.703,5.711,7.2,8.301,10.526l0.768,0.987
				l1.822,2.343l2.967-0.026c4.843-0.043,9.819-0.312,15.089-0.598c3.717-0.202,7.561-0.41,11.342-0.53l11.382-0.362l-6.733-9.183
				c-8.1-11.045-15.825-21.579-23.577-32.146c12.96-7.949,19.833-18.014,20.994-30.727c0.768-8.431,0.086-15.35-2.082-21.154
				c-2.72-7.281-7.831-12.918-15.191-16.755C486.095,71.842,472.496,69.61,463.487,69.61L463.487,69.61z M459.085,100.051
				c0.769-0.203,1.603-0.306,2.492-0.306c5.121,0,10.589,3.442,11.938,7.516c1.369,4.131-0.815,8.357-5.312,10.279
				c-1.467,0.628-2.939,1.015-4.262,1.121c-0.696,0.056-1.337,0.084-1.905,0.084c-1.559,0-2.229-0.211-2.435-0.295
				c-0.081-0.167-0.272-0.657-0.401-1.743c-0.021-0.167-0.038-0.339-0.053-0.515l-0.004-0.109c-0.023-0.923-0.045-2.22-0.063-3.703
				v-0.003C459.031,108.265,459.016,103.018,459.085,100.051L459.085,100.051z"/>
		</g>
	</g>
</g>
<g>
	<g>
		<g>
			<path fill="#FF9600" d="M604.594,206.626v-56.469H567.91v56.424h-60.152V50.095h59.764v50.424h36.826V50.11h60.25v3.5
				c-0.006,49.835-0.006,99.5-0.006,149.516v3.5H604.594z"/>
			<path fill="#A45100" d="M564.021,53.595c0,16.871,0,33.514,0,50.424c14.836,0,29.064,0,43.826,0c0-16.869,0-33.512,0-50.409
				c17.998,0,35.469,0,53.25,0c-0.006,49.835-0.006,99.501-0.006,149.517c-17.807,0-35.162,0-52.998,0c0-18.852,0-37.535,0-56.469
				c-14.705,0-28.924,0-43.684,0c0,18.855,0,37.533,0,56.424c-17.998,0-35.465,0-53.152,0c0-49.885,0-99.56,0-149.486
				C528.795,53.595,546.109,53.595,564.021,53.595 M571.021,46.595h-7h-52.764h-7v7v149.486v7h7h53.152h7v-7v-49.424h29.684v49.469
				v7h7h52.998h7v-7c0-50.016,0-99.681,0.006-149.516l0.001-7.001h-7.001h-53.25h-7v7v43.409h-29.826V53.595V46.595L571.021,46.595z
				"/>
		</g>
		<g>
			<g>
				<polygon fill="#FF9600" points="759.824,207.566 759.824,98.788 720.246,98.788 720.246,49.156 860.758,49.156 860.758,98.753 
					821.275,98.753 821.275,207.566 				"/>
				<path fill="#A45100" d="M857.258,52.656c0,14.004,0,28.027,0,42.598c-12.98,0-26.027,0-39.482,0c0,36.531,0,72.523,0,108.812
					c-18.256,0-36.096,0-54.451,0c0-36.184,0-72.176,0-108.778c-13.645,0-26.447,0-39.578,0c0-14.337,0-28.343,0-42.632
					C768.234,52.656,812.58,52.656,857.258,52.656 M864.258,45.656h-7H723.746h-7v7v42.632v7h7h32.578v101.778v7h7h54.451h7v-7
					V102.253h32.482h7v-7V52.656V45.656L864.258,45.656z"/>
			</g>
		</g>
	</g>
</g>
<g>
	<g>
		<g>
			<path fill="#5D5D5D" d="M673.899,220.863l3.297-20.814c2.443-15.433,4.872-30.771,7.328-46.104
				c2.766-17.287,6.044-37.688,9.39-57.916c0.073-0.447,0.148-0.83,0.23-1.226c-0.325-0.132-0.678-0.278-1.059-0.438
				c-18.552-7.765-28.479-26.413-23.605-44.339c4.329-15.909,19.592-27.455,36.292-27.455c1.717,0,3.442,0.126,5.13,0.374
				c19.758,2.908,33.751,19.539,32.55,38.686c-0.947,15.021-9.116,26.211-23.625,32.36c-0.672,0.285-1.334,0.541-2.043,0.807
				c6.482,40.616,20.124,126.064,20.124,126.064H673.899z"/>
			<path d="M705.772,26.072c1.535,0,3.078,0.11,4.62,0.337c17.902,2.635,30.67,17.415,29.566,35.004
				c-0.881,13.974-8.348,23.783-21.498,29.356c-1.344,0.57-2.73,1.046-4.584,1.752c6.633,41.561,13.264,83.106,19.928,124.841
				c-18.758,0-37.189,0-55.807,0c3.348-21.114,6.639-41.995,9.982-62.864c3.088-19.305,6.195-38.606,9.387-57.898
				c0.201-1.231,0.418-1.902,0.779-4.001c0,0-1.227-0.422-3.709-1.462c-16.4-6.865-26.121-23.488-21.58-40.193
				C676.816,36.398,690.901,26.072,705.772,26.072 M705.773,19.072L705.773,19.072c-18.25,0-34.935,12.632-39.67,30.034
				c-5.205,19.147,4.902,39.004,24.114,47.823c-3.261,19.736-6.449,39.583-9.149,56.464c-2.457,15.336-4.935,30.982-7.329,46.113
				l-2.655,16.761l-1.283,8.096h8.197h55.807h8.206l-1.294-8.104c-6.365-39.865-12.7-79.557-19.036-119.255
				c15.507-6.744,24.239-18.889,25.265-35.151c1.316-20.98-13.96-39.195-35.533-42.37C709.556,19.21,707.659,19.072,705.773,19.072
				L705.773,19.072z"/>
		</g>
	</g>
</g>
<g>
	<g>
		<g>
			<path fill-rule="evenodd" clip-rule="evenodd" fill="#5D5D5D" d="M88.923,181.309c-2.469-3.739-3.948-5.99-4.936-7.492
				c-1.879-2.859-1.952-2.971-3.662-5.442l-0.055-0.078l-0.049-0.082c-6.669-11.083-13.284-22.046-19.888-32.991
				c-9.076-15.041-18.131-30.048-27.278-45.287c-0.505-0.843-0.988-1.696-1.549-2.687l-0.88-1.549l-2.096-3.665l4.149-0.774
				c3.747-0.699,7.58-1.481,11.638-2.31c3.545-0.724,7.277-1.485,11.319-2.267l2.13-0.412l2.994,5.355
				c11.31,19.405,22.811,39.078,34.187,58.523c1.123-4.725,2.18-9.177,3.233-13.631c1.358-5.743,2.645-11.621,4.006-17.844
				c2.876-13.141,5.85-26.729,9.574-39.087l0.984-3.26l1.834-0.31c0.154-0.026,15.524-2.626,22.187-3.874l4.513-0.845l-1.038,4.472
				c-0.4,1.724-0.785,3.404-1.163,5.054c-0.804,3.514-1.563,6.832-2.383,10.182l-2.407,9.831
				c-9.182,37.501-17.112,69.888-21.219,86.936l-0.482,2.004l-8.822,1.159c-0.912,0.119-2.654,0.37-4.718,0.667
				c-2.242,0.322-4.859,0.698-7.213,1.022l-1.872,0.258L88.923,181.309z"/>
			<path fill="#000002" d="M137.32,65.095c-1.243,5.353-2.335,10.289-3.537,15.201c-10.425,42.578-19.173,78.281-23.628,96.777
				c0,0,0,0-6.778,0.891c-1.905,0.25-7.417,1.068-11.949,1.692c-7.148-10.822-5.991-9.169-8.634-12.988
				C66.96,140.355,51.43,114.72,35.628,88.393c-0.737-1.23-1.428-2.487-2.397-4.182c7.037-1.312,14.291-2.9,22.977-4.581
				c0,0,0,0,1.936,3.462c11.663,20.012,23.502,40.26,35.198,60.254c0.717,1.224,1.527,2.394,2.867,4.483
				c1.771-7.458,3.337-14.036,4.893-20.618c4.294-18.153,8.124-38.806,13.534-56.756c0.446-1.478,0.446-1.478,0.446-1.478
				S130.554,66.362,137.32,65.095 M145.241,57.506l-9.026,1.691c-6.636,1.243-21.979,3.839-22.134,3.865l-3.669,0.62l-1.075,3.563
				l-0.446,1.478c-3.759,12.471-6.745,26.117-9.633,39.313c-1.359,6.21-2.643,12.076-3.996,17.794
				c-0.498,2.107-0.997,4.212-1.503,6.346c-11.075-18.935-20.726-35.451-30.405-52.059l-1.909-3.416l-2.117-3.787l-4.26,0.824
				c-4.061,0.785-7.766,1.542-11.349,2.273c-4.045,0.826-7.867,1.606-11.588,2.3l-8.299,1.548l4.191,7.329
				c0.318,0.556,0.605,1.063,0.874,1.538c0.566,1,1.055,1.864,1.585,2.749c9.152,15.248,18.371,30.526,27.286,45.301
				c6.603,10.942,13.217,21.902,19.884,32.983l0.099,0.163l0.109,0.157c1.689,2.441,1.762,2.552,3.621,5.382
				c0.988,1.504,2.468,3.757,4.94,7.499l2.082,3.152l3.743-0.515c2.359-0.325,4.983-0.702,7.23-1.025
				c2.048-0.295,3.777-0.544,4.682-0.662l6.779-0.891l4.086-0.537l0.965-4.007c4.107-17.05,12.042-49.454,21.229-86.974l2.395-9.782
				c0.825-3.372,1.587-6.701,2.394-10.225c0.377-1.647,0.761-3.325,1.161-5.046L145.241,57.506L145.241,57.506z"/>
		</g>
	</g>
</g>
</svg>
