<svg width="439" height="106" viewBox="0 0 439 106" fill="none" xmlns="http://www.w3.org/2000/svg">
<path d="M54.86 11.67L60.5 0H4.5C3.30826 -2.94257e-06 2.16518 0.472732 1.32155 1.31448C0.477922 2.15624 0.00264832 3.29825 0 4.48999V100.7C0.00264157 101.893 0.477596 103.036 1.32094 103.879C2.16428 104.722 3.30734 105.197 4.5 105.2H9.67L17.9 88.2H8.99V11.7L54.86 11.67ZM10.93 93.06V100H4V93.06H10.93Z" fill="white"/>
<path d="M115.71 27.35L120.58 17.4H79.9398L63.5898 50.78L70.1698 65.41L75.3198 54.89H90.7699L95.9598 43.75H80.5199L88.8198 27.35H115.71Z" fill="white"/>
<path d="M130.53 0H88.41L82.76 11.67H126.04V88.17H45.76L37.53 105.17H130.53C131.722 105.167 132.864 104.692 133.706 103.848C134.547 103.005 135.02 101.862 135.02 100.67V4.48999C135.02 3.90036 134.904 3.31651 134.678 2.77176C134.453 2.22701 134.122 1.73203 133.705 1.31509C133.288 0.898159 132.793 0.56741 132.248 0.341766C131.704 0.116123 131.12 0 130.53 0ZM55.04 100H48.11V93.06H55.04V100ZM69.04 100H62.18V93.06H69.11L69.04 100ZM82.46 100H75.52V93.06H82.46V100ZM96.81 100H89.88V93.06H96.81V100ZM110.81 100H103.88V93.06H110.81V100ZM124.23 100H117.3V93.06H124.23V100Z" fill="white"/>
<path d="M52.3498 73.36L56.7598 82.49H47.8398L52.3498 73.36Z" fill="white"/>
<path d="M67.7399 0L51.1099 34.38L42.8999 17.4H29.4799L44.3999 48.25L16.8599 105.19H30.2799L51.1099 62.12L60.9699 82.49H73.2299L57.8199 48.25L81.1599 0H67.7399Z" fill="#D24A43"/>
<path d="M156.572 30.0664H168.385C171.408 37.4258 173.061 41.6445 173.342 42.7227H173.482C173.529 42.3945 173.975 41.1992 174.818 39.1367L178.404 30.0664H190.217L179.318 52.4609L191.131 77H179.318C175.545 68.1641 173.576 63.4062 173.412 62.7266H173.271C172.873 64.2266 172.346 65.7148 171.689 67.1914L167.365 77H155.729L167.295 52.6016L156.572 30.0664ZM196.932 30.0664H218.482V40.1211H207.584V48.6992H217.182V58.4375H207.584V77H196.932V30.0664ZM256.908 77H245.834L244.041 69.1602H232.791L230.928 77H220.064L232.51 30.0664H244.463L256.908 77ZM242.002 60.7227C240.408 53.7383 239.213 47.0938 238.416 40.7891H238.275C237.432 47.2812 236.248 53.9258 234.725 60.7227H242.002ZM262.322 30.0664H273.08L286.615 57.1367L286.229 52.0742V30.0664H296.881V77H285.947L272.693 50.3516L272.975 56.1875V77H262.322V30.0664ZM303.455 30.0664H328.873V40.7891H321.525V77H310.732V40.7891H303.455V30.0664ZM367.018 77H355.943L354.15 69.1602H342.9L341.037 77H330.174L342.619 30.0664H354.572L367.018 77ZM352.111 60.7227C350.518 53.7383 349.322 47.0938 348.525 40.7891H348.385C347.541 47.2812 346.357 53.9258 344.834 60.7227H352.111ZM370.357 30.0664H400.662L384.314 66.9805H399.221V77H368.037L384.244 40.1211H370.357V30.0664ZM402.49 30.0664H414.443C417.092 36.8164 419.014 42.0195 420.209 45.6758H420.35C421.545 41.9258 423.443 36.7227 426.045 30.0664H438.279L425.693 55.7656V77H414.9V55.7656L402.49 30.0664Z" fill="white"/>
<path d="M54.86 11.67L60.5 0H4.5C3.30826 -2.94257e-06 2.16518 0.472732 1.32155 1.31448C0.477922 2.15624 0.00264832 3.29825 0 4.48999V100.7C0.00264157 101.893 0.477596 103.036 1.32094 103.879C2.16428 104.722 3.30734 105.197 4.5 105.2H9.67L17.9 88.2H8.99V11.7L54.86 11.67ZM10.93 93.06V100H4V93.06H10.93Z" fill="white"/>
<path d="M115.71 27.35L120.58 17.4H79.9398L63.5898 50.78L70.1698 65.41L75.3198 54.89H90.7699L95.9598 43.75H80.5199L88.8198 27.35H115.71Z" fill="white"/>
<path d="M130.53 0H88.41L82.76 11.67H126.04V88.17H45.76L37.53 105.17H130.53C131.722 105.167 132.864 104.692 133.706 103.848C134.547 103.005 135.02 101.862 135.02 100.67V4.48999C135.02 3.90036 134.904 3.31651 134.678 2.77176C134.453 2.22701 134.122 1.73203 133.705 1.31509C133.288 0.898159 132.793 0.56741 132.248 0.341766C131.704 0.116123 131.12 0 130.53 0ZM55.04 100H48.11V93.06H55.04V100ZM69.04 100H62.18V93.06H69.11L69.04 100ZM82.46 100H75.52V93.06H82.46V100ZM96.81 100H89.88V93.06H96.81V100ZM110.81 100H103.88V93.06H110.81V100ZM124.23 100H117.3V93.06H124.23V100Z" fill="white"/>
<path d="M52.3498 73.36L56.7598 82.49H47.8398L52.3498 73.36Z" fill="white"/>
<path d="M67.7399 0L51.1099 34.38L42.8999 17.4H29.4799L44.3999 48.25L16.8599 105.19H30.2799L51.1099 62.12L60.9699 82.49H73.2299L57.8199 48.25L81.1599 0H67.7399Z" fill="#D24A43"/>
</svg>
