<svg xmlns="http://www.w3.org/2000/svg" xmlns:xlink="http://www.w3.org/1999/xlink" width="233" height="47" viewBox="0 0 233 47"><defs><path id="2zaha" d="M379 1344.5l-1.1 1.4c-.13.17-3.23 4.1-8.55 8.04-7.1 5.27-14.83 8.06-22.35 8.06-7.52 0-15.25-2.79-22.35-8.06a48.03 48.03 0 0 1-8.55-8.04l-1.1-1.4 1.1-1.4a48 48 0 0 1 8.55-8.04c7.1-5.27 14.83-8.06 22.35-8.06 7.52 0 15.25 2.79 22.35 8.06a47.99 47.99 0 0 1 8.55 8.04zm-19.86 0c0-6.76-5.45-12.26-12.14-12.26-3.2 0-6.12 1.26-8.29 3.31l-1.86-2.12a39.23 39.23 0 0 0-9.45 5.2 47.25 47.25 0 0 0-6.56 5.87 47.25 47.25 0 0 0 6.56 5.87 39.23 39.23 0 0 0 9.45 5.2 15.12 15.12 0 0 1-4.38-14.61l2.78.47a12.21 12.21 0 0 0 11.75 15.33c6.7 0 12.14-5.5 12.14-12.26zm14.02 0a47.28 47.28 0 0 0-6.56-5.87 39.22 39.22 0 0 0-9.45-5.2c2.94 2.76 4.8 6.7 4.8 11.07s-1.86 8.3-4.8 11.06c3.79-1.41 7.01-3.4 9.45-5.2a47.25 47.25 0 0 0 6.56-5.86z"/><path id="2zahb" d="M347 1354.12l-1.21-1.26c-3.96-3.66-6.72-6.27-7.32-9.2l11.99 4.34-9.06-10.19c.53-.2 1.1-.31 1.7-.31 1.48 0 2.95.72 3.9 1.9a5.11 5.11 0 0 1 3.9-1.9 4.8 4.8 0 0 1 4.75 4.97c0 3.43-2.94 6.23-7.44 10.39z"/><path id="2zahc" d="M385.95 1358l-3.64-26.37h4.54l1.64 17.46 2.26-17.46h3.9l2.22 17.36 1.71-17.36h4.56l-3.7 26.37h-4.55l-2.21-17.26-2.17 17.26zm23.06-8.92h2.73l-1.34-9.79zm-6.68 8.92l5.7-26.37h4.72l5.68 26.37h-5.26l-1.08-5.64h-3.44l-1.03 5.64zm19.2 0v-22.38h-3.86v-3.99h13v3.99h-3.8V1358zm9.4-8.8v-8.73c0-6.23 2.54-9.35 7.64-9.35 1.08 0 2.03.14 2.87.43.83.29 1.53.69 2.1 1.2.56.5 1.03 1.13 1.4 1.87.36.74.63 1.55.79 2.42.16.87.24 1.82.24 2.87v2.27h-5.24v-2.43c0-.48-.01-.9-.03-1.24a9.48 9.48 0 0 0-.16-1.19c-.08-.44-.2-.8-.33-1.08a1.94 1.94 0 0 0-.63-.71 1.7 1.7 0 0 0-1-.3c-1.55 0-2.32 1.3-2.32 3.9v11.38c0 2.6.77 3.89 2.31 3.89.46 0 .85-.14 1.16-.4.31-.26.54-.64.67-1.12.14-.48.23-.96.28-1.42.05-.46.07-1 .07-1.59v-2.71h5.22v2.23c-.02 1-.1 1.93-.25 2.78-.15.85-.4 1.67-.75 2.48a5.93 5.93 0 0 1-3.44 3.36c-.86.33-1.84.5-2.96.5a8.72 8.72 0 0 1-3.04-.49 6.17 6.17 0 0 1-2.18-1.32 6.67 6.67 0 0 1-1.41-2.03 10.1 10.1 0 0 1-.79-2.54c-.15-.9-.22-1.87-.22-2.93zm17.34 8.8v-26.37h5.33v10.81h3.82v-10.8h5.37V1358h-5.37v-11.76h-3.82V1358zm24 0v-26.37h6.4l2.8 17.58 3.04-17.58h6.17V1358h-3.93l-.12-18.55c-.29 1.9-.8 5-1.53 9.28-.74 4.27-1.25 7.37-1.54 9.27h-3.99l-3.23-18.66-.12 18.66zm25.38 0v-8.72l-4.95-17.65h5.02l2.46 11.59a1444.6 1444.6 0 0 0 2.71-11.59h4.88l-4.96 17.65v8.72z"/><path id="2zahd" d="M514.95 1349.75v-9.28c0-6.23 2.6-9.35 7.78-9.35 1.1 0 2.07.14 2.92.43.85.29 1.57.69 2.15 1.2.57.5 1.05 1.13 1.42 1.87.37.74.64 1.55.8 2.42.17.87.25 1.82.25 2.87v1.55h-5.1v-1.84c0-.46 0-.87-.03-1.21a7.63 7.63 0 0 0-.19-1.16c-.1-.42-.23-.77-.4-1.05-.16-.27-.4-.5-.7-.69a2.14 2.14 0 0 0-1.12-.27c-1.63 0-2.45 1.3-2.45 3.9v11.37c0 2.6.82 3.89 2.45 3.89 1.62 0 2.43-1.35 2.43-4.03v-2.11h-3.02v-3.83h8.35V1358h-3.66l-.67-1.85a5.47 5.47 0 0 1-4.48 2.36c-.95 0-1.82-.17-2.6-.52a5.5 5.5 0 0 1-1.91-1.37 7.82 7.82 0 0 1-1.27-2.02c-.34-.77-.58-1.56-.73-2.36-.15-.81-.22-1.64-.22-2.49zm18.34 8.25v-26.37h11v3.66h-5.67v7.18h4.01v3.75h-4V1358z"/><path id="2zahe" d="M496.63 1327v-9.63h1.38v9.63zm7-2.4c0 .8-.16 1.42-.48 1.85-.32.43-.85.65-1.59.65-.73 0-1.26-.22-1.58-.65a3.08 3.08 0 0 1-.48-1.86v-2.06c0-.8.16-1.43.48-1.86.32-.43.85-.64 1.58-.64.74 0 1.27.21 1.59.64.32.43.48 1.05.48 1.86zm-2.32 1.33a.7.7 0 0 0 .25.04.7.7 0 0 0 .26-.04.64.64 0 0 0 .18-.11c.05-.04.1-.1.12-.18l.08-.21.04-.27a8.34 8.34 0 0 0 .01-.57v-2.06a11.8 11.8 0 0 0-.01-.57 1.26 1.26 0 0 0-.12-.47.46.46 0 0 0-.12-.19.7.7 0 0 0-.44-.15.7.7 0 0 0-.43.15.46.46 0 0 0-.12.19l-.08.2-.04.27a8.08 8.08 0 0 0-.01.57v2.06a11.94 11.94 0 0 0 .01.57 1.27 1.27 0 0 0 .12.48c.03.08.07.14.12.18.04.04.1.08.18.1zm4.35 1.07l-1.55-6.88h1.32l.96 5.17.87-5.17h1.32l-1.54 6.88zm5.83.1c-.33 0-.62-.06-.87-.18a1.58 1.58 0 0 1-.58-.44 2.19 2.19 0 0 1-.35-.71 4.82 4.82 0 0 1-.19-.87 12.61 12.61 0 0 1 .01-2.86 4 4 0 0 1 .2-.8 1.6 1.6 0 0 1 .95-1.05c.24-.11.52-.16.84-.16.3 0 .55.04.78.11.22.08.4.2.56.35a2.25 2.25 0 0 1 .59 1.21 7.42 7.42 0 0 1 .13 1.7v.16h-2.75v.57a4.46 4.46 0 0 0 .02.82 1.94 1.94 0 0 0 .18.72c.04.09.1.16.2.22.08.05.18.08.3.08.13 0 .25-.03.35-.09a.5.5 0 0 0 .2-.24c.05-.12.08-.23.1-.34l.03-.42v-.29h1.36v.28a2.64 2.64 0 0 1-.54 1.66c-.33.38-.84.57-1.52.57zm-.68-4.23h1.37v-.4c0-.2-.02-.35-.03-.49a2.25 2.25 0 0 0-.1-.4.63.63 0 0 0-.2-.32.55.55 0 0 0-.35-.1.55.55 0 0 0-.35.1.65.65 0 0 0-.21.33c-.05.14-.08.28-.1.42l-.03.49zm5.8-3.78v-1.37h1.37v1.37zm0 7.91v-6.88h1.37v6.88zm4.74.1c-.56 0-1.02-.17-1.36-.5a2.62 2.62 0 0 1-.7-1.32l1.03-.34c.25.68.6 1.03 1.03 1.03.22 0 .39-.06.5-.18a.69.69 0 0 0 .19-.5c0-.33-.12-.6-.34-.8l-1.38-1.04-.39-.29c-.1-.09-.2-.2-.31-.33-.11-.14-.2-.28-.25-.45a1.67 1.67 0 0 1-.08-.54c0-.58.19-1.03.56-1.35.37-.3.87-.46 1.5-.46.3 0 .57.05.8.14.25.1.45.23.61.4.16.17.3.36.4.57.11.21.2.45.25.7l-1.03.35a3.28 3.28 0 0 0-.35-.67.91.91 0 0 0-.3-.27.78.78 0 0 0-.38-.1.69.69 0 0 0-.5.19.69.69 0 0 0-.19.5c0 .22.12.41.35.58l1.37 1.03a4 4 0 0 1 .72.75 2.07 2.07 0 0 1 .32 1.08c0 .59-.2 1.04-.57 1.35-.37.31-.87.47-1.5.47zm6.17-4.57c0 .97.28 1.46.86 1.46.57 0 .86-.49.86-1.46 0-.2-.02-.38-.04-.54a2.35 2.35 0 0 0-.13-.5.84.84 0 0 0-.27-.37.67.67 0 0 0-.42-.14.68.68 0 0 0-.43.14c-.12.1-.21.22-.27.38a3.65 3.65 0 0 0-.16 1.03zm1.2 5.51a6.24 6.24 0 0 0 .53-.03 1.3 1.3 0 0 0 .47-.14.4.4 0 0 0 .15-.14.38.38 0 0 0 .05-.2c0-.38-.36-.62-1.1-.7l-1.13-.14c-.14.1-.26.25-.36.44-.1.19-.15.39-.15.6 0 .05.02.1.06.14.04.04.1.07.18.1a2.77 2.77 0 0 0 1.08.08h.22zm0 1.02a33.53 33.53 0 0 1-.86-.02 4.04 4.04 0 0 1-.9-.12 1.67 1.67 0 0 1-.7-.3.66.66 0 0 1-.22-.24.74.74 0 0 1-.07-.33c0-.36.1-.67.29-.92.19-.26.44-.46.74-.6a1.4 1.4 0 0 1-.48-.24c-.14-.1-.2-.22-.2-.37 0-.06 0-.13.02-.2l.04-.18.09-.19a15.88 15.88 0 0 1 .21-.34l.11-.15a4.05 4.05 0 0 1 .21-.27 3.1 3.1 0 0 1-.69-2.06c0-.48.08-.9.23-1.27.15-.37.38-.67.7-.9.32-.22.7-.33 1.14-.33.25 0 .47.03.66.1.2.08.35.17.47.28.12.1.23.25.35.43.27-.5.66-.77 1.16-.8H531.13v1.12H530.69c-.08 0-.16.02-.26.05a.52.52 0 0 0-.23.12 3.14 3.14 0 0 1 .24 1.2c0 .48-.07.9-.22 1.27a1.9 1.9 0 0 1-.7.89c-.3.22-.7.33-1.14.33l-.7-.08-.05.1-.07.1a.6.6 0 0 0-.06.24c0 .1.04.17.13.24.09.06.21.11.37.14a4.86 4.86 0 0 0 .94.1 4.33 4.33 0 0 1 1.4.3c.17.07.3.15.42.25a1.33 1.33 0 0 1 .37.93c0 .25-.05.48-.13.67-.1.2-.21.36-.36.5-.14.12-.32.23-.53.31a3 3 0 0 1-.65.18c-.23.04-.48.06-.74.06zm6.78-4.47c0 .81-.16 1.43-.47 1.86-.32.43-.85.65-1.59.65-.74 0-1.26-.22-1.58-.65a3.08 3.08 0 0 1-.48-1.86v-2.06c0-.8.16-1.43.48-1.86.32-.43.84-.64 1.58-.64.74 0 1.27.21 1.59.64.31.43.47 1.05.47 1.86zm-2.31 1.34a.7.7 0 0 0 .25.04.7.7 0 0 0 .26-.04.64.64 0 0 0 .18-.11c.05-.04.09-.1.12-.18l.08-.21c.01-.07.03-.15.03-.27a8.4 8.4 0 0 0 .02-.57v-2.06a12.56 12.56 0 0 0-.02-.57 1.27 1.27 0 0 0-.11-.47.46.46 0 0 0-.12-.19.7.7 0 0 0-.44-.15.7.7 0 0 0-.44.15.46.46 0 0 0-.12.19l-.07.2-.04.27a7.75 7.75 0 0 0-.02.57v2.06a11.25 11.25 0 0 0 .02.57 1.28 1.28 0 0 0 .11.48c.04.08.08.14.12.18.05.04.11.08.19.1zm3.32 1.07v-6.88h1.37v.75c.2-.2.37-.33.5-.43a2.2 2.2 0 0 1 1.27-.41c.29 0 .53.1.71.32.18.21.27.48.27.79v5.86h-1.37v-5.16c0-.24-.04-.41-.1-.52-.07-.11-.2-.16-.42-.16a.9.9 0 0 0-.35.07l-.26.13-.25.2v5.44zm6.94.1c-.33 0-.62-.06-.86-.18a1.57 1.57 0 0 1-.59-.44 2.19 2.19 0 0 1-.35-.71 4.81 4.81 0 0 1-.19-.87 12.61 12.61 0 0 1 .01-2.86 4 4 0 0 1 .2-.8c.1-.27.21-.49.36-.65.15-.17.35-.3.59-.4.24-.11.52-.16.84-.16.3 0 .56.04.78.11.22.08.41.2.56.35a2.25 2.25 0 0 1 .6 1.21 7.42 7.42 0 0 1 .13 1.7v.16h-2.75v.57a4.45 4.45 0 0 0 .01.82 1.93 1.93 0 0 0 .18.72.54.54 0 0 0 .5.3c.14 0 .26-.03.35-.09a.5.5 0 0 0 .2-.24c.05-.12.08-.23.1-.34.02-.1.03-.25.03-.42v-.29h1.37v.28a2.64 2.64 0 0 1-.55 1.66c-.33.38-.83.57-1.52.57zm-.67-4.23h1.36v-.4c0-.2-.01-.35-.03-.49a2.24 2.24 0 0 0-.1-.4.63.63 0 0 0-.2-.32.55.55 0 0 0-.35-.1.55.55 0 0 0-.35.1.65.65 0 0 0-.2.33c-.05.14-.08.28-.1.42-.02.14-.03.3-.03.49z"/></defs><g><g transform="translate(-314 -1316)"><use fill="#0f1011" xlink:href="#2zaha"/></g><g transform="translate(-314 -1316)"><use fill="#bb0849" xlink:href="#2zahb"/></g><g transform="translate(-314 -1316)"><use fill="#0f1011" xlink:href="#2zahc"/></g><g transform="translate(-314 -1316)"><use fill="#bb0849" xlink:href="#2zahd"/></g><g transform="translate(-314 -1316)"><use fill="#aaa" xlink:href="#2zahe"/></g></g></svg>